  0
SECTION
  2
HEADER
  9
$ACADVER
  1
AC1027
  9
$ACADMAINTVER
 70
   125
  9
$DWGCODEPAGE
  3
ANSI_1252
  9
$REQUIREDVERSIONS
160
                 0
  9
$INSBASE
 10
0.0
 20
0.0
 30
0.0
  9
$EXTMIN
 10
1.000000000000000E+20
 20
1.000000000000000E+20
 30
1.000000000000000E+20
  9
$EXTMAX
 10
-1.000000000000000E+20
 20
-1.000000000000000E+20
 30
-1.000000000000000E+20
  9
$LIMMIN
 10
0.0
 20
0.0
  9
$LIMMAX
 10
12.0
 20
9.0
  9
$ORTHOMODE
 70
     0
  9
$REGENMODE
 70
     1
  9
$FILLMODE
 70
     1
  9
$QTEXTMODE
 70
     0
  9
$MIRRTEXT
 70
     0
  9
$LTSCALE
 40
1.0
  9
$ATTMODE
 70
     1
  9
$TEXTSIZE
 40
0.2
  9
$TRACEWID
 40
0.05
  9
$TEXTSTYLE
  7
Standard
  9
$CLAYER
  8
0
  9
$CELTYPE
  6
ByLayer
  9
$CECOLOR
 62
   256
  9
$CELTSCALE
 40
1.0
  9
$DISPSILH
 70
     0
  9
$DIMSCALE
 40
1.0
  9
$DIMASZ
 40
0.18
  9
$DIMEXO
 40
0.0625
  9
$DIMDLI
 40
0.38
  9
$DIMRND
 40
0.0
  9
$DIMDLE
 40
0.0
  9
$DIMEXE
 40
0.18
  9
$DIMTP
 40
0.0
  9
$DIMTM
 40
0.0
  9
$DIMTXT
 40
0.18
  9
$DIMCEN
 40
0.09
  9
$DIMTSZ
 40
0.0
  9
$DIMTOL
 70
     0
  9
$DIMLIM
 70
     0
  9
$DIMTIH
 70
     1
  9
$DIMTOH
 70
     1
  9
$DIMSE1
 70
     0
  9
$DIMSE2
 70
     0
  9
$DIMTAD
 70
     0
  9
$DIMZIN
 70
     0
  9
$DIMBLK
  1

  9
$DIMASO
 70
     1
  9
$DIMSHO
 70
     1
  9
$DIMPOST
  1

  9
$DIMAPOST
  1

  9
$DIMALT
 70
     0
  9
$DIMALTD
 70
     2
  9
$DIMALTF
 40
25.4
  9
$DIMLFAC
 40
1.0
  9
$DIMTOFL
 70
     0
  9
$DIMTVP
 40
0.0
  9
$DIMTIX
 70
     0
  9
$DIMSOXD
 70
     0
  9
$DIMSAH
 70
     0
  9
$DIMBLK1
  1

  9
$DIMBLK2
  1

  9
$DIMSTYLE
  2
Standard
  9
$DIMCLRD
 70
     0
  9
$DIMCLRE
 70
     0
  9
$DIMCLRT
 70
     0
  9
$DIMTFAC
 40
1.0
  9
$DIMGAP
 40
0.09
  9
$DIMJUST
 70
     0
  9
$DIMSD1
 70
     0
  9
$DIMSD2
 70
     0
  9
$DIMTOLJ
 70
     1
  9
$DIMTZIN
 70
     0
  9
$DIMALTZ
 70
     0
  9
$DIMALTTZ
 70
     0
  9
$DIMUPT
 70
     0
  9
$DIMDEC
 70
     4
  9
$DIMTDEC
 70
     4
  9
$DIMALTU
 70
     2
  9
$DIMALTTD
 70
     2
  9
$DIMTXSTY
  7
Standard
  9
$DIMAUNIT
 70
     0
  9
$DIMADEC
 70
     0
  9
$DIMALTRND
 40
0.0
  9
$DIMAZIN
 70
     0
  9
$DIMDSEP
 70
    46
  9
$DIMATFIT
 70
     3
  9
$DIMFRAC
 70
     0
  9
$DIMLDRBLK
  1

  9
$DIMLUNIT
 70
     2
  9
$DIMLWD
 70
    -2
  9
$DIMLWE
 70
    -2
  9
$DIMTMOVE
 70
     0
  9
$DIMFXL
 40
1.0
  9
$DIMFXLON
 70
     0
  9
$DIMJOGANG
 40
0.7853981633974483
  9
$DIMTFILL
 70
     0
  9
$DIMTFILLCLR
 70
     0
  9
$DIMARCSYM
 70
     0
  9
$DIMLTYPE
  6

  9
$DIMLTEX1
  6

  9
$DIMLTEX2
  6

  9
$DIMTXTDIRECTION
 70
     0
  9
$LUNITS
 70
     2
  9
$LUPREC
 70
     4
  9
$SKETCHINC
 40
0.1
  9
$FILLETRAD
 40
0.0
  9
$AUNITS
 70
     0
  9
$AUPREC
 70
     0
  9
$MENU
  1
.
  9
$ELEVATION
 40
0.0
  9
$PELEVATION
 40
0.0
  9
$THICKNESS
 40
0.0
  9
$LIMCHECK
 70
     0
  9
$CHAMFERA
 40
0.0
  9
$CHAMFERB
 40
0.0
  9
$CHAMFERC
 40
0.0
  9
$CHAMFERD
 40
0.0
  9
$SKPOLY
 70
     0
  9
$TDCREATE
 40
2461136.756354167
  9
$TDUCREATE
 40
2461136.756354167
  9
$TDUPDATE
 40
2461136.756354167
  9
$TDUUPDATE
 40
2461136.756354167
  9
$TDINDWG
 40
0.0000000000
  9
$TDUSRTIMER
 40
0.0000000000
  9
$USRTIMER
 70
     1
  9
$ANGBASE
 50
0.0
  9
$ANGDIR
 70
     0
  9
$PDMODE
 70
     0
  9
$PDSIZE
 40
0.0
  9
$PLINEWID
 40
0.0
  9
$SPLFRAME
 70
     0
  9
$SPLINETYPE
 70
     6
  9
$SPLINESEGS
 70
     8
  9
$HANDSEED
  5
231
  9
$SURFTAB1
 70
     6
  9
$SURFTAB2
 70
     6
  9
$SURFTYPE
 70
     6
  9
$SURFU
 70
     6
  9
$SURFV
 70
     6
  9
$UCSBASE
  2

  9
$UCSNAME
  2

  9
$UCSORG
 10
0.0
 20
0.0
 30
0.0
  9
$UCSXDIR
 10
1.0
 20
0.0
 30
0.0
  9
$UCSYDIR
 10
0.0
 20
1.0
 30
0.0
  9
$UCSORTHOREF
  2

  9
$UCSORTHOVIEW
 70
     0
  9
$UCSORGTOP
 10
0.0
 20
0.0
 30
0.0
  9
$UCSORGBOTTOM
 10
0.0
 20
0.0
 30
0.0
  9
$UCSORGLEFT
 10
0.0
 20
0.0
 30
0.0
  9
$UCSORGRIGHT
 10
0.0
 20
0.0
 30
0.0
  9
$UCSORGFRONT
 10
0.0
 20
0.0
 30
0.0
  9
$UCSORGBACK
 10
0.0
 20
0.0
 30
0.0
  9
$PUCSBASE
  2

  9
$PUCSNAME
  2

  9
$PUCSORG
 10
0.0
 20
0.0
 30
0.0
  9
$PUCSXDIR
 10
1.0
 20
0.0
 30
0.0
  9
$PUCSYDIR
 10
0.0
 20
1.0
 30
0.0
  9
$PUCSORTHOREF
  2

  9
$PUCSORTHOVIEW
 70
     0
  9
$PUCSORGTOP
 10
0.0
 20
0.0
 30
0.0
  9
$PUCSORGBOTTOM
 10
0.0
 20
0.0
 30
0.0
  9
$PUCSORGLEFT
 10
0.0
 20
0.0
 30
0.0
  9
$PUCSORGRIGHT
 10
0.0
 20
0.0
 30
0.0
  9
$PUCSORGFRONT
 10
0.0
 20
0.0
 30
0.0
  9
$PUCSORGBACK
 10
0.0
 20
0.0
 30
0.0
  9
$USERI1
 70
     0
  9
$USERI2
 70
     0
  9
$USERI3
 70
     0
  9
$USERI4
 70
     0
  9
$USERI5
 70
     0
  9
$USERR1
 40
0.0
  9
$USERR2
 40
0.0
  9
$USERR3
 40
0.0
  9
$USERR4
 40
0.0
  9
$USERR5
 40
0.0
  9
$WORLDVIEW
 70
     1
  9
$SHADEDGE
 70
     3
  9
$SHADEDIF
 70
    70
  9
$TILEMODE
 70
     1
  9
$MAXACTVP
 70
    64
  9
$PINSBASE
 10
0.0
 20
0.0
 30
0.0
  9
$PLIMCHECK
 70
     0
  9
$PEXTMIN
 10
1.000000000000000E+20
 20
1.000000000000000E+20
 30
1.000000000000000E+20
  9
$PEXTMAX
 10
-1.000000000000000E+20
 20
-1.000000000000000E+20
 30
-1.000000000000000E+20
  9
$PLIMMIN
 10
0.0
 20
0.0
  9
$PLIMMAX
 10
12.0
 20
9.0
  9
$UNITMODE
 70
     0
  9
$VISRETAIN
 70
     1
  9
$PLINEGEN
 70
     0
  9
$PSLTSCALE
 70
     1
  9
$TREEDEPTH
 70
  3020
  9
$CMLSTYLE
  2
Standard
  9
$CMLJUST
 70
     0
  9
$CMLSCALE
 40
1.0
  9
$PROXYGRAPHICS
 70
     1
  9
$MEASUREMENT
 70
     0
  9
$CELWEIGHT
370
    -1
  9
$ENDCAPS
280
     0
  9
$JOINSTYLE
280
     0
  9
$LWDISPLAY
290
     0
  9
$INSUNITS
 70
     1
  9
$HYPERLINKBASE
  1

  9
$STYLESHEET
  1

  9
$XEDIT
290
     1
  9
$CEPSNTYPE
380
     0
  9
$PSTYLEMODE
290
     1
  9
$FINGERPRINTGUID
  2
{CA37AED8-28DA-BE40-B20C-D803E71F86B9}
  9
$VERSIONGUID
  2
{13AA4A52-8B72-3449-9C68-537BA9FCD815}
  9
$EXTNAMES
290
     1
  9
$PSVPSCALE
 40
0.0
  9
$OLESTARTUP
290
     0
  9
$SORTENTS
280
   127
  9
$INDEXCTL
280
     0
  9
$HIDETEXT
280
     1
  9
$XCLIPFRAME
280
     2
  9
$HALOGAP
280
     0
  9
$OBSCOLOR
 70
   257
  9
$OBSLTYPE
280
     0
  9
$INTERSECTIONDISPLAY
280
     0
  9
$INTERSECTIONCOLOR
 70
   257
  9
$DIMASSOC
280
     2
  9
$PROJECTNAME
  1

  9
$CAMERADISPLAY
290
     0
  9
$LENSLENGTH
 40
50.0
  9
$CAMERAHEIGHT
 40
0.0
  9
$STEPSPERSEC
 40
2.0
  9
$STEPSIZE
 40
6.0
  9
$3DDWFPREC
 40
2.0
  9
$PSOLWIDTH
 40
0.25
  9
$PSOLHEIGHT
 40
4.0
  9
$LOFTANG1
 40
1.570796326794896
  9
$LOFTANG2
 40
1.570796326794896
  9
$LOFTMAG1
 40
0.0
  9
$LOFTMAG2
 40
0.0
  9
$LOFTPARAM
 70
     7
  9
$LOFTNORMALS
280
     1
  9
$LATITUDE
 40
37.795
  9
$LONGITUDE
 40
-122.394
  9
$NORTHDIRECTION
 40
0.0
  9
$TIMEZONE
 70
 -8000
  9
$LIGHTGLYPHDISPLAY
280
     1
  9
$TILEMODELIGHTSYNCH
280
     1
  9
$CMATERIAL
347
11
  9
$SOLIDHIST
280
     0
  9
$SHOWHIST
280
     1
  9
$DWFFRAME
280
     2
  9
$DGNFRAME
280
     0
  9
$REALWORLDSCALE
290
     1
  9
$INTERFERECOLOR
 62
     1
  9
$INTERFEREOBJVS
345
33
  9
$INTERFEREVPVS
346
30
  9
$CSHADOW
280
     0
  9
$SHADOWPLANELOCATION
 40
0.0
  0
ENDSEC
  0
SECTION
  2
CLASSES
  0
CLASS
  1
ACDBDICTIONARYWDFLT
  2
AcDbDictionaryWithDefault
  3
ObjectDBX Classes
 90
        0
 91
        1
280
     0
281
     0
  0
CLASS
  1
MATERIAL
  2
AcDbMaterial
  3
ObjectDBX Classes
 90
     1153
 91
        3
280
     0
281
     0
  0
CLASS
  1
VISUALSTYLE
  2
AcDbVisualStyle
  3
ObjectDBX Classes
 90
     4095
 91
       24
280
     0
281
     0
  0
CLASS
  1
SCALE
  2
AcDbScale
  3
ObjectDBX Classes
 90
     1153
 91
       17
280
     0
281
     0
  0
CLASS
  1
TABLESTYLE
  2
AcDbTableStyle
  3
ObjectDBX Classes
 90
     4095
 91
        1
280
     0
281
     0
  0
CLASS
  1
MLEADERSTYLE
  2
AcDbMLeaderStyle
  3
ACDB_MLEADERSTYLE_CLASS
 90
     4095
 91
        1
280
     0
281
     0
  0
CLASS
  1
ACDBSECTIONVIEWSTYLE
  2
AcDbSectionViewStyle
  3
ObjectDBX Classes
 90
     1025
 91
        1
280
     0
281
     0
  0
CLASS
  1
ACDBDETAILVIEWSTYLE
  2
AcDbDetailViewStyle
  3
ObjectDBX Classes
 90
     1025
 91
        1
280
     0
281
     0
  0
CLASS
  1
DICTIONARYVAR
  2
AcDbDictionaryVar
  3
ObjectDBX Classes
 90
        0
 91
        5
280
     0
281
     0
  0
CLASS
  1
CELLSTYLEMAP
  2
AcDbCellStyleMap
  3
ObjectDBX Classes
 90
     1152
 91
        1
280
     0
281
     0
  0
ENDSEC
  0
SECTION
  2
TABLES
  0
TABLE
  2
VPORT
  5
8
330
0
100
AcDbSymbolTable
 70
     1
1001
ACAD
1000
DbSaveVer
1071
      471
  0
VPORT
  5
57
330
8
100
AcDbSymbolTableRecord
100
AcDbViewportTableRecord
  2
*Active
 70
     0
 10
0.0
 20
0.0
 11
1.0
 21
1.0
 12
500.0
 22
500.0
 13
0.0
 23
0.0
 14
1.0
 24
1.0
 15
0.0
 25
0.0
 16
0.0
 26
0.0
 36
1.0
 17
0.0
 27
0.0
 37
0.0
 40
12.0
 41
1.0
 42
50.0
 43
0.0
 44
0.0
 50
0.0
 51
0.0
 71
     0
 72
   100
 73
     1
 74
     1
 75
     0
 76
     0
 77
     0
 78
     0
281
     0
 65
     1
110
0.0
120
0.0
130
0.0
111
1.0
121
0.0
131
0.0
112
0.0
122
1.0
132
0.0
 79
     0
146
0.0
 60
     3
 61
     5
292
     1
282
     1
141
0.0
142
0.0
 63
   250
421
  3355443
  0
ENDTAB
  0
TABLE
  2
LTYPE
  5
5
330
0
100
AcDbSymbolTable
 70
     1
  0
LTYPE
  5
5B
330
5
100
AcDbSymbolTableRecord
100
AcDbLinetypeTableRecord
  2
ByBlock
 70
     0
  3

 72
    65
 73
     0
 40
0.0
  0
LTYPE
  5
5C
330
5
100
AcDbSymbolTableRecord
100
AcDbLinetypeTableRecord
  2
ByLayer
 70
     0
  3

 72
    65
 73
     0
 40
0.0
  0
LTYPE
  5
5D
330
5
100
AcDbSymbolTableRecord
100
AcDbLinetypeTableRecord
  2
Continuous
 70
     0
  3
Solid line
 72
    65
 73
     0
 40
0.0
  0
ENDTAB
  0
TABLE
  2
LAYER
  5
2
330
0
100
AcDbSymbolTable
 70
     7
  0
LAYER
  5
54
330
2
100
AcDbSymbolTableRecord
100
AcDbLayerTableRecord
  2
0
 70
     0
 62
     7
  6
Continuous
370
    -3
390
F
347
21
348
0
  0
LAYER
  5
7A
330
2
100
AcDbSymbolTableRecord
100
AcDbLayerTableRecord
  2
corrected final table design v1_depths$1_4_
 70
     0
 62
     7
  6
Continuous
370
    -3
390
F
347
21
348
0
1001
NFusion_SketchTransform
1000
1.000000;0.000000;0.000000;0.000000;0.000000;1.000000;0.000000;0.000000;0.000000;0.000000;1.000000;0.000000;0.000000;0.000000;0.000000;1.000000
  0
LAYER
  5
A2
330
2
100
AcDbSymbolTableRecord
100
AcDbLayerTableRecord
  2
corrected final table design v1_depths$3_4_
 70
     0
 62
     7
  6
Continuous
370
    -3
390
F
347
21
348
0
1001
NFusion_SketchTransform
1000
1.000000;0.000000;0.000000;0.000000;0.000000;1.000000;0.000000;0.000000;0.000000;0.000000;1.000000;0.000000;0.000000;0.000000;0.000000;1.000000
  0
LAYER
  5
105
330
2
100
AcDbSymbolTableRecord
100
AcDbLayerTableRecord
  2
corrected final table design v1_cup lights$outside diameter
 70
     0
 62
     7
  6
Continuous
370
    -3
390
F
347
21
348
0
1001
NFusion_SketchTransform
1000
1.000000;0.000000;0.000000;0.000000;0.000000;1.000000;0.000000;0.000000;0.000000;0.000000;1.000000;0.000000;0.000000;0.000000;0.000000;1.000000
  0
LAYER
  5
19F
330
2
100
AcDbSymbolTableRecord
100
AcDbLayerTableRecord
  2
corrected final table design v1_inside semi circle table
 70
     0
 62
     7
  6
Continuous
370
    -3
390
F
347
21
348
0
1001
NFusion_SketchTransform
1000
1.000000;0.000000;0.000000;0.000000;0.000000;1.000000;0.000000;0.000000;0.000000;0.000000;1.000000;0.000000;0.000000;0.000000;0.000000;1.000000
  0
LAYER
  5
1AC
330
2
100
AcDbSymbolTableRecord
100
AcDbLayerTableRecord
  2
corrected final table design v1_Default
 70
     0
 62
     7
  6
Continuous
370
    -3
390
F
347
21
348
0
1001
NFusion_SketchTransform
1000
1.000000;0.000000;0.000000;0.000000;0.000000;1.000000;0.000000;0.000000;0.000000;0.000000;1.000000;0.000000;0.000000;0.000000;0.000000;1.000000
  0
LAYER
  5
1F4
330
2
100
AcDbSymbolTableRecord
100
AcDbLayerTableRecord
  2
corrected final table design v1_table legs
 70
     0
 62
     7
  6
Continuous
370
    -3
390
F
347
21
348
0
1001
NFusion_SketchTransform
1000
1.000000;0.000000;0.000000;0.000000;0.000000;1.000000;0.000000;0.000000;0.000000;0.000000;1.000000;0.000000;0.000000;0.000000;0.000000;1.000000
  0
ENDTAB
  0
TABLE
  2
STYLE
  5
3
330
0
100
AcDbSymbolTable
 70
     2
  0
STYLE
  5
55
330
3
100
AcDbSymbolTableRecord
100
AcDbTextStyleTableRecord
  2
Standard
 70
     0
 40
0.0
 41
1.0
 50
0.0
 71
     0
 42
0.2
  3
txt
  4

  0
STYLE
  5
5A
330
3
100
AcDbSymbolTableRecord
100
AcDbTextStyleTableRecord
  2
Annotative
 70
     0
 40
0.0
 41
1.0
 50
0.0
 71
     0
 42
0.2
  3
txt
  4

1001
AcadAnnotative
1000
AnnotativeData
1002
{
1070
     1
1070
     1
1002
}
  0
ENDTAB
  0
TABLE
  2
VIEW
  5
6
330
0
100
AcDbSymbolTable
 70
     0
  0
ENDTAB
  0
TABLE
  2
UCS
  5
7
330
0
100
AcDbSymbolTable
 70
     0
  0
ENDTAB
  0
TABLE
  2
APPID
  5
9
330
0
100
AcDbSymbolTable
 70
     4
  0
APPID
  5
56
330
9
100
AcDbSymbolTableRecord
100
AcDbRegAppTableRecord
  2
ACAD
 70
     0
  0
APPID
  5
5E
330
9
100
AcDbSymbolTableRecord
100
AcDbRegAppTableRecord
  2
AcadAnnotative
 70
     0
  0
APPID
  5
78
330
9
100
AcDbSymbolTableRecord
100
AcDbRegAppTableRecord
  2
EDIT_IN_FUSION_ACAD_ADDIN
 70
     0
  0
APPID
  5
79
330
9
100
AcDbSymbolTableRecord
100
AcDbRegAppTableRecord
  2
NFusion_SketchTransform
 70
     0
  0
ENDTAB
  0
TABLE
  2
DIMSTYLE
  5
A
330
0
100
AcDbSymbolTable
 70
     2
100
AcDbDimStyleTable
 71
     0
  0
DIMSTYLE
105
58
330
A
100
AcDbSymbolTableRecord
100
AcDbDimStyleTableRecord
  2
Standard
 70
     0
340
55
  0
DIMSTYLE
105
59
330
A
100
AcDbSymbolTableRecord
100
AcDbDimStyleTableRecord
  2
Annotative
 70
     0
340
55
1001
AcadAnnotative
1000
AnnotativeData
1002
{
1070
     1
1070
     1
1002
}
  0
ENDTAB
  0
TABLE
  2
BLOCK_RECORD
  5
1
330
0
100
AcDbSymbolTable
 70
     1
  0
BLOCK_RECORD
  5
70
330
1
100
AcDbSymbolTableRecord
100
AcDbBlockTableRecord
  2
*Model_Space
340
73
 70
     0
280
     1
281
     0
  0
BLOCK_RECORD
  5
6C
330
1
100
AcDbSymbolTableRecord
100
AcDbBlockTableRecord
  2
*Paper_Space
340
6F
 70
     0
280
     1
281
     0
  0
BLOCK_RECORD
  5
74
330
1
100
AcDbSymbolTableRecord
100
AcDbBlockTableRecord
  2
*Paper_Space0
340
77
 70
     0
280
     1
281
     0
  0
ENDTAB
  0
ENDSEC
  0
SECTION
  2
BLOCKS
  0
BLOCK
  5
71
330
70
100
AcDbEntity
  8
0
100
AcDbBlockBegin
  2
*Model_Space
 70
     0
 10
0.0
 20
0.0
 30
0.0
  3
*Model_Space
  1

  0
ENDBLK
  5
72
330
70
100
AcDbEntity
  8
0
100
AcDbBlockEnd
  0
BLOCK
  5
6D
330
6C
100
AcDbEntity
 67
     1
  8
0
100
AcDbBlockBegin
  2
*Paper_Space
 70
     0
 10
0.0
 20
0.0
 30
0.0
  3
*Paper_Space
  1

  0
ENDBLK
  5
6E
330
6C
100
AcDbEntity
 67
     1
  8
0
100
AcDbBlockEnd
  0
BLOCK
  5
75
330
74
100
AcDbEntity
 67
     1
  8
0
100
AcDbBlockBegin
  2
*Paper_Space0
 70
     0
 10
0.0
 20
0.0
 30
0.0
  3
*Paper_Space0
  1

  0
ENDBLK
  5
76
330
74
100
AcDbEntity
 67
     1
  8
0
100
AcDbBlockEnd
  0
ENDSEC
  0
SECTION
  2
ENTITIES
  0
POINT
  5
7B
330
70
100
AcDbEntity
  8
corrected final table design v1_depths$1_4_
100
AcDbPoint
 10
0.0
 20
0.0
 30
0.0
  0
LINE
  5
7C
330
70
100
AcDbEntity
  8
corrected final table design v1_depths$1_4_
100
AcDbLine
 10
-314.6521782404778
 20
-15.6299886884341
 30
0.0
 11
-314.6521782404778
 21
-8.804534974542107
 31
0.0
  0
LINE
  5
7D
330
70
100
AcDbEntity
  8
corrected final table design v1_depths$1_4_
100
AcDbLine
 10
-322.6521782404778
 20
-54.80453497454211
 30
0.0
 11
-322.6521782404778
 21
-8.804534974542107
 31
0.0
  0
LINE
  5
7E
330
70
100
AcDbEntity
  8
corrected final table design v1_depths$1_4_
100
AcDbLine
 10
-322.6521782404778
 20
-8.804534974542104
 30
0.0
 11
-314.6521782404779
 21
-8.804534974542107
 31
0.0
  0
LINE
  5
7F
330
70
100
AcDbEntity
  8
corrected final table design v1_depths$1_4_
100
AcDbLine
 10
-314.6521782404778
 20
-54.80453497454211
 30
0.0
 11
-322.6521782404778
 21
-54.80453497454211
 31
0.0
  0
LINE
  5
80
330
70
100
AcDbEntity
  8
corrected final table design v1_depths$1_4_
100
AcDbLine
 10
-228.6521782404778
 20
-8.804534974542107
 30
0.0
 11
-228.6521782404778
 21
-54.80453497454211
 31
0.0
  0
LINE
  5
81
330
70
100
AcDbEntity
  8
corrected final table design v1_depths$1_4_
100
AcDbLine
 10
-228.6521782404778
 20
-54.80453497454211
 30
0.0
 11
-236.6521782404778
 21
-54.80453497454211
 31
0.0
  0
LINE
  5
82
330
70
100
AcDbEntity
  8
corrected final table design v1_depths$1_4_
100
AcDbLine
 10
-236.6521782404778
 20
-54.80453497454211
 30
0.0
 11
-236.6521782404778
 21
-47.97908126065014
 31
0.0
  0
LINE
  5
83
330
70
100
AcDbEntity
  8
corrected final table design v1_depths$1_4_
100
AcDbLine
 10
-236.6521782404778
 20
-8.804534974542107
 30
0.0
 11
-228.6521782404778
 21
-8.804534974542107
 31
0.0
  0
LINE
  5
84
330
70
100
AcDbEntity
  8
corrected final table design v1_depths$1_4_
100
AcDbLine
 10
-236.6521782404778
 20
-15.62998868831656
 30
0.0
 11
-236.6521782404778
 21
-8.804534974542107
 31
0.0
  0
LINE
  5
85
330
70
100
AcDbEntity
  8
corrected final table design v1_depths$1_4_
100
AcDbLine
 10
-322.6521782404779
 20
-11.0111865347991
 30
0.0
 11
-322.6521782404777
 21
-52.59788341428511
 31
0.0
  0
LINE
  5
86
330
70
100
AcDbEntity
  8
corrected final table design v1_depths$1_4_
100
AcDbLine
 10
-322.6521782404779
 20
-11.0111865347991
 30
0.0
 11
-322.6521782404777
 21
-52.59788341428511
 31
0.0
  0
LINE
  5
87
330
70
100
AcDbEntity
  8
corrected final table design v1_depths$1_4_
100
AcDbLine
 10
-314.6521782404778
 20
-15.6299886884341
 30
0.0
 11
-286.6370422838217
 21
-31.80453497480642
 31
0.0
  0
LINE
  5
88
330
70
100
AcDbEntity
  8
corrected final table design v1_depths$1_4_
100
AcDbLine
 10
-286.8341782404779
 20
-31.80453497454211
 30
0.0
 11
-322.6521782404778
 21
-31.80453497454211
 31
0.0
  0
LINE
  5
89
330
70
100
AcDbEntity
  8
corrected final table design v1_depths$1_4_
100
AcDbLine
 10
-314.6521782404778
 20
-15.6299886884341
 30
0.0
 11
-286.6370422838217
 21
-31.80453497480642
 31
0.0
  0
LINE
  5
8A
330
70
100
AcDbEntity
  8
corrected final table design v1_depths$1_4_
100
AcDbLine
 10
-314.6521782404778
 20
-15.6299886884341
 30
0.0
 11
-286.6370422838217
 21
-31.80453497480642
 31
0.0
  0
LINE
  5
8B
330
70
100
AcDbEntity
  8
corrected final table design v1_depths$1_4_
100
AcDbLine
 10
-314.6521782404778
 20
-54.80453497454211
 30
0.0
 11
-314.6521782404778
 21
-47.97908126076761
 31
0.0
  0
LINE
  5
8C
330
70
100
AcDbEntity
  8
corrected final table design v1_depths$1_4_
100
AcDbLine
 10
-314.6521782404778
 20
-47.97908126076761
 30
0.0
 11
-286.6370422838217
 21
-31.80453497480641
 31
0.0
  0
LINE
  5
8D
330
70
100
AcDbEntity
  8
corrected final table design v1_depths$1_4_
100
AcDbLine
 10
-236.6521782404778
 20
-47.97908126065014
 30
0.0
 11
-264.6673141971339
 21
-31.80453497427779
 31
0.0
  0
LINE
  5
8E
330
70
100
AcDbEntity
  8
corrected final table design v1_depths$1_4_
100
AcDbLine
 10
-236.6521782404778
 20
-47.97908126065014
 30
0.0
 11
-264.6673141971339
 21
-31.80453497427779
 31
0.0
  0
LINE
  5
8F
330
70
100
AcDbEntity
  8
corrected final table design v1_depths$1_4_
100
AcDbLine
 10
-314.6521782404778
 20
-15.6299886884341
 30
0.0
 11
-286.6370422838217
 21
-31.80453497480642
 31
0.0
  0
LINE
  5
90
330
70
100
AcDbEntity
  8
corrected final table design v1_depths$1_4_
100
AcDbLine
 10
-322.2343278554672
 20
-31.80453497454211
 30
0.0
 11
-322.6521782404778
 21
-31.80453497454211
 31
0.0
  0
LINE
  5
91
330
70
100
AcDbEntity
  8
corrected final table design v1_depths$1_4_
100
AcDbLine
 10
-228.6521782404778
 20
-52.5978834142851
 30
0.0
 11
-228.6521782404779
 21
-11.01118653479909
 31
0.0
  0
LINE
  5
92
330
70
100
AcDbEntity
  8
corrected final table design v1_depths$1_4_
100
AcDbLine
 10
-229.0700286254885
 20
-31.80453497454211
 30
0.0
 11
-228.6521782404778
 21
-31.80453497454211
 31
0.0
  0
LINE
  5
93
330
70
100
AcDbEntity
  8
corrected final table design v1_depths$1_4_
100
AcDbLine
 10
-236.6521782404778
 20
-47.97908126065014
 30
0.0
 11
-264.6673141971339
 21
-31.80453497427779
 31
0.0
  0
LINE
  5
94
330
70
100
AcDbEntity
  8
corrected final table design v1_depths$1_4_
100
AcDbLine
 10
-236.6521782404778
 20
-47.97908126065014
 30
0.0
 11
-264.6673141971339
 21
-31.80453497427779
 31
0.0
  0
LINE
  5
95
330
70
100
AcDbEntity
  8
corrected final table design v1_depths$1_4_
100
AcDbLine
 10
-228.6521782404778
 20
-52.5978834142851
 30
0.0
 11
-228.6521782404779
 21
-11.01118653479909
 31
0.0
  0
LINE
  5
96
330
70
100
AcDbEntity
  8
corrected final table design v1_depths$1_4_
100
AcDbLine
 10
-314.6521782404778
 20
-47.97908126076761
 30
0.0
 11
-286.6370422838217
 21
-31.80453497480641
 31
0.0
  0
LINE
  5
97
330
70
100
AcDbEntity
  8
corrected final table design v1_depths$1_4_
100
AcDbLine
 10
-314.6521782404778
 20
-15.6299886884341
 30
0.0
 11
-286.6370422838217
 21
-31.80453497480642
 31
0.0
  0
LINE
  5
98
330
70
100
AcDbEntity
  8
corrected final table design v1_depths$1_4_
100
AcDbLine
 10
-314.6521782404778
 20
-47.97908126076761
 30
0.0
 11
-286.6370422838217
 21
-31.80453497480641
 31
0.0
  0
LINE
  5
99
330
70
100
AcDbEntity
  8
corrected final table design v1_depths$1_4_
100
AcDbLine
 10
-236.6521782404778
 20
-15.62998868831656
 30
0.0
 11
-264.6673141971339
 21
-31.80453497427779
 31
0.0
  0
LINE
  5
9A
330
70
100
AcDbEntity
  8
corrected final table design v1_depths$1_4_
100
AcDbLine
 10
-236.6521782404778
 20
-15.62998868831656
 30
0.0
 11
-264.6673141971339
 21
-31.80453497427779
 31
0.0
  0
LINE
  5
9B
330
70
100
AcDbEntity
  8
corrected final table design v1_depths$1_4_
100
AcDbLine
 10
-322.6521782404779
 20
-11.0111865347991
 30
0.0
 11
-322.6521782404777
 21
-52.59788341428511
 31
0.0
  0
LINE
  5
9C
330
70
100
AcDbEntity
  8
corrected final table design v1_depths$1_4_
100
AcDbLine
 10
-314.6521782404778
 20
-47.97908126076761
 30
0.0
 11
-286.6370422838217
 21
-31.80453497480641
 31
0.0
  0
LINE
  5
9D
330
70
100
AcDbEntity
  8
corrected final table design v1_depths$1_4_
100
AcDbLine
 10
-228.6521782404778
 20
-52.5978834142851
 30
0.0
 11
-228.6521782404779
 21
-11.01118653479909
 31
0.0
  0
LINE
  5
9E
330
70
100
AcDbEntity
  8
corrected final table design v1_depths$1_4_
100
AcDbLine
 10
-236.6521782404778
 20
-15.62998868831656
 30
0.0
 11
-264.6673141971339
 21
-31.80453497427779
 31
0.0
  0
LINE
  5
9F
330
70
100
AcDbEntity
  8
corrected final table design v1_depths$1_4_
100
AcDbLine
 10
-236.6521782404778
 20
-15.62998868831656
 30
0.0
 11
-264.6673141971339
 21
-31.80453497427779
 31
0.0
  0
LINE
  5
A0
330
70
100
AcDbEntity
  8
corrected final table design v1_depths$1_4_
100
AcDbLine
 10
-322.6521782404779
 20
-11.0111865347991
 30
0.0
 11
-322.6521782404777
 21
-52.59788341428511
 31
0.0
  0
LINE
  5
A1
330
70
100
AcDbEntity
  8
corrected final table design v1_depths$1_4_
100
AcDbLine
 10
-228.6521782404778
 20
-52.5978834142851
 30
0.0
 11
-228.6521782404779
 21
-11.01118653479909
 31
0.0
  0
POINT
  5
A3
330
70
100
AcDbEntity
  8
corrected final table design v1_depths$3_4_
100
AcDbPoint
 10
0.0
 20
0.0
 30
0.0
  0
LINE
  5
A4
330
70
100
AcDbEntity
  8
corrected final table design v1_depths$3_4_
100
AcDbLine
 10
-277.9021782404778
 20
-51.30453497454209
 30
0.0
 11
-277.9021782404778
 21
-52.8045349745421
 31
0.0
  0
LINE
  5
A5
330
70
100
AcDbEntity
  8
corrected final table design v1_depths$3_4_
100
AcDbLine
 10
-253.0788569294733
 20
-22.80453497454211
 30
0.0
 11
-268.4932677088397
 21
-22.80453497454211
 31
0.0
  0
LINE
  5
A6
330
70
100
AcDbEntity
  8
corrected final table design v1_depths$3_4_
100
AcDbLine
 10
-272.6521782404778
 20
-10.80453497454211
 30
0.0
 11
-238.6521782404778
 21
-10.80453497454211
 31
0.0
  0
LINE
  5
A7
330
70
100
AcDbEntity
  8
corrected final table design v1_depths$3_4_
100
AcDbLine
 10
-247.0166791025414
 20
-44.30453497454212
 30
0.0
 11
-273.4021782404778
 21
-44.30453497454212
 31
0.0
  0
LINE
  5
A8
330
70
100
AcDbEntity
  8
corrected final table design v1_depths$3_4_
100
AcDbLine
 10
-270.9617624806544
 20
-21.30453497454211
 30
0.0
 11
-250.4807807181203
 21
-21.30453497454211
 31
0.0
  0
LINE
  5
A9
330
70
100
AcDbEntity
  8
corrected final table design v1_depths$3_4_
100
AcDbLine
 10
-256.5429585439271
 20
-38.8045349745421
 30
0.0
 11
-266.5280344450305
 21
-38.80453497454212
 31
0.0
  0
LINE
  5
AA
330
70
100
AcDbEntity
  8
corrected final table design v1_depths$3_4_
100
AcDbLine
 10
-273.4021782404778
 20
-49.30453497454212
 30
0.0
 11
-238.6521782404778
 21
-49.30453497454212
 31
0.0
  0
LINE
  5
AB
330
70
100
AcDbEntity
  8
corrected final table design v1_depths$3_4_
100
AcDbLine
 10
-277.9021782404778
 20
-12.30453497454211
 30
0.0
 11
-277.9021782404778
 21
-10.80453497454211
 31
0.0
  0
LINE
  5
AC
330
70
100
AcDbEntity
  8
corrected final table design v1_depths$3_4_
100
AcDbLine
 10
-238.6521782404778
 20
-10.80453497454211
 30
0.0
 11
-238.6521782404778
 21
-12.30453497454211
 31
0.0
  0
LINE
  5
AD
330
70
100
AcDbEntity
  8
corrected final table design v1_depths$3_4_
100
AcDbLine
 10
-304.2876773779728
 20
-44.30453497454212
 30
0.0
 11
-277.9021782404778
 21
-44.30453497454212
 31
0.0
  0
LINE
  5
AE
330
70
100
AcDbEntity
  8
corrected final table design v1_depths$3_4_
100
AcDbLine
 10
-247.016679102983
 20
-19.30453497454211
 30
0.0
 11
-273.4021782404778
 21
-19.30453497454211
 31
0.0
  0
LINE
  5
AF
330
70
100
AcDbEntity
  8
corrected final table design v1_depths$3_4_
100
AcDbLine
 10
-273.4021782404778
 20
-52.8045349745421
 30
0.0
 11
-272.6521782404778
 21
-52.8045349745421
 31
0.0
  0
LINE
  5
B0
330
70
100
AcDbEntity
  8
corrected final table design v1_depths$3_4_
100
AcDbLine
 10
-278.6521782404778
 20
-52.8045349745421
 30
0.0
 11
-312.6521782404779
 21
-52.8045349745421
 31
0.0
  0
LINE
  5
B1
330
70
100
AcDbEntity
  8
corrected final table design v1_depths$3_4_
100
AcDbLine
 10
-277.9021782404778
 20
-45.80453497454211
 30
0.0
 11
-306.8857535893258
 21
-45.8045349745421
 31
0.0
  0
LINE
  5
B2
330
70
100
AcDbEntity
  8
corrected final table design v1_depths$3_4_
100
AcDbLine
 10
-256.5429585446107
 20
-24.80453497454211
 30
0.0
 11
-266.5280344450305
 21
-24.80453497454209
 31
0.0
  0
LINE
  5
B3
330
70
100
AcDbEntity
  8
corrected final table design v1_depths$3_4_
100
AcDbLine
 10
-265.5526733021157
 20
-26.3045349745421
 30
0.0
 11
-259.1410347559637
 21
-26.3045349745421
 31
0.0
  0
LINE
  5
B4
330
70
100
AcDbEntity
  8
corrected final table design v1_depths$3_4_
100
AcDbLine
 10
-253.0788569288777
 20
-40.8045349745421
 30
0.0
 11
-268.4932677088397
 21
-40.80453497454209
 31
0.0
  0
LINE
  5
B5
330
70
100
AcDbEntity
  8
corrected final table design v1_depths$3_4_
100
AcDbLine
 10
-238.6521782404778
 20
-49.30453497454212
 30
0.0
 11
-238.6521782404778
 21
-49.13378179901471
 31
0.0
  0
LINE
  5
B6
330
70
100
AcDbEntity
  8
corrected final table design v1_depths$3_4_
100
AcDbLine
 10
-273.4021782404778
 20
-44.30453497454212
 30
0.0
 11
-273.4021782404778
 21
-45.80453497454211
 31
0.0
  0
LINE
  5
B7
330
70
100
AcDbEntity
  8
corrected final table design v1_depths$3_4_
100
AcDbLine
 10
-273.4021782404778
 20
-45.80453497454211
 30
0.0
 11
-244.4186028912545
 21
-45.8045349745421
 31
0.0
  0
LINE
  5
B8
330
70
100
AcDbEntity
  8
corrected final table design v1_depths$3_4_
100
AcDbLine
 10
-294.7613979363451
 20
-38.8045349745421
 30
0.0
 11
-284.7763220359251
 21
-38.80453497454212
 31
0.0
  0
LINE
  5
B9
330
70
100
AcDbEntity
  8
corrected final table design v1_depths$3_4_
100
AcDbLine
 10
-273.4021782404778
 20
-15.80453497454211
 30
0.0
 11
-273.4021782404778
 21
-14.30453497454211
 31
0.0
  0
LINE
  5
BA
330
70
100
AcDbEntity
  8
corrected final table design v1_depths$3_4_
100
AcDbLine
 10
-312.6521782404779
 20
-14.30453497454211
 30
0.0
 11
-312.6521782404779
 21
-14.47528815006959
 31
0.0
  0
LINE
  5
BB
330
70
100
AcDbEntity
  8
corrected final table design v1_depths$3_4_
100
AcDbLine
 10
-273.4021782404778
 20
-19.30453497454211
 30
0.0
 11
-273.4021782404778
 21
-17.80453497454211
 31
0.0
  0
LINE
  5
BC
330
70
100
AcDbEntity
  8
corrected final table design v1_depths$3_4_
100
AcDbLine
 10
-273.4021782404778
 20
-14.30453497454211
 30
0.0
 11
-238.6521782404778
 21
-14.30453497454211
 31
0.0
  0
LINE
  5
BD
330
70
100
AcDbEntity
  8
corrected final table design v1_depths$3_4_
100
AcDbLine
 10
-272.6521782404778
 20
-52.8045349745421
 30
0.0
 11
-238.6521782404778
 21
-52.8045349745421
 31
0.0
  0
LINE
  5
BE
330
70
100
AcDbEntity
  8
corrected final table design v1_depths$3_4_
100
AcDbLine
 10
-277.9021782404778
 20
-47.80453497454211
 30
0.0
 11
-277.9021782404778
 21
-49.30453497454212
 31
0.0
  0
LINE
  5
BF
330
70
100
AcDbEntity
  8
corrected final table design v1_depths$3_4_
100
AcDbLine
 10
-277.9021782404778
 20
-52.8045349745421
 30
0.0
 11
-278.6521782404778
 21
-52.8045349745421
 31
0.0
  0
LINE
  5
C0
330
70
100
AcDbEntity
  8
corrected final table design v1_depths$3_4_
100
AcDbLine
 10
-238.6521782404778
 20
-52.8045349745421
 30
0.0
 11
-238.6521782404778
 21
-51.30453497454211
 31
0.0
  0
LINE
  5
C1
330
70
100
AcDbEntity
  8
corrected final table design v1_depths$3_4_
100
AcDbLine
 10
-285.7516831788398
 20
-37.30453497454211
 30
0.0
 11
-292.1633217249921
 21
-37.30453497454211
 31
0.0
  0
LINE
  5
C2
330
70
100
AcDbEntity
  8
corrected final table design v1_depths$3_4_
100
AcDbLine
 10
-273.4021782404778
 20
-17.8045349745421
 30
0.0
 11
-244.41860289163
 21
-17.8045349745421
 31
0.0
  0
LINE
  5
C3
330
70
100
AcDbEntity
  8
corrected final table design v1_depths$3_4_
100
AcDbLine
 10
-277.9021782404778
 20
-15.80453497454211
 30
0.0
 11
-277.9021782404778
 21
-14.30453497454211
 31
0.0
  0
LINE
  5
C4
330
70
100
AcDbEntity
  8
corrected final table design v1_depths$3_4_
100
AcDbLine
 10
-277.9021782404778
 20
-17.8045349745421
 30
0.0
 11
-306.8857535897013
 21
-17.8045349745421
 31
0.0
  0
LINE
  5
C5
330
70
100
AcDbEntity
  8
corrected final table design v1_depths$3_4_
100
AcDbLine
 10
-273.4021782404778
 20
-12.30453497454211
 30
0.0
 11
-273.4021782404778
 21
-10.80453497454211
 31
0.0
  0
LINE
  5
C6
330
70
100
AcDbEntity
  8
corrected final table design v1_depths$3_4_
100
AcDbLine
 10
-277.9021782404778
 20
-10.80453497454211
 30
0.0
 11
-278.6521782404778
 21
-10.80453497454211
 31
0.0
  0
LINE
  5
C7
330
70
100
AcDbEntity
  8
corrected final table design v1_depths$3_4_
100
AcDbLine
 10
-277.9021782404778
 20
-19.30453497454211
 30
0.0
 11
-277.9021782404778
 21
-17.80453497454211
 31
0.0
  0
LINE
  5
C8
330
70
100
AcDbEntity
  8
corrected final table design v1_depths$3_4_
100
AcDbLine
 10
-238.6521782404778
 20
-14.30453497454211
 30
0.0
 11
-238.6521782404778
 21
-14.47528814993735
 31
0.0
  0
LINE
  5
C9
330
70
100
AcDbEntity
  8
corrected final table design v1_depths$3_4_
100
AcDbLine
 10
-298.2254995514824
 20
-40.8045349745421
 30
0.0
 11
-282.811088772116
 21
-40.80453497454209
 31
0.0
  0
LINE
  5
CA
330
70
100
AcDbEntity
  8
corrected final table design v1_depths$3_4_
100
AcDbLine
 10
-278.6521782404778
 20
-10.80453497454211
 30
0.0
 11
-312.6521782404779
 21
-10.80453497454211
 31
0.0
  0
LINE
  5
CB
330
70
100
AcDbEntity
  8
corrected final table design v1_depths$3_4_
100
AcDbLine
 10
-277.9021782404778
 20
-14.30453497454211
 30
0.0
 11
-312.6521782404779
 21
-14.30453497454211
 31
0.0
  0
LINE
  5
CC
330
70
100
AcDbEntity
  8
corrected final table design v1_depths$3_4_
100
AcDbLine
 10
-240.9545012762051
 20
-47.80453497454211
 30
0.0
 11
-273.4021782404778
 21
-47.80453497454211
 31
0.0
  0
LINE
  5
CD
330
70
100
AcDbEntity
  8
corrected final table design v1_depths$3_4_
100
AcDbLine
 10
-304.2876773784144
 20
-19.30453497454211
 30
0.0
 11
-277.9021782404778
 21
-19.30453497454211
 31
0.0
  0
LINE
  5
CE
330
70
100
AcDbEntity
  8
corrected final table design v1_depths$3_4_
100
AcDbLine
 10
-312.6521782404779
 20
-14.47528815006959
 30
0.0
 11
-310.3498552047507
 21
-15.80453497454211
 31
0.0
  0
LINE
  5
CF
330
70
100
AcDbEntity
  8
corrected final table design v1_depths$3_4_
100
AcDbLine
 10
-306.8857535893258
 20
-45.8045349745421
 30
0.0
 11
-304.2876773779728
 21
-44.30453497454212
 31
0.0
  0
LINE
  5
D0
330
70
100
AcDbEntity
  8
corrected final table design v1_depths$3_4_
100
AcDbLine
 10
-285.7516831788398
 20
-26.3045349745421
 30
0.0
 11
-292.1633217257418
 21
-26.3045349745421
 31
0.0
  0
ARC
  5
D1
330
70
100
AcDbEntity
  8
corrected final table design v1_depths$3_4_
100
AcDbCircle
 10
275.6521782404778
 20
-31.80453497454211
 30
0.0
 40
11.49999999999997
210
0.0
220
0.0
230
-1.0
100
AcDbArc
 50
322.5047502354413
 51
331.428121857691
  0
LINE
  5
D2
330
70
100
AcDbEntity
  8
corrected final table design v1_depths$3_4_
100
AcDbLine
 10
-300.8235757628355
 20
-42.3045349745421
 30
0.0
 11
-298.2254995514824
 21
-40.8045349745421
 31
0.0
  0
LINE
  5
D3
330
70
100
AcDbEntity
  8
corrected final table design v1_depths$3_4_
100
AcDbLine
 10
-273.4021782404778
 20
-51.30453497454209
 30
0.0
 11
-273.4021782404778
 21
-52.8045349745421
 31
0.0
  0
LINE
  5
D4
330
70
100
AcDbEntity
  8
corrected final table design v1_depths$3_4_
100
AcDbLine
 10
-310.3498552044631
 20
-47.80453497454211
 30
0.0
 11
-277.9021782404778
 21
-47.80453497454211
 31
0.0
  0
LINE
  5
D5
330
70
100
AcDbEntity
  8
corrected final table design v1_depths$3_4_
100
AcDbLine
 10
-236.6521782404778
 20
-47.97908126065014
 30
0.0
 11
-264.6673141971339
 21
-31.80453497427779
 31
0.0
  0
LINE
  5
D6
330
70
100
AcDbEntity
  8
corrected final table design v1_depths$3_4_
100
AcDbLine
 10
-294.7613979363451
 20
-38.8045349745421
 30
0.0
 11
-292.1633217249921
 21
-37.30453497454211
 31
0.0
  0
LINE
  5
D7
330
70
100
AcDbEntity
  8
corrected final table design v1_depths$3_4_
100
AcDbLine
 10
-244.4186028912544
 20
-45.8045349745421
 30
0.0
 11
-247.0166791025414
 21
-44.30453497454212
 31
0.0
  0
LINE
  5
D8
330
70
100
AcDbEntity
  8
corrected final table design v1_depths$3_4_
100
AcDbLine
 10
-265.5526733021157
 20
-37.30453497454211
 30
0.0
 11
-259.1410347552141
 21
-37.30453497454211
 31
0.0
  0
LINE
  5
D9
330
70
100
AcDbEntity
  8
corrected final table design v1_depths$3_4_
100
AcDbLine
 10
-314.6521782404778
 20
-47.97908126076761
 30
0.0
 11
-286.6370422838217
 21
-31.80453497480641
 31
0.0
  0
LINE
  5
DA
330
70
100
AcDbEntity
  8
corrected final table design v1_depths$3_4_
100
AcDbLine
 10
-312.6521782404779
 20
-52.8045349745421
 30
0.0
 11
-312.6521782404779
 21
-51.30453497454211
 31
0.0
  0
LINE
  5
DB
330
70
100
AcDbEntity
  8
corrected final table design v1_depths$3_4_
100
AcDbLine
 10
-280.3425940003011
 20
-42.3045349745421
 30
0.0
 11
-300.8235757628354
 21
-42.3045349745421
 31
0.0
  0
ARC
  5
DC
330
70
100
AcDbEntity
  8
corrected final table design v1_depths$3_4_
100
AcDbCircle
 10
275.6521782404778
 20
-31.80453497454211
 30
0.0
 40
11.50000000000001
210
0.0
220
0.0
230
-1.0
100
AcDbArc
 50
142.5047502354412
 51
151.4281218576915
  0
LINE
  5
DD
330
70
100
AcDbEntity
  8
corrected final table design v1_depths$3_4_
100
AcDbLine
 10
-314.6521782404778
 20
-15.6299886884341
 30
0.0
 11
-286.6370422838217
 21
-31.80453497480642
 31
0.0
  0
LINE
  5
DE
330
70
100
AcDbEntity
  8
corrected final table design v1_depths$3_4_
100
AcDbLine
 10
-250.4807807175907
 20
-42.3045349745421
 30
0.0
 11
-253.0788569288777
 21
-40.8045349745421
 31
0.0
  0
ARC
  5
DF
330
70
100
AcDbEntity
  8
corrected final table design v1_depths$3_4_
100
AcDbCircle
 10
-275.6521782404778
 20
-31.80453497454211
 30
0.0
 40
9.499999999999998
100
AcDbArc
 50
271.5079577542388
 51
88.49204224576153
  0
LINE
  5
E0
330
70
100
AcDbEntity
  8
corrected final table design v1_depths$3_4_
100
AcDbLine
 10
-244.4186028916299
 20
-17.8045349745421
 30
0.0
 11
-247.0166791029829
 21
-19.30453497454211
 31
0.0
  0
LINE
  5
E1
330
70
100
AcDbEntity
  8
corrected final table design v1_depths$3_4_
100
AcDbLine
 10
-314.6521782404778
 20
-15.6299886884341
 30
0.0
 11
-286.6370422838217
 21
-31.80453497480642
 31
0.0
  0
LINE
  5
E2
330
70
100
AcDbEntity
  8
corrected final table design v1_depths$3_4_
100
AcDbLine
 10
-312.6521782404779
 20
-10.80453497454211
 30
0.0
 11
-312.6521782404779
 21
-12.30453497454211
 31
0.0
  0
LINE
  5
E3
330
70
100
AcDbEntity
  8
corrected final table design v1_depths$3_4_
100
AcDbLine
 10
-236.6521782404778
 20
-15.62998868831656
 30
0.0
 11
-264.6673141971339
 21
-31.80453497427779
 31
0.0
  0
LINE
  5
E4
330
70
100
AcDbEntity
  8
corrected final table design v1_depths$3_4_
100
AcDbLine
 10
-277.9021782404778
 20
-44.30453497454212
 30
0.0
 11
-277.9021782404778
 21
-45.80453497454211
 31
0.0
  0
ARC
  5
E5
330
70
100
AcDbEntity
  8
corrected final table design v1_depths$3_4_
100
AcDbCircle
 10
-275.6521782404778
 20
-31.80453497454211
 30
0.0
 40
11.49999999999997
100
AcDbArc
 50
51.50004959075231
 51
65.9293853774333
  0
LINE
  5
E6
330
70
100
AcDbEntity
  8
corrected final table design v1_depths$3_4_
100
AcDbLine
 10
-300.823575763365
 20
-21.30453497454211
 30
0.0
 11
-298.2254995520781
 21
-22.8045349745421
 31
0.0
  0
LINE
  5
E7
330
70
100
AcDbEntity
  8
corrected final table design v1_depths$3_4_
100
AcDbLine
 10
-312.6521782404779
 20
-49.30453497454212
 30
0.0
 11
-312.6521782404779
 21
-49.13378179914682
 31
0.0
  0
LINE
  5
E8
330
70
100
AcDbEntity
  8
corrected final table design v1_depths$3_4_
100
AcDbLine
 10
-236.6521782404778
 20
-47.97908126065014
 30
0.0
 11
-264.6673141971339
 21
-31.80453497427779
 31
0.0
  0
ARC
  5
E9
330
70
100
AcDbEntity
  8
corrected final table design v1_depths$3_4_
100
AcDbCircle
 10
-275.6521782404778
 20
-31.80453497454211
 30
0.0
 40
11.50000000000001
100
AcDbArc
 50
322.5047502354413
 51
331.4281218576913
  0
LINE
  5
EA
330
70
100
AcDbEntity
  8
corrected final table design v1_depths$3_4_
100
AcDbLine
 10
-240.9545012764926
 20
-15.80453497454211
 30
0.0
 11
-273.4021782404778
 21
-15.80453497454211
 31
0.0
  0
LINE
  5
EB
330
70
100
AcDbEntity
  8
corrected final table design v1_depths$3_4_
100
AcDbLine
 10
-298.2254995520781
 20
-22.80453497454211
 30
0.0
 11
-282.811088772116
 21
-22.80453497454211
 31
0.0
  0
LINE
  5
EC
330
70
100
AcDbEntity
  8
corrected final table design v1_depths$3_4_
100
AcDbLine
 10
-270.9617624806544
 20
-42.3045349745421
 30
0.0
 11
-250.4807807175907
 21
-42.3045349745421
 31
0.0
  0
LINE
  5
ED
330
70
100
AcDbEntity
  8
corrected final table design v1_depths$3_4_
100
AcDbLine
 10
-238.6521782404778
 20
-51.30453497454211
 30
0.0
 11
-273.4021782404778
 21
-51.30453497454209
 31
0.0
  0
LINE
  5
EE
330
70
100
AcDbEntity
  8
corrected final table design v1_depths$3_4_
100
AcDbLine
 10
-273.4021782404778
 20
-10.80453497454211
 30
0.0
 11
-272.6521782404778
 21
-10.80453497454211
 31
0.0
  0
ARC
  5
EF
330
70
100
AcDbEntity
  8
corrected final table design v1_depths$3_4_
100
AcDbCircle
 10
275.6521782404778
 20
-31.80453497454211
 30
0.0
 40
11.49999999999997
210
0.0
220
0.0
230
-1.0
100
AcDbArc
 50
231.5000495907522
 51
245.9293853774333
  0
LINE
  5
F0
330
70
100
AcDbEntity
  8
corrected final table design v1_depths$3_4_
100
AcDbLine
 10
-238.6521782404778
 20
-12.30453497454211
 30
0.0
 11
-273.4021782404778
 21
-12.30453497454211
 31
0.0
  0
LINE
  5
F1
330
70
100
AcDbEntity
  8
corrected final table design v1_depths$3_4_
100
AcDbLine
 10
-312.6521782404779
 20
-51.30453497454211
 30
0.0
 11
-277.9021782404778
 21
-51.30453497454209
 31
0.0
  0
LINE
  5
F2
330
70
100
AcDbEntity
  8
corrected final table design v1_depths$3_4_
100
AcDbLine
 10
-312.6521782404779
 20
-49.13378179914681
 30
0.0
 11
-310.3498552044631
 21
-47.8045349745421
 31
0.0
  0
LINE
  5
F3
330
70
100
AcDbEntity
  8
corrected final table design v1_depths$3_4_
100
AcDbLine
 10
-236.6521782404778
 20
-15.62998868831656
 30
0.0
 11
-264.6673141971339
 21
-31.80453497427779
 31
0.0
  0
LINE
  5
F4
330
70
100
AcDbEntity
  8
corrected final table design v1_depths$3_4_
100
AcDbLine
 10
-238.6521782404778
 20
-49.1337817990147
 30
0.0
 11
-240.9545012762052
 21
-47.8045349745421
 31
0.0
  0
LINE
  5
F5
330
70
100
AcDbEntity
  8
corrected final table design v1_depths$3_4_
100
AcDbLine
 10
-238.6521782404778
 20
-14.47528814993735
 30
0.0
 11
-240.9545012764926
 21
-15.80453497454211
 31
0.0
  0
ARC
  5
F6
330
70
100
AcDbEntity
  8
corrected final table design v1_depths$3_4_
100
AcDbCircle
 10
-275.6521782404778
 20
-31.80453497454211
 30
0.0
 40
9.499999999999998
100
AcDbArc
 50
91.50795775423882
 51
268.4920422457615
  0
LINE
  5
F7
330
70
100
AcDbEntity
  8
corrected final table design v1_depths$3_4_
100
AcDbLine
 10
-280.3425940003011
 20
-21.30453497454211
 30
0.0
 11
-300.823575763365
 21
-21.30453497454211
 31
0.0
  0
LINE
  5
F8
330
70
100
AcDbEntity
  8
corrected final table design v1_depths$3_4_
100
AcDbLine
 10
-310.3498552047506
 20
-15.80453497454211
 30
0.0
 11
-277.9021782404778
 21
-15.80453497454211
 31
0.0
  0
LINE
  5
F9
330
70
100
AcDbEntity
  8
corrected final table design v1_depths$3_4_
100
AcDbLine
 10
-312.6521782404779
 20
-12.30453497454211
 30
0.0
 11
-277.9021782404778
 21
-12.30453497454211
 31
0.0
  0
ARC
  5
FA
330
70
100
AcDbEntity
  8
corrected final table design v1_depths$3_4_
100
AcDbCircle
 10
-275.6521782404778
 20
-31.80453497454211
 30
0.0
 40
11.49999999999997
100
AcDbArc
 50
142.5047502354412
 51
151.428121857691
  0
LINE
  5
FB
330
70
100
AcDbEntity
  8
corrected final table design v1_depths$3_4_
100
AcDbLine
 10
-277.9021782404778
 20
-49.30453497454212
 30
0.0
 11
-312.6521782404779
 21
-49.30453497454212
 31
0.0
  0
LINE
  5
FC
330
70
100
AcDbEntity
  8
corrected final table design v1_depths$3_4_
100
AcDbLine
 10
-256.5429585439271
 20
-38.8045349745421
 30
0.0
 11
-259.141034755214
 21
-37.30453497454211
 31
0.0
  0
LINE
  5
FD
330
70
100
AcDbEntity
  8
corrected final table design v1_depths$3_4_
100
AcDbLine
 10
-250.4807807181203
 20
-21.30453497454211
 30
0.0
 11
-253.0788569294733
 21
-22.8045349745421
 31
0.0
  0
LINE
  5
FE
330
70
100
AcDbEntity
  8
corrected final table design v1_depths$3_4_
100
AcDbLine
 10
-294.7613979370288
 20
-24.80453497454211
 30
0.0
 11
-284.7763220359251
 21
-24.80453497454209
 31
0.0
  0
LINE
  5
FF
330
70
100
AcDbEntity
  8
corrected final table design v1_depths$3_4_
100
AcDbLine
 10
-256.5429585446107
 20
-24.80453497454211
 30
0.0
 11
-259.1410347559637
 21
-26.3045349745421
 31
0.0
  0
LINE
  5
100
330
70
100
AcDbEntity
  8
corrected final table design v1_depths$3_4_
100
AcDbLine
 10
-273.4021782404778
 20
-47.80453497454211
 30
0.0
 11
-273.4021782404778
 21
-49.30453497454212
 31
0.0
  0
LINE
  5
101
330
70
100
AcDbEntity
  8
corrected final table design v1_depths$3_4_
100
AcDbLine
 10
-306.8857535897013
 20
-17.8045349745421
 30
0.0
 11
-304.2876773784144
 21
-19.30453497454211
 31
0.0
  0
ARC
  5
102
330
70
100
AcDbEntity
  8
corrected final table design v1_depths$3_4_
100
AcDbCircle
 10
275.6521782404778
 20
-31.80453497454211
 30
0.0
 40
11.5
210
0.0
220
0.0
230
-1.0
100
AcDbArc
 50
51.50004959075211
 51
65.929385377434
  0
LINE
  5
103
330
70
100
AcDbEntity
  8
corrected final table design v1_depths$3_4_
100
AcDbLine
 10
-294.7613979370288
 20
-24.80453497454211
 30
0.0
 11
-292.1633217257418
 21
-26.3045349745421
 31
0.0
  0
ARC
  5
104
330
70
100
AcDbEntity
  8
corrected final table design v1_depths$3_4_
100
AcDbCircle
 10
-275.6521782404778
 20
-31.80453497454211
 30
0.0
 40
11.49999999999999
100
AcDbArc
 50
231.5000495907521
 51
245.929385377434
  0
POINT
  5
106
330
70
100
AcDbEntity
  8
corrected final table design v1_cup lights$outside diameter
100
AcDbPoint
 10
-228.6521782404778
 20
-31.80453497454211
 30
0.0
  0
POINT
  5
107
330
70
100
AcDbEntity
  8
corrected final table design v1_cup lights$outside diameter
100
AcDbPoint
 10
-228.6521782404778
 20
-31.80453497454211
 30
0.0
  0
POINT
  5
108
330
70
100
AcDbEntity
  8
corrected final table design v1_cup lights$outside diameter
100
AcDbPoint
 10
-236.6521782410946
 20
-47.97908126029401
 30
0.0
  0
POINT
  5
109
330
70
100
AcDbEntity
  8
corrected final table design v1_cup lights$outside diameter
100
AcDbPoint
 10
0.0
 20
0.0
 30
0.0
  0
CIRCLE
  5
10A
330
70
100
AcDbEntity
  8
corrected final table design v1_cup lights$outside diameter
100
AcDbCircle
 10
-240.657223559472
 20
-31.80453497454215
 30
0.0
 40
1.499999999999989
  0
CIRCLE
  5
10B
330
70
100
AcDbEntity
  8
corrected final table design v1_cup lights$outside diameter
100
AcDbCircle
 10
-233.9455266801426
 20
-27.92953497454222
 30
0.0
 40
0.9999999999999927
  0
CIRCLE
  5
10C
330
70
100
AcDbEntity
  8
corrected final table design v1_cup lights$outside diameter
100
AcDbCircle
 10
-230.5896782404778
 20
-33.7420349745421
 30
0.0
 40
0.9999999999999927
  0
CIRCLE
  5
10D
330
70
100
AcDbEntity
  8
corrected final table design v1_cup lights$outside diameter
100
AcDbCircle
 10
-240.657223559472
 20
-31.80453497454215
 30
0.0
 40
1.937500000000012
  0
CIRCLE
  5
10E
330
70
100
AcDbEntity
  8
corrected final table design v1_cup lights$outside diameter
100
AcDbCircle
 10
-230.5896782404778
 20
-37.6170349745421
 30
0.0
 40
0.9999999999999927
  0
CIRCLE
  5
10F
330
70
100
AcDbEntity
  8
corrected final table design v1_cup lights$outside diameter
100
AcDbCircle
 10
-233.9455266801426
 20
-27.92953497454222
 30
0.0
 40
0.9999999999999927
  0
CIRCLE
  5
110
330
70
100
AcDbEntity
  8
corrected final table design v1_cup lights$outside diameter
100
AcDbCircle
 10
-230.5896782404778
 20
-37.6170349745421
 30
0.0
 40
1.499999999999989
  0
CIRCLE
  5
111
330
70
100
AcDbEntity
  8
corrected final table design v1_cup lights$outside diameter
100
AcDbCircle
 10
-230.5896782404778
 20
-37.6170349745421
 30
0.0
 40
0.9999999999999927
  0
CIRCLE
  5
112
330
70
100
AcDbEntity
  8
corrected final table design v1_cup lights$outside diameter
100
AcDbCircle
 10
-230.5896782404778
 20
-29.8670349745421
 30
0.0
 40
1.937500000000012
  0
CIRCLE
  5
113
330
70
100
AcDbEntity
  8
corrected final table design v1_cup lights$outside diameter
100
AcDbCircle
 10
-230.5896782404778
 20
-25.9920349745421
 30
0.0
 40
0.9999999999999927
  0
CIRCLE
  5
114
330
70
100
AcDbEntity
  8
corrected final table design v1_cup lights$outside diameter
100
AcDbCircle
 10
-240.657223559472
 20
-31.80453497454215
 30
0.0
 40
0.9999999999999927
  0
CIRCLE
  5
115
330
70
100
AcDbEntity
  8
corrected final table design v1_cup lights$outside diameter
100
AcDbCircle
 10
-237.3013751198072
 20
-33.74203497454216
 30
0.0
 40
1.499999999999989
  0
CIRCLE
  5
116
330
70
100
AcDbEntity
  8
corrected final table design v1_cup lights$outside diameter
100
AcDbCircle
 10
-233.9455266801426
 20
-35.67953497454221
 30
0.0
 40
0.9999999999999927
  0
CIRCLE
  5
117
330
70
100
AcDbEntity
  8
corrected final table design v1_cup lights$outside diameter
100
AcDbCircle
 10
-230.5896782404778
 20
-29.8670349745421
 30
0.0
 40
1.499999999999989
  0
CIRCLE
  5
118
330
70
100
AcDbEntity
  8
corrected final table design v1_cup lights$outside diameter
100
AcDbCircle
 10
-230.5896782404778
 20
-33.7420349745421
 30
0.0
 40
0.9999999999999927
  0
CIRCLE
  5
119
330
70
100
AcDbEntity
  8
corrected final table design v1_cup lights$outside diameter
100
AcDbCircle
 10
-233.9455266801426
 20
-31.80453497454222
 30
0.0
 40
0.9999999999999927
  0
CIRCLE
  5
11A
330
70
100
AcDbEntity
  8
corrected final table design v1_cup lights$outside diameter
100
AcDbCircle
 10
-233.9455266801426
 20
-35.67953497454221
 30
0.0
 40
1.499999999999989
  0
LINE
  5
11B
330
70
100
AcDbEntity
  8
corrected final table design v1_cup lights$outside diameter
100
AcDbLine
 10
-264.4701782404778
 20
-31.80453497454211
 30
0.0
 11
-228.6521782404778
 21
-31.80453497454211
 31
0.0
  0
CIRCLE
  5
11C
330
70
100
AcDbEntity
  8
corrected final table design v1_cup lights$outside diameter
100
AcDbCircle
 10
-230.5896782404778
 20
-37.6170349745421
 30
0.0
 40
0.9999999999999927
  0
CIRCLE
  5
11D
330
70
100
AcDbEntity
  8
corrected final table design v1_cup lights$outside diameter
100
AcDbCircle
 10
-237.3013751198072
 20
-33.74203497454216
 30
0.0
 40
1.499999999999989
  0
LINE
  5
11E
330
70
100
AcDbEntity
  8
corrected final table design v1_cup lights$outside diameter
100
AcDbLine
 10
-264.4701782404778
 20
-31.80453497454211
 30
0.0
 11
-228.6521782404778
 21
-31.80453497454211
 31
0.0
  0
LINE
  5
11F
330
70
100
AcDbEntity
  8
corrected final table design v1_cup lights$outside diameter
100
AcDbLine
 10
-228.6521782404778
 20
-54.80453497454211
 30
0.0
 11
-228.6521782404778
 21
-8.804534974542107
 31
0.0
  0
CIRCLE
  5
120
330
70
100
AcDbEntity
  8
corrected final table design v1_cup lights$outside diameter
100
AcDbCircle
 10
-240.657223559472
 20
-31.80453497454215
 30
0.0
 40
1.937500000000012
  0
CIRCLE
  5
121
330
70
100
AcDbEntity
  8
corrected final table design v1_cup lights$outside diameter
100
AcDbCircle
 10
-230.5896782404778
 20
-25.9920349745421
 30
0.0
 40
1.499999999999989
  0
CIRCLE
  5
122
330
70
100
AcDbEntity
  8
corrected final table design v1_cup lights$outside diameter
100
AcDbCircle
 10
-233.9455266801426
 20
-31.80453497454222
 30
0.0
 40
0.9999999999999927
  0
CIRCLE
  5
123
330
70
100
AcDbEntity
  8
corrected final table design v1_cup lights$outside diameter
100
AcDbCircle
 10
-230.5896782404778
 20
-37.6170349745421
 30
0.0
 40
1.499999999999989
  0
CIRCLE
  5
124
330
70
100
AcDbEntity
  8
corrected final table design v1_cup lights$outside diameter
100
AcDbCircle
 10
-237.3013751198072
 20
-33.74203497454216
 30
0.0
 40
1.937500000000012
  0
CIRCLE
  5
125
330
70
100
AcDbEntity
  8
corrected final table design v1_cup lights$outside diameter
100
AcDbCircle
 10
-240.657223559472
 20
-31.80453497454215
 30
0.0
 40
1.499999999999989
  0
CIRCLE
  5
126
330
70
100
AcDbEntity
  8
corrected final table design v1_cup lights$outside diameter
100
AcDbCircle
 10
-230.5896782404778
 20
-37.6170349745421
 30
0.0
 40
1.499999999999989
  0
LINE
  5
127
330
70
100
AcDbEntity
  8
corrected final table design v1_cup lights$outside diameter
100
AcDbLine
 10
-228.6521782404778
 20
-54.80453497454211
 30
0.0
 11
-228.6521782404778
 21
-8.804534974542107
 31
0.0
  0
CIRCLE
  5
128
330
70
100
AcDbEntity
  8
corrected final table design v1_cup lights$outside diameter
100
AcDbCircle
 10
-233.9455266801426
 20
-31.80453497454222
 30
0.0
 40
1.937500000000012
  0
CIRCLE
  5
129
330
70
100
AcDbEntity
  8
corrected final table design v1_cup lights$outside diameter
100
AcDbCircle
 10
-240.657223559472
 20
-31.80453497454215
 30
0.0
 40
0.9999999999999927
  0
CIRCLE
  5
12A
330
70
100
AcDbEntity
  8
corrected final table design v1_cup lights$outside diameter
100
AcDbCircle
 10
-233.9455266801426
 20
-27.92953497454222
 30
0.0
 40
1.937500000000012
  0
CIRCLE
  5
12B
330
70
100
AcDbEntity
  8
corrected final table design v1_cup lights$outside diameter
100
AcDbCircle
 10
-230.5896782404778
 20
-33.7420349745421
 30
0.0
 40
1.499999999999989
  0
LINE
  5
12C
330
70
100
AcDbEntity
  8
corrected final table design v1_cup lights$outside diameter
100
AcDbLine
 10
-228.6521782404778
 20
-52.59788341428511
 30
0.0
 11
-228.6521782404779
 21
-11.01118653479908
 31
0.0
  0
CIRCLE
  5
12D
330
70
100
AcDbEntity
  8
corrected final table design v1_cup lights$outside diameter
100
AcDbCircle
 10
-230.5896782404778
 20
-37.6170349745421
 30
0.0
 40
0.9999999999999927
  0
CIRCLE
  5
12E
330
70
100
AcDbEntity
  8
corrected final table design v1_cup lights$outside diameter
100
AcDbCircle
 10
-230.5896782404778
 20
-37.6170349745421
 30
0.0
 40
1.937500000000012
  0
CIRCLE
  5
12F
330
70
100
AcDbEntity
  8
corrected final table design v1_cup lights$outside diameter
100
AcDbCircle
 10
-230.5896782404778
 20
-37.6170349745421
 30
0.0
 40
1.937500000000012
  0
CIRCLE
  5
130
330
70
100
AcDbEntity
  8
corrected final table design v1_cup lights$outside diameter
100
AcDbCircle
 10
-230.5896782404778
 20
-25.9920349745421
 30
0.0
 40
1.937500000000012
  0
CIRCLE
  5
131
330
70
100
AcDbEntity
  8
corrected final table design v1_cup lights$outside diameter
100
AcDbCircle
 10
-230.5896782404778
 20
-37.6170349745421
 30
0.0
 40
1.937500000000012
  0
CIRCLE
  5
132
330
70
100
AcDbEntity
  8
corrected final table design v1_cup lights$outside diameter
100
AcDbCircle
 10
-230.5896782404778
 20
-33.7420349745421
 30
0.0
 40
1.937500000000012
  0
CIRCLE
  5
133
330
70
100
AcDbEntity
  8
corrected final table design v1_cup lights$outside diameter
100
AcDbCircle
 10
-230.5896782404778
 20
-37.6170349745421
 30
0.0
 40
0.9999999999999927
  0
CIRCLE
  5
134
330
70
100
AcDbEntity
  8
corrected final table design v1_cup lights$outside diameter
100
AcDbCircle
 10
-230.5896782404778
 20
-37.6170349745421
 30
0.0
 40
1.937500000000012
  0
CIRCLE
  5
135
330
70
100
AcDbEntity
  8
corrected final table design v1_cup lights$outside diameter
100
AcDbCircle
 10
-230.5896782404778
 20
-29.8670349745421
 30
0.0
 40
0.9999999999999927
  0
CIRCLE
  5
136
330
70
100
AcDbEntity
  8
corrected final table design v1_cup lights$outside diameter
100
AcDbCircle
 10
-230.5896782404778
 20
-37.6170349745421
 30
0.0
 40
0.9999999999999927
  0
CIRCLE
  5
137
330
70
100
AcDbEntity
  8
corrected final table design v1_cup lights$outside diameter
100
AcDbCircle
 10
-237.3013751198072
 20
-29.86703497454217
 30
0.0
 40
1.937500000000012
  0
CIRCLE
  5
138
330
70
100
AcDbEntity
  8
corrected final table design v1_cup lights$outside diameter
100
AcDbCircle
 10
-230.5896782404778
 20
-25.9920349745421
 30
0.0
 40
1.937500000000012
  0
CIRCLE
  5
139
330
70
100
AcDbEntity
  8
corrected final table design v1_cup lights$outside diameter
100
AcDbCircle
 10
-233.9455266801426
 20
-31.80453497454222
 30
0.0
 40
1.937500000000012
  0
CIRCLE
  5
13A
330
70
100
AcDbEntity
  8
corrected final table design v1_cup lights$outside diameter
100
AcDbCircle
 10
-230.5896782404778
 20
-33.7420349745421
 30
0.0
 40
1.937500000000012
  0
CIRCLE
  5
13B
330
70
100
AcDbEntity
  8
corrected final table design v1_cup lights$outside diameter
100
AcDbCircle
 10
-233.9455266801426
 20
-27.92953497454222
 30
0.0
 40
1.499999999999989
  0
CIRCLE
  5
13C
330
70
100
AcDbEntity
  8
corrected final table design v1_cup lights$outside diameter
100
AcDbCircle
 10
-230.5896782404778
 20
-37.6170349745421
 30
0.0
 40
1.937500000000012
  0
LINE
  5
13D
330
70
100
AcDbEntity
  8
corrected final table design v1_cup lights$outside diameter
100
AcDbLine
 10
-228.6521782404778
 20
-54.80453497454211
 30
0.0
 11
-228.6521782404778
 21
-8.804534974542107
 31
0.0
  0
CIRCLE
  5
13E
330
70
100
AcDbEntity
  8
corrected final table design v1_cup lights$outside diameter
100
AcDbCircle
 10
-230.5896782404778
 20
-29.8670349745421
 30
0.0
 40
0.9999999999999927
  0
CIRCLE
  5
13F
330
70
100
AcDbEntity
  8
corrected final table design v1_cup lights$outside diameter
100
AcDbCircle
 10
-237.3013751198072
 20
-33.74203497454216
 30
0.0
 40
1.937500000000012
  0
CIRCLE
  5
140
330
70
100
AcDbEntity
  8
corrected final table design v1_cup lights$outside diameter
100
AcDbCircle
 10
-230.5896782404778
 20
-29.8670349745421
 30
0.0
 40
1.937500000000012
  0
CIRCLE
  5
141
330
70
100
AcDbEntity
  8
corrected final table design v1_cup lights$outside diameter
100
AcDbCircle
 10
-230.5896782404778
 20
-33.7420349745421
 30
0.0
 40
1.499999999999989
  0
CIRCLE
  5
142
330
70
100
AcDbEntity
  8
corrected final table design v1_cup lights$outside diameter
100
AcDbCircle
 10
-233.9455266801426
 20
-35.67953497454221
 30
0.0
 40
0.9999999999999927
  0
CIRCLE
  5
143
330
70
100
AcDbEntity
  8
corrected final table design v1_cup lights$outside diameter
100
AcDbCircle
 10
-230.5896782404778
 20
-37.6170349745421
 30
0.0
 40
1.499999999999989
  0
CIRCLE
  5
144
330
70
100
AcDbEntity
  8
corrected final table design v1_cup lights$outside diameter
100
AcDbCircle
 10
-237.3013751198072
 20
-29.86703497454217
 30
0.0
 40
0.9999999999999927
  0
CIRCLE
  5
145
330
70
100
AcDbEntity
  8
corrected final table design v1_cup lights$outside diameter
100
AcDbCircle
 10
-233.9455266801426
 20
-35.67953497454221
 30
0.0
 40
1.499999999999989
  0
CIRCLE
  5
146
330
70
100
AcDbEntity
  8
corrected final table design v1_cup lights$outside diameter
100
AcDbCircle
 10
-230.5896782404778
 20
-37.6170349745421
 30
0.0
 40
1.937500000000012
  0
CIRCLE
  5
147
330
70
100
AcDbEntity
  8
corrected final table design v1_cup lights$outside diameter
100
AcDbCircle
 10
-230.5896782404778
 20
-37.6170349745421
 30
0.0
 40
1.499999999999989
  0
CIRCLE
  5
148
330
70
100
AcDbEntity
  8
corrected final table design v1_cup lights$outside diameter
100
AcDbCircle
 10
-237.3013751198072
 20
-33.74203497454216
 30
0.0
 40
0.9999999999999927
  0
CIRCLE
  5
149
330
70
100
AcDbEntity
  8
corrected final table design v1_cup lights$outside diameter
100
AcDbCircle
 10
-233.9455266801426
 20
-35.67953497454221
 30
0.0
 40
1.937500000000012
  0
CIRCLE
  5
14A
330
70
100
AcDbEntity
  8
corrected final table design v1_cup lights$outside diameter
100
AcDbCircle
 10
-237.3013751198072
 20
-33.74203497454216
 30
0.0
 40
0.9999999999999927
  0
CIRCLE
  5
14B
330
70
100
AcDbEntity
  8
corrected final table design v1_cup lights$outside diameter
100
AcDbCircle
 10
-233.9455266801426
 20
-35.67953497454221
 30
0.0
 40
1.937500000000012
  0
CIRCLE
  5
14C
330
70
100
AcDbEntity
  8
corrected final table design v1_cup lights$outside diameter
100
AcDbCircle
 10
-237.3013751198072
 20
-29.86703497454217
 30
0.0
 40
1.499999999999989
  0
CIRCLE
  5
14D
330
70
100
AcDbEntity
  8
corrected final table design v1_cup lights$outside diameter
100
AcDbCircle
 10
-233.9455266801426
 20
-31.80453497454222
 30
0.0
 40
1.499999999999989
  0
LINE
  5
14E
330
70
100
AcDbEntity
  8
corrected final table design v1_cup lights$outside diameter
100
AcDbLine
 10
-228.6521782404778
 20
-54.80453497454211
 30
0.0
 11
-228.6521782404778
 21
-8.804534974542107
 31
0.0
  0
CIRCLE
  5
14F
330
70
100
AcDbEntity
  8
corrected final table design v1_cup lights$outside diameter
100
AcDbCircle
 10
-314.0029813611484
 20
-29.86703497454214
 30
0.0
 40
1.937500000000012
  0
CIRCLE
  5
150
330
70
100
AcDbEntity
  8
corrected final table design v1_cup lights$outside diameter
100
AcDbCircle
 10
-320.7146782404779
 20
-25.9920349745421
 30
0.0
 40
1.499999999999989
  0
CIRCLE
  5
151
330
70
100
AcDbEntity
  8
corrected final table design v1_cup lights$outside diameter
100
AcDbCircle
 10
-317.3588298008131
 20
-35.67953497454205
 30
0.0
 40
1.937500000000012
  0
CIRCLE
  5
152
330
70
100
AcDbEntity
  8
corrected final table design v1_cup lights$outside diameter
100
AcDbCircle
 10
-310.6471329214837
 20
-31.80453497454207
 30
0.0
 40
0.9999999999999927
  0
CIRCLE
  5
153
330
70
100
AcDbEntity
  8
corrected final table design v1_cup lights$outside diameter
100
AcDbCircle
 10
-233.9455266801426
 20
-27.92953497454222
 30
0.0
 40
1.937500000000012
  0
LINE
  5
154
330
70
100
AcDbEntity
  8
corrected final table design v1_cup lights$outside diameter
100
AcDbLine
 10
-228.6521782406393
 20
-8.834260735011687
 30
0.0
 11
-228.6521782418515
 21
-54.85300401234997
 31
0.0
  0
CIRCLE
  5
155
330
70
100
AcDbEntity
  8
corrected final table design v1_cup lights$outside diameter
100
AcDbCircle
 10
-233.9455266801426
 20
-31.80453497454222
 30
0.0
 40
1.499999999999989
  0
CIRCLE
  5
156
330
70
100
AcDbEntity
  8
corrected final table design v1_cup lights$outside diameter
100
AcDbCircle
 10
-314.0029813611484
 20
-29.86703497454214
 30
0.0
 40
0.9999999999999927
  0
CIRCLE
  5
157
330
70
100
AcDbEntity
  8
corrected final table design v1_cup lights$outside diameter
100
AcDbCircle
 10
-317.3588298008131
 20
-31.80453497454205
 30
0.0
 40
0.9999999999999927
  0
CIRCLE
  5
158
330
70
100
AcDbEntity
  8
corrected final table design v1_cup lights$outside diameter
100
AcDbCircle
 10
-230.5896782404778
 20
-29.8670349745421
 30
0.0
 40
1.499999999999989
  0
CIRCLE
  5
159
330
70
100
AcDbEntity
  8
corrected final table design v1_cup lights$outside diameter
100
AcDbCircle
 10
-317.3588298008131
 20
-31.80453497454205
 30
0.0
 40
1.499999999999989
  0
CIRCLE
  5
15A
330
70
100
AcDbEntity
  8
corrected final table design v1_cup lights$outside diameter
100
AcDbCircle
 10
-320.7146782404779
 20
-37.6170349745421
 30
0.0
 40
1.499999999999989
  0
CIRCLE
  5
15B
330
70
100
AcDbEntity
  8
corrected final table design v1_cup lights$outside diameter
100
AcDbCircle
 10
-314.0029813611484
 20
-33.74203497454214
 30
0.0
 40
0.9999999999999927
  0
CIRCLE
  5
15C
330
70
100
AcDbEntity
  8
corrected final table design v1_cup lights$outside diameter
100
AcDbCircle
 10
-317.3588298008131
 20
-27.92953497454205
 30
0.0
 40
1.937500000000012
  0
CIRCLE
  5
15D
330
70
100
AcDbEntity
  8
corrected final table design v1_cup lights$outside diameter
100
AcDbCircle
 10
-320.7146782404779
 20
-25.9920349745421
 30
0.0
 40
1.937500000000012
  0
CIRCLE
  5
15E
330
70
100
AcDbEntity
  8
corrected final table design v1_cup lights$outside diameter
100
AcDbCircle
 10
-314.0029813611484
 20
-29.86703497454213
 30
0.0
 40
1.499999999999989
  0
CIRCLE
  5
15F
330
70
100
AcDbEntity
  8
corrected final table design v1_cup lights$outside diameter
100
AcDbCircle
 10
-320.7146782404779
 20
-29.8670349745421
 30
0.0
 40
0.9999999999999927
  0
CIRCLE
  5
160
330
70
100
AcDbEntity
  8
corrected final table design v1_cup lights$outside diameter
100
AcDbCircle
 10
-320.7146782404779
 20
-37.6170349745421
 30
0.0
 40
0.9999999999999927
  0
CIRCLE
  5
161
330
70
100
AcDbEntity
  8
corrected final table design v1_cup lights$outside diameter
100
AcDbCircle
 10
-230.5896782404778
 20
-25.9920349745421
 30
0.0
 40
0.9999999999999927
  0
CIRCLE
  5
162
330
70
100
AcDbEntity
  8
corrected final table design v1_cup lights$outside diameter
100
AcDbCircle
 10
-320.7146782404779
 20
-37.6170349745421
 30
0.0
 40
1.499999999999989
  0
CIRCLE
  5
163
330
70
100
AcDbEntity
  8
corrected final table design v1_cup lights$outside diameter
100
AcDbCircle
 10
-314.0029813611484
 20
-33.74203497454214
 30
0.0
 40
1.937500000000012
  0
CIRCLE
  5
164
330
70
100
AcDbEntity
  8
corrected final table design v1_cup lights$outside diameter
100
AcDbCircle
 10
-317.3588298008131
 20
-27.92953497454205
 30
0.0
 40
1.499999999999989
  0
CIRCLE
  5
165
330
70
100
AcDbEntity
  8
corrected final table design v1_cup lights$outside diameter
100
AcDbCircle
 10
-317.3588298008131
 20
-27.92953497454205
 30
0.0
 40
0.9999999999999927
  0
CIRCLE
  5
166
330
70
100
AcDbEntity
  8
corrected final table design v1_cup lights$outside diameter
100
AcDbCircle
 10
-320.7146782404779
 20
-25.9920349745421
 30
0.0
 40
1.937500000000012
  0
CIRCLE
  5
167
330
70
100
AcDbEntity
  8
corrected final table design v1_cup lights$outside diameter
100
AcDbCircle
 10
-317.3588298008131
 20
-35.67953497454205
 30
0.0
 40
1.937500000000012
  0
CIRCLE
  5
168
330
70
100
AcDbEntity
  8
corrected final table design v1_cup lights$outside diameter
100
AcDbCircle
 10
-320.7146782404779
 20
-25.9920349745421
 30
0.0
 40
1.937500000000012
  0
CIRCLE
  5
169
330
70
100
AcDbEntity
  8
corrected final table design v1_cup lights$outside diameter
100
AcDbCircle
 10
-317.3588298008131
 20
-35.67953497454205
 30
0.0
 40
0.9999999999999927
  0
CIRCLE
  5
16A
330
70
100
AcDbEntity
  8
corrected final table design v1_cup lights$outside diameter
100
AcDbCircle
 10
-317.3588298008131
 20
-35.67953497454205
 30
0.0
 40
0.9999999999999927
  0
CIRCLE
  5
16B
330
70
100
AcDbEntity
  8
corrected final table design v1_cup lights$outside diameter
100
AcDbCircle
 10
-320.7146782404779
 20
-29.8670349745421
 30
0.0
 40
1.499999999999989
  0
CIRCLE
  5
16C
330
70
100
AcDbEntity
  8
corrected final table design v1_cup lights$outside diameter
100
AcDbCircle
 10
-237.3013751198072
 20
-29.86703497454217
 30
0.0
 40
1.499999999999989
  0
CIRCLE
  5
16D
330
70
100
AcDbEntity
  8
corrected final table design v1_cup lights$outside diameter
100
AcDbCircle
 10
-317.3588298008131
 20
-35.67953497454205
 30
0.0
 40
0.9999999999999927
  0
CIRCLE
  5
16E
330
70
100
AcDbEntity
  8
corrected final table design v1_cup lights$outside diameter
100
AcDbCircle
 10
-320.7146782404779
 20
-25.9920349745421
 30
0.0
 40
0.9999999999999927
  0
CIRCLE
  5
16F
330
70
100
AcDbEntity
  8
corrected final table design v1_cup lights$outside diameter
100
AcDbCircle
 10
-321.1521782404779
 20
-53.30453497454212
 30
0.0
 40
1.937500000000012
  0
CIRCLE
  5
170
330
70
100
AcDbEntity
  8
corrected final table design v1_cup lights$outside diameter
100
AcDbCircle
 10
-320.7146782404779
 20
-37.6170349745421
 30
0.0
 40
1.937500000000012
  0
CIRCLE
  5
171
330
70
100
AcDbEntity
  8
corrected final table design v1_cup lights$outside diameter
100
AcDbCircle
 10
-320.7146782404779
 20
-25.9920349745421
 30
0.0
 40
1.499999999999989
  0
CIRCLE
  5
172
330
70
100
AcDbEntity
  8
corrected final table design v1_cup lights$outside diameter
100
AcDbCircle
 10
-317.3588298008131
 20
-35.67953497454205
 30
0.0
 40
1.499999999999989
  0
CIRCLE
  5
173
330
70
100
AcDbEntity
  8
corrected final table design v1_cup lights$outside diameter
100
AcDbCircle
 10
-317.3588298008131
 20
-35.67953497454205
 30
0.0
 40
1.937500000000012
  0
CIRCLE
  5
174
330
70
100
AcDbEntity
  8
corrected final table design v1_cup lights$outside diameter
100
AcDbCircle
 10
-237.3013751198072
 20
-29.86703497454217
 30
0.0
 40
1.937500000000012
  0
CIRCLE
  5
175
330
70
100
AcDbEntity
  8
corrected final table design v1_cup lights$outside diameter
100
AcDbCircle
 10
-317.3588298008131
 20
-35.67953497454205
 30
0.0
 40
1.937500000000012
  0
CIRCLE
  5
176
330
70
100
AcDbEntity
  8
corrected final table design v1_cup lights$outside diameter
100
AcDbCircle
 10
-237.3013751198072
 20
-29.86703497454217
 30
0.0
 40
0.9999999999999927
  0
CIRCLE
  5
177
330
70
100
AcDbEntity
  8
corrected final table design v1_cup lights$outside diameter
100
AcDbCircle
 10
-320.7146782404779
 20
-37.6170349745421
 30
0.0
 40
1.937500000000012
  0
CIRCLE
  5
178
330
70
100
AcDbEntity
  8
corrected final table design v1_cup lights$outside diameter
100
AcDbCircle
 10
-317.3588298008131
 20
-31.80453497454205
 30
0.0
 40
1.937500000000012
  0
CIRCLE
  5
179
330
70
100
AcDbEntity
  8
corrected final table design v1_cup lights$outside diameter
100
AcDbCircle
 10
-320.7146782404779
 20
-25.9920349745421
 30
0.0
 40
0.9999999999999927
  0
CIRCLE
  5
17A
330
70
100
AcDbEntity
  8
corrected final table design v1_cup lights$outside diameter
100
AcDbCircle
 10
-310.6471329214837
 20
-31.80453497454207
 30
0.0
 40
1.937500000000012
  0
CIRCLE
  5
17B
330
70
100
AcDbEntity
  8
corrected final table design v1_cup lights$outside diameter
100
AcDbCircle
 10
-321.1521782404779
 20
-53.30453497454212
 30
0.0
 40
1.499999999999989
  0
CIRCLE
  5
17C
330
70
100
AcDbEntity
  8
corrected final table design v1_cup lights$outside diameter
100
AcDbCircle
 10
-230.5896782404778
 20
-37.6170349745421
 30
0.0
 40
1.499999999999989
  0
CIRCLE
  5
17D
330
70
100
AcDbEntity
  8
corrected final table design v1_cup lights$outside diameter
100
AcDbCircle
 10
-230.5896782404778
 20
-25.9920349745421
 30
0.0
 40
1.499999999999989
  0
CIRCLE
  5
17E
330
70
100
AcDbEntity
  8
corrected final table design v1_cup lights$outside diameter
100
AcDbCircle
 10
-320.7146782404779
 20
-25.9920349745421
 30
0.0
 40
1.937500000000012
  0
CIRCLE
  5
17F
330
70
100
AcDbEntity
  8
corrected final table design v1_cup lights$outside diameter
100
AcDbCircle
 10
-317.3588298008131
 20
-35.67953497454205
 30
0.0
 40
0.9999999999999927
  0
CIRCLE
  5
180
330
70
100
AcDbEntity
  8
corrected final table design v1_cup lights$outside diameter
100
AcDbCircle
 10
-321.1521782404779
 20
-53.30453497454212
 30
0.0
 40
0.9999999999999927
  0
CIRCLE
  5
181
330
70
100
AcDbEntity
  8
corrected final table design v1_cup lights$outside diameter
100
AcDbCircle
 10
-320.7146782404779
 20
-25.9920349745421
 30
0.0
 40
0.9999999999999927
  0
CIRCLE
  5
182
330
70
100
AcDbEntity
  8
corrected final table design v1_cup lights$outside diameter
100
AcDbCircle
 10
-320.7146782404779
 20
-37.6170349745421
 30
0.0
 40
0.9999999999999927
  0
LINE
  5
183
330
70
100
AcDbEntity
  8
corrected final table design v1_cup lights$outside diameter
100
AcDbLine
 10
-322.6521782404778
 20
-8.804534974542107
 30
0.0
 11
-322.6521782404778
 21
-54.80453497454211
 31
0.0
  0
CIRCLE
  5
184
330
70
100
AcDbEntity
  8
corrected final table design v1_cup lights$outside diameter
100
AcDbCircle
 10
-320.7146782404779
 20
-33.7420349745421
 30
0.0
 40
1.499999999999989
  0
CIRCLE
  5
185
330
70
100
AcDbEntity
  8
corrected final table design v1_cup lights$outside diameter
100
AcDbCircle
 10
-317.3588298008131
 20
-35.67953497454205
 30
0.0
 40
1.499999999999989
  0
CIRCLE
  5
186
330
70
100
AcDbEntity
  8
corrected final table design v1_cup lights$outside diameter
100
AcDbCircle
 10
-310.6471329214837
 20
-31.80453497454207
 30
0.0
 40
1.499999999999989
  0
CIRCLE
  5
187
330
70
100
AcDbEntity
  8
corrected final table design v1_cup lights$outside diameter
100
AcDbCircle
 10
-317.3588298008131
 20
-35.67953497454205
 30
0.0
 40
1.499999999999989
  0
CIRCLE
  5
188
330
70
100
AcDbEntity
  8
corrected final table design v1_cup lights$outside diameter
100
AcDbCircle
 10
-317.3588298008131
 20
-35.67953497454205
 30
0.0
 40
1.499999999999989
  0
CIRCLE
  5
189
330
70
100
AcDbEntity
  8
corrected final table design v1_cup lights$outside diameter
100
AcDbCircle
 10
-320.7146782404779
 20
-25.9920349745421
 30
0.0
 40
1.499999999999989
  0
CIRCLE
  5
18A
330
70
100
AcDbEntity
  8
corrected final table design v1_cup lights$outside diameter
100
AcDbCircle
 10
-314.0029813611484
 20
-33.74203497454213
 30
0.0
 40
1.499999999999989
  0
CIRCLE
  5
18B
330
70
100
AcDbEntity
  8
corrected final table design v1_cup lights$outside diameter
100
AcDbCircle
 10
-320.7146782404779
 20
-33.74203497454209
 30
0.0
 40
1.937500000000012
  0
CIRCLE
  5
18C
330
70
100
AcDbEntity
  8
corrected final table design v1_cup lights$outside diameter
100
AcDbCircle
 10
-233.9455266801426
 20
-27.92953497454222
 30
0.0
 40
1.499999999999989
  0
CIRCLE
  5
18D
330
70
100
AcDbEntity
  8
corrected final table design v1_cup lights$outside diameter
100
AcDbCircle
 10
-320.7146782404779
 20
-29.8670349745421
 30
0.0
 40
1.937500000000012
  0
CIRCLE
  5
18E
330
70
100
AcDbEntity
  8
corrected final table design v1_cup lights$outside diameter
100
AcDbCircle
 10
-320.7146782404779
 20
-33.7420349745421
 30
0.0
 40
0.9999999999999927
  0
LINE
  5
18F
330
70
100
AcDbEntity
  8
corrected final table design v1_cup lights$outside diameter
100
AcDbLine
 10
-236.6521782404778
 20
-8.804534974542107
 30
0.0
 11
-228.6521782404778
 21
-8.804534974542107
 31
0.0
  0
CIRCLE
  5
190
330
70
100
AcDbEntity
  8
corrected final table design v1_cup lights$outside diameter
100
AcDbCircle
 10
-321.1521782404779
 20
-10.30453497454209
 30
0.0
 40
0.9999999999999927
  0
CIRCLE
  5
191
330
70
100
AcDbEntity
  8
corrected final table design v1_cup lights$outside diameter
100
AcDbCircle
 10
-230.1521782404778
 20
-10.30453497454209
 30
0.0
 40
1.499999999999989
  0
CIRCLE
  5
192
330
70
100
AcDbEntity
  8
corrected final table design v1_cup lights$outside diameter
100
AcDbCircle
 10
-230.1521782404778
 20
-53.30453497454212
 30
0.0
 40
1.499999999999989
  0
LINE
  5
193
330
70
100
AcDbEntity
  8
corrected final table design v1_cup lights$outside diameter
100
AcDbLine
 10
-228.6521782404778
 20
-54.80453497454211
 30
0.0
 11
-236.6521782404778
 21
-54.80453497454211
 31
0.0
  0
LINE
  5
194
330
70
100
AcDbEntity
  8
corrected final table design v1_cup lights$outside diameter
100
AcDbLine
 10
-228.6521782404778
 20
-8.804534974542107
 30
0.0
 11
-228.6521782404778
 21
-54.80453497454211
 31
0.0
  0
LINE
  5
195
330
70
100
AcDbEntity
  8
corrected final table design v1_cup lights$outside diameter
100
AcDbLine
 10
-322.6521782404778
 20
-54.80453497454211
 30
0.0
 11
-275.9021782404778
 21
-54.80453497454211
 31
0.0
  0
LINE
  5
196
330
70
100
AcDbEntity
  8
corrected final table design v1_cup lights$outside diameter
100
AcDbLine
 10
-228.6521782404778
 20
-54.80453497454211
 30
0.0
 11
-228.6521782404778
 21
-8.804534974542107
 31
0.0
  0
LINE
  5
197
330
70
100
AcDbEntity
  8
corrected final table design v1_cup lights$outside diameter
100
AcDbLine
 10
-322.6521782404778
 20
-8.804534974542104
 30
0.0
 11
-314.6521782404779
 21
-8.804534974542107
 31
0.0
  0
CIRCLE
  5
198
330
70
100
AcDbEntity
  8
corrected final table design v1_cup lights$outside diameter
100
AcDbCircle
 10
-230.1521782404778
 20
-53.30453497454212
 30
0.0
 40
1.937500000000012
  0
CIRCLE
  5
199
330
70
100
AcDbEntity
  8
corrected final table design v1_cup lights$outside diameter
100
AcDbCircle
 10
-321.1521782404779
 20
-10.30453497454209
 30
0.0
 40
1.499999999999989
  0
CIRCLE
  5
19A
330
70
100
AcDbEntity
  8
corrected final table design v1_cup lights$outside diameter
100
AcDbCircle
 10
-321.1521782404779
 20
-10.30453497454209
 30
0.0
 40
1.937500000000012
  0
CIRCLE
  5
19B
330
70
100
AcDbEntity
  8
corrected final table design v1_cup lights$outside diameter
100
AcDbCircle
 10
-230.1521782404778
 20
-10.30453497454209
 30
0.0
 40
0.9999999999999927
  0
CIRCLE
  5
19C
330
70
100
AcDbEntity
  8
corrected final table design v1_cup lights$outside diameter
100
AcDbCircle
 10
-230.1521782404778
 20
-53.30453497454212
 30
0.0
 40
0.9999999999999927
  0
CIRCLE
  5
19D
330
70
100
AcDbEntity
  8
corrected final table design v1_cup lights$outside diameter
100
AcDbCircle
 10
-230.1521782404778
 20
-10.30453497454209
 30
0.0
 40
1.937500000000012
  0
LINE
  5
19E
330
70
100
AcDbEntity
  8
corrected final table design v1_cup lights$outside diameter
100
AcDbLine
 10
-322.6521782404778
 20
-54.80453497454211
 30
0.0
 11
-322.6521782404778
 21
-8.804534974542107
 31
0.0
  0
POINT
  5
1A0
330
70
100
AcDbEntity
  8
corrected final table design v1_inside semi circle table
100
AcDbPoint
 10
0.0
 20
0.0
 30
0.0
  0
LINE
  5
1A1
330
70
100
AcDbEntity
  8
corrected final table design v1_inside semi circle table
100
AcDbLine
 10
-275.4021782404779
 20
-23.24790045887771
 30
0.0
 11
-275.4021782404779
 21
-23.87309161330598
 31
0.0
  0
LINE
  5
1A2
330
70
100
AcDbEntity
  8
corrected final table design v1_inside semi circle table
100
AcDbLine
 10
-275.6521782404778
 20
-55.80453497454211
 30
0.0
 11
-275.6521782404778
 21
-7.804534974542107
 31
0.0
  0
LINE
  5
1A3
330
70
100
AcDbEntity
  8
corrected final table design v1_inside semi circle table
100
AcDbLine
 10
-275.4021782404779
 20
-40.80106208226538
 30
0.0
 11
-275.4021782404779
 21
-41.30124493115339
 31
0.0
  0
LINE
  5
1A4
330
70
100
AcDbEntity
  8
corrected final table design v1_inside semi circle table
100
AcDbLine
 10
-275.4021782404779
 20
-22.80800786681883
 30
0.0
 11
-275.4021782404779
 21
-23.05453497454211
 31
0.0
  0
LINE
  5
1A5
330
70
100
AcDbEntity
  8
corrected final table design v1_inside semi circle table
100
AcDbLine
 10
-275.9021782404778
 20
-22.3078250179308
 30
0.0
 11
-275.9021782404779
 21
-22.80800786681882
 31
0.0
  0
LINE
  5
1A6
330
70
100
AcDbEntity
  8
corrected final table design v1_inside semi circle table
100
AcDbLine
 10
-275.9021782404779
 20
-40.80106208226538
 30
0.0
 11
-275.9021782404778
 21
-41.30124493115338
 31
0.0
  0
LINE
  5
1A7
330
70
100
AcDbEntity
  8
corrected final table design v1_inside semi circle table
100
AcDbLine
 10
-275.4021782404779
 20
-39.66819441979899
 30
0.0
 11
-275.4021782404779
 21
-40.80106208226538
 31
0.0
  0
LINE
  5
1A8
330
70
100
AcDbEntity
  8
corrected final table design v1_inside semi circle table
100
AcDbLine
 10
-275.9021782404779
 20
-22.80800786681882
 30
0.0
 11
-275.9021782404778
 21
-23.05453497454211
 31
0.0
  0
LINE
  5
1A9
330
70
100
AcDbEntity
  8
corrected final table design v1_inside semi circle table
100
AcDbLine
 10
-275.4021782404779
 20
-22.30782501793082
 30
0.0
 11
-275.4021782404779
 21
-22.80800786681883
 31
0.0
  0
LINE
  5
1AA
330
70
100
AcDbEntity
  8
corrected final table design v1_inside semi circle table
100
AcDbLine
 10
-275.9021782404778
 20
-23.2479004588777
 30
0.0
 11
-275.9021782404778
 21
-23.87309161330596
 31
0.0
  0
LINE
  5
1AB
330
70
100
AcDbEntity
  8
corrected final table design v1_inside semi circle table
100
AcDbLine
 10
-275.9021782404778
 20
-39.66819441979899
 30
0.0
 11
-275.9021782404779
 21
-40.80106208226539
 31
0.0
  0
POINT
  5
1AD
330
70
100
AcDbEntity
  8
corrected final table design v1_Default
100
AcDbPoint
 10
0.0
 20
0.0
 30
0.0
  0
LINE
  5
1AE
330
70
100
AcDbEntity
  8
corrected final table design v1_Default
100
AcDbLine
 10
-322.6521782404778
 20
-54.80453497454211
 30
0.0
 11
-275.9021782404778
 21
-54.80453497454211
 31
0.0
  0
LINE
  5
1AF
330
70
100
AcDbEntity
  8
corrected final table design v1_Default
100
AcDbLine
 10
-275.9021782404778
 20
-22.3078250179308
 30
0.0
 11
-275.9021782404778
 21
-8.804534974542105
 31
0.0
  0
LINE
  5
1B0
330
70
100
AcDbEntity
  8
corrected final table design v1_Default
100
AcDbLine
 10
-279.6359906716467
 20
-34.0093009322117
 30
0.0
 11
-278.6582631170322
 21
-34.0093009322117
 31
0.0
  0
LINE
  5
1B1
330
70
100
AcDbEntity
  8
corrected final table design v1_Default
100
AcDbLine
 10
-275.9021782404778
 20
-54.80453497454211
 30
0.0
 11
-275.9021782404778
 21
-41.30124493115339
 31
0.0
  0
LINE
  5
1B2
330
70
100
AcDbEntity
  8
corrected final table design v1_Default
100
AcDbLine
 10
-273.9067392587548
 20
-32.73613395156905
 30
0.0
 11
-273.2701557684335
 21
-32.73613395156905
 31
0.0
  0
LINE
  5
1B3
330
70
100
AcDbEntity
  8
corrected final table design v1_Default
100
AcDbLine
 10
-276.6521782404778
 20
-23.55453497454211
 30
0.0
 11
-276.6521782404778
 21
-23.80453497454211
 31
0.0
  0
LINE
  5
1B4
330
70
100
AcDbEntity
  8
corrected final table design v1_Default
100
AcDbLine
 10
-274.6521782404778
 20
-23.80453497454211
 30
0.0
 11
-274.6521782404778
 21
-23.55453500562838
 31
0.0
  0
LINE
  5
1B5
330
70
100
AcDbEntity
  8
corrected final table design v1_Default
100
AcDbLine
 10
-227.6521782404778
 20
-55.80453497454211
 30
0.0
 11
-323.6521782404778
 21
-55.80453497454211
 31
0.0
  0
LINE
  5
1B6
330
70
100
AcDbEntity
  8
corrected final table design v1_Default
100
AcDbLine
 10
-274.6521782404778
 20
-24.0812451680461
 30
0.0
 11
-274.6521782404778
 21
-23.8045349745421
 31
0.0
  0
LINE
  5
1B7
330
70
100
AcDbEntity
  8
corrected final table design v1_Default
100
AcDbLine
 10
-275.4021782404779
 20
-54.80453497454211
 30
0.0
 11
-228.6521782404778
 21
-54.80453497454211
 31
0.0
  0
LINE
  5
1B8
330
70
100
AcDbEntity
  8
corrected final table design v1_Default
100
AcDbLine
 10
-275.9021782404778
 20
-8.804534974542107
 30
0.0
 11
-322.6521782404778
 21
-8.804534974542107
 31
0.0
  0
LINE
  5
1B9
330
70
100
AcDbEntity
  8
corrected final table design v1_Default
100
AcDbLine
 10
-277.0896567103614
 20
-30.82638348060509
 30
0.0
 11
-277.0896567103613
 21
-31.63353900307295
 31
0.0
  0
LINE
  5
1BA
330
70
100
AcDbEntity
  8
corrected final table design v1_Default
100
AcDbLine
 10
-228.6521782404778
 20
-54.80453497454211
 30
0.0
 11
-228.6521782404778
 21
-8.804534974542107
 31
0.0
  0
LINE
  5
1BB
330
70
100
AcDbEntity
  8
corrected final table design v1_Default
100
AcDbLine
 10
-275.4021782404779
 20
-38.30552870987763
 30
0.0
 11
-275.4021782404779
 21
-23.87309161330598
 31
0.0
  0
LINE
  5
1BC
330
70
100
AcDbEntity
  8
corrected final table design v1_Default
100
AcDbLine
 10
-275.4021782404779
 20
-30.82638348060509
 30
0.0
 11
-275.1799062393974
 21
-30.82638348060509
 31
0.0
  0
LINE
  5
1BD
330
70
100
AcDbEntity
  8
corrected final table design v1_Default
100
AcDbLine
 10
-275.9021782404778
 20
-38.32231424825092
 30
0.0
 11
-275.9021782404778
 21
-23.87309161330596
 31
0.0
  0
ARC
  5
1BE
330
70
100
AcDbEntity
  8
corrected final table design v1_Default
100
AcDbCircle
 10
-275.6521782404778
 20
-31.80453497454211
 30
0.0
 40
8.999999999999998
100
AcDbArc
 50
91.59175417660001
 51
268.4082458234141
  0
LINE
  5
1BF
330
70
100
AcDbEntity
  8
corrected final table design v1_Default
100
AcDbLine
 10
-273.2701557684335
 20
-32.09955046124772
 30
0.0
 11
-273.9067392587548
 21
-32.09955046124774
 31
0.0
  0
LINE
  5
1C0
330
70
100
AcDbEntity
  8
corrected final table design v1_Default
100
AcDbLine
 10
-274.543322749076
 20
-32.73613395156905
 30
0.0
 11
-274.543322749076
 21
-29.55321649996243
 31
0.0
  0
ARC
  5
1C1
330
70
100
AcDbEntity
  8
corrected final table design v1_Default
100
AcDbCircle
 10
-276.4530732200401
 20
-32.73613395156905
 30
0.0
 40
1.909750470963966
100
AcDbArc
 50
303.3861340862793
 51
0.0
  0
ARC
  5
1C2
330
70
100
AcDbEntity
  8
corrected final table design v1_Default
100
AcDbCircle
 10
-276.4530732200401
 20
-32.73613395156905
 30
0.0
 40
1.909750470963981
100
AcDbArc
 50
180.0
 51
286.7660428209185
  0
LINE
  5
1C3
330
70
100
AcDbEntity
  8
corrected final table design v1_Default
100
AcDbLine
 10
-278.3628236910041
 20
-29.55321649996243
 30
0.0
 11
-278.3628236910041
 21
-32.73613395156905
 31
0.0
  0
LINE
  5
1C4
330
70
100
AcDbEntity
  8
corrected final table design v1_Default
100
AcDbLine
 10
-275.4021782404779
 20
-22.3078250179308
 30
0.0
 11
-275.4021782404779
 21
-8.804534974542105
 31
0.0
  0
LINE
  5
1C5
330
70
100
AcDbEntity
  8
corrected final table design v1_Default
100
AcDbLine
 10
-273.2701557684335
 20
-30.18979999028376
 30
0.0
 11
-273.9067392587548
 21
-30.18979999028376
 31
0.0
  0
LINE
  5
1C6
330
70
100
AcDbEntity
  8
corrected final table design v1_Default
100
AcDbLine
 10
-227.6521782404778
 20
-7.804534974542107
 30
0.0
 11
-227.6521782404778
 21
-55.80453497454211
 31
0.0
  0
LINE
  5
1C7
330
70
100
AcDbEntity
  8
corrected final table design v1_Default
100
AcDbLine
 10
-272.3411945118164
 20
-24.60617767273881
 30
0.0
 11
-275.4021782404779
 21
-24.6061776727388
 31
0.0
  0
LINE
  5
1C8
330
70
100
AcDbEntity
  8
corrected final table design v1_Default
100
AcDbLine
 10
-323.6521782404778
 20
-7.804534974542107
 30
0.0
 11
-227.6521782404778
 21
-7.804534974542107
 31
0.0
  0
LINE
  5
1C9
330
70
100
AcDbEntity
  8
corrected final table design v1_Default
100
AcDbLine
 10
-322.6521782404778
 20
-8.804534974542107
 30
0.0
 11
-322.6521782404778
 21
-54.80453497454211
 31
0.0
  0
LINE
  5
1CA
330
70
100
AcDbEntity
  8
corrected final table design v1_Default
100
AcDbLine
 10
-323.6521782404778
 20
-55.80453497454211
 30
0.0
 11
-323.6521782404778
 21
-7.804534974542107
 31
0.0
  0
LINE
  5
1CB
330
70
100
AcDbEntity
  8
corrected final table design v1_Default
100
AcDbLine
 10
-228.6521782404778
 20
-8.804534974542107
 30
0.0
 11
-275.4021782404779
 21
-8.804534974542107
 31
0.0
  0
ARC
  5
1CC
330
70
100
AcDbEntity
  8
corrected final table design v1_Default
100
AcDbCircle
 10
-275.6521782404778
 20
-31.80453497454211
 30
0.0
 40
9.0
100
AcDbArc
 50
271.5917541765993
 51
88.4082458234141
  0
LINE
  5
1CD
330
70
100
AcDbEntity
  8
corrected final table design v1_Default
100
AcDbLine
 10
-275.4021782404779
 20
-54.80453497454211
 30
0.0
 11
-275.4021782404779
 21
-41.30124493115339
 31
0.0
  0
LINE
  5
1CE
330
70
100
AcDbEntity
  8
corrected final table design v1_Default
100
AcDbLine
 10
-274.543322749076
 20
-29.55321649996243
 30
0.0
 11
-273.2701557684334
 21
-29.55321649996243
 31
0.0
  0
LINE
  5
1CF
330
70
100
AcDbEntity
  8
corrected final table design v1_Default
100
AcDbLine
 10
-276.6521782404778
 20
-23.80453497454211
 30
0.0
 11
-276.6521782404778
 21
-24.08124516804611
 31
0.0
  0
LINE
  5
1D0
330
70
100
AcDbEntity
  8
corrected final table design v1_Default
100
AcDbLine
 10
-275.9021782404778
 20
-24.6061776727388
 30
0.0
 11
-278.9865509543226
 21
-24.6061776727388
 31
0.0
  0
LINE
  5
1D1
330
70
100
AcDbEntity
  8
corrected final table design v1_Default
100
AcDbLine
 10
-275.9021782404778
 20
-23.24790045887771
 30
0.0
 11
-275.9021782404778
 21
-23.05453497454211
 31
0.0
  0
ARC
  5
1D2
330
70
100
AcDbEntity
  8
corrected final table design v1_Default
100
AcDbCircle
 10
-276.4530732200401
 20
-32.73613395156905
 30
0.0
 40
0.6365834903213116
100
AcDbArc
 50
30.0723740196123
 51
329.9276259803916
  0
LINE
  5
1D3
330
70
100
AcDbEntity
  8
corrected final table design v1_Default
100
AcDbLine
 10
-279.6359906716467
 20
-34.0093009322117
 30
0.0
 11
-279.6359906716467
 21
-33.37271744189039
 31
0.0
  0
ARC
  5
1D4
330
70
100
AcDbEntity
  8
corrected final table design v1_Default
100
AcDbCircle
 10
276.4530732200401
 20
-30.82638348060509
 30
0.0
 40
1.273166980642664
210
0.0
220
0.0
230
-1.0
100
AcDbArc
 50
145.6308959473019
 51
180.0
  0
SPLINE
  5
1D5
330
70
100
AcDbEntity
  8
corrected final table design v1_Default
100
AcDbSpline
210
0.0
220
0.0
230
1.0
 70
    12
 71
     2
 72
     8
 73
     5
 74
     0
 42
0.000000001
 43
0.0000000001
 40
6.988146775824369
 40
6.988146775824369
 40
6.988146775824369
 40
8.353981633974482
 40
8.353981633974482
 40
9.719816492124627
 40
9.719816492124627
 40
9.719816492124627
 10
-275.4021782404779
 20
-23.87309161330598
 30
0.0
 41
0.9335385250525176
 10
-275.0153731623756
 20
-23.82315643601004
 30
0.0
 41
0.7453242274971038
 10
-275.0153731623757
 20
-23.56049603609185
 30
0.0
 41
1.0
 10
-275.0153731623757
 20
-23.29783563617364
 30
0.0
 41
0.7453242274970981
 10
-275.4021782404779
 20
-23.24790045887772
 30
0.0
 41
0.9335385250525259
  0
LINE
  5
1D6
330
70
100
AcDbEntity
  8
corrected final table design v1_Default
100
AcDbLine
 10
-278.9994071813254
 20
-30.50809173544442
 30
0.0
 11
-279.6359906716467
 21
-30.82638348060509
 31
0.0
  0
SPLINE
  5
1D7
330
70
100
AcDbEntity
  8
corrected final table design v1_Default
100
AcDbSpline
210
0.0
220
0.0
230
1.0
 70
    12
 71
     2
 72
     8
 73
     5
 74
     0
 42
0.000000001
 43
0.0000000001
 40
0.2499999999999858
 40
0.2499999999999858
 40
0.2499999999999858
 40
0.2500000690563164
 40
0.2500000690563164
 40
1.820796464907533
 40
1.820796464907533
 40
1.820796464907533
 10
-274.6521782404778
 20
-23.55453500562839
 30
0.0
 41
0.9999999742472926
 10
-274.6521782404778
 20
-23.55453499008525
 30
0.0
 41
0.9999999871236456
 10
-274.6521782404778
 20
-23.55453497454212
 30
0.0
 41
1.0
 10
-274.6521782404778
 20
-23.05453497454209
 30
0.0
 41
0.7071067811865475
 10
-275.4021782404779
 20
-23.05453497454211
 30
0.0
 41
1.0
  0
LINE
  5
1D8
330
70
100
AcDbEntity
  8
corrected final table design v1_Default
100
AcDbLine
 10
-274.543322749076
 20
-34.42037555568878
 30
0.0
 11
-274.543322749076
 21
-35.28246791285436
 31
0.0
  0
ARC
  5
1D9
330
70
100
AcDbEntity
  8
corrected final table design v1_Default
100
AcDbCircle
 10
-276.4530732200401
 20
-32.73613395156903
 30
0.0
 40
1.273166980642669
100
AcDbArc
 50
180.0000000000003
 51
295.638813070815
  0
ARC
  5
1DA
330
70
100
AcDbEntity
  8
corrected final table design v1_Default
100
AcDbCircle
 10
276.4530732200401
 20
-32.73613395156907
 30
0.0
 40
1.273166980642669
210
0.0
220
0.0
230
-1.0
100
AcDbArc
 50
0.0000000000015988
 51
0.0000000000015988
  0
LINE
  5
1DB
330
70
100
AcDbEntity
  8
corrected final table design v1_Default
100
AcDbLine
 10
-273.9067392587548
 20
-32.09955046124774
 30
0.0
 11
-273.9067392587548
 21
-30.18979999028376
 31
0.0
  0
ARC
  5
1DC
330
70
100
AcDbEntity
  8
corrected final table design v1_Default
100
AcDbCircle
 10
278.9839821751616
 20
-24.34371142039245
 30
0.0
 40
0.2624788224735753
210
0.0
220
0.0
230
-1.0
100
AcDbArc
 50
269.4392593179135
 51
90.56074068185074
  0
LINE
  5
1DD
330
70
100
AcDbEntity
  8
corrected final table design v1_Default
100
AcDbLine
 10
-278.9814133960019
 20
-24.0812451680461
 30
0.0
 11
-275.9021782404778
 21
-24.0812451680461
 31
0.0
  0
ARC
  5
1DE
330
70
100
AcDbEntity
  8
corrected final table design v1_Default
100
AcDbCircle
 10
-273.2701557684335
 20
-31.14467522576575
 30
0.0
 40
1.591458725803308
100
AcDbArc
 50
270.0
 51
90.0
  0
ARC
  5
1DF
330
70
100
AcDbEntity
  8
corrected final table design v1_Default
100
AcDbCircle
 10
-276.4530732200401
 20
-32.73613395156903
 30
0.0
 40
2.546333961285299
100
AcDbArc
 50
210.0000000000003
 51
282.4946401056686
  0
ARC
  5
1E0
330
70
100
AcDbEntity
  8
corrected final table design v1_Default
100
AcDbCircle
 10
276.4530732200401
 20
-30.82638348060509
 30
0.0
 40
1.273166980642669
210
0.0
220
0.0
230
-1.0
100
AcDbArc
 50
0.0000000000003198
 51
115.6388130708151
  0
ARC
  5
1E1
330
70
100
AcDbEntity
  8
corrected final table design v1_Default
100
AcDbCircle
 10
276.4530732200401
 20
-30.8263834806051
 30
0.0
 40
0.6365834903213124
210
0.0
220
0.0
230
-1.0
100
AcDbArc
 50
0.0000000000009593
 51
149.9276259803874
  0
LINE
  5
1E2
330
70
100
AcDbEntity
  8
corrected final table design v1_Default
100
AcDbLine
 10
-275.4021782404779
 20
-23.24790045887771
 30
0.0
 11
-275.4021782404779
 21
-23.05453497454211
 31
0.0
  0
ARC
  5
1E3
330
70
100
AcDbEntity
  8
corrected final table design v1_Default
100
AcDbCircle
 10
272.3386257326549
 20
-24.34371142039245
 30
0.0
 40
0.2624788224735764
210
0.0
220
0.0
230
-1.0
100
AcDbArc
 50
90.56074068204926
 51
270.5607406820493
  0
ARC
  5
1E4
330
70
100
AcDbEntity
  8
corrected final table design v1_Default
100
AcDbCircle
 10
276.4530732200401
 20
-32.73613395156907
 30
0.0
 40
1.27316698064267
210
0.0
220
0.0
230
-1.0
100
AcDbArc
 50
145.6308959473015
 51
180.0
  0
ARC
  5
1E5
330
70
100
AcDbEntity
  8
corrected final table design v1_Default
100
AcDbCircle
 10
-276.4530732200401
 20
-32.73613395156903
 30
0.0
 40
2.546333961285294
100
AcDbArc
 50
180.0000000000001
 51
194.4775121859304
  0
ARC
  5
1E6
330
70
100
AcDbEntity
  8
corrected final table design v1_Default
100
AcDbCircle
 10
-273.2701557684335
 20
-31.14467522576575
 30
0.0
 40
0.9548752354819797
100
AcDbArc
 50
270.0
 51
90.0
  0
ARC
  5
1E7
330
70
100
AcDbEntity
  8
corrected final table design v1_Default
100
AcDbCircle
 10
276.4530732200401
 20
-32.73613395156907
 30
0.0
 40
1.273166980642675
210
0.0
220
0.0
230
-1.0
100
AcDbArc
 50
60.00000000000464
 51
115.638813070815
  0
LINE
  5
1E8
330
70
100
AcDbEntity
  8
corrected final table design v1_Default
100
AcDbLine
 10
-278.9994071813254
 20
-30.50809173544442
 30
0.0
 11
-278.9994071813254
 21
-32.73613395156904
 31
0.0
  0
LINE
  5
1E9
330
70
100
AcDbEntity
  8
corrected final table design v1_Default
100
AcDbLine
 10
-274.543322749076
 20
-35.28246791285436
 30
0.0
 11
-273.9067392587548
 21
-35.28246791285436
 31
0.0
  0
LINE
  5
1EA
330
70
100
AcDbEntity
  8
corrected final table design v1_Default
100
AcDbLine
 10
-279.6359906716467
 20
-30.18979999028376
 30
0.0
 11
-279.6359906716467
 21
-30.82638348060509
 31
0.0
  0
LINE
  5
1EB
330
70
100
AcDbEntity
  8
corrected final table design v1_Default
100
AcDbLine
 10
-275.4021782404779
 20
-24.0812451680461
 30
0.0
 11
-272.3360569534944
 21
-24.0812451680461
 31
0.0
  0
SPLINE
  5
1EC
330
70
100
AcDbEntity
  8
corrected final table design v1_Default
100
AcDbSpline
210
0.0
220
0.0
230
1.0
 70
    12
 71
     2
 72
     6
 73
     3
 74
     0
 42
0.000000001
 43
0.0000000001
 40
2.070796464907533
 40
2.070796464907533
 40
2.070796464907533
 40
3.64159279170243
 40
3.64159279170243
 40
3.64159279170243
 10
-275.9021782404778
 20
-23.05453497454211
 30
0.0
 41
1.0
 10
-276.6521782404778
 20
-23.05453497454209
 30
0.0
 41
0.7071067811865475
 10
-276.6521782404778
 20
-23.55453497454211
 30
0.0
 41
1.0
  0
ARC
  5
1ED
330
70
100
AcDbEntity
  8
corrected final table design v1_Default
100
AcDbCircle
 10
-276.4530732200401
 20
-32.73613395156903
 30
0.0
 40
1.273166980642667
100
AcDbArc
 50
325.6308959473018
 51
359.9999999999988
  0
LINE
  5
1EE
330
70
100
AcDbEntity
  8
corrected final table design v1_Default
100
AcDbLine
 10
-277.7262402006828
 20
-30.82638348060509
 30
0.0
 11
-277.7262402006828
 21
-32.73613395156904
 31
0.0
  0
ARC
  5
1EF
330
70
100
AcDbEntity
  8
corrected final table design v1_Default
100
AcDbCircle
 10
-276.4530732200401
 20
-32.73613395156903
 30
0.0
 40
2.546333961285294
100
AcDbArc
 50
294.3751248381062
 51
318.5903778907299
  0
LINE
  5
1F0
330
70
100
AcDbEntity
  8
corrected final table design v1_Default
100
AcDbLine
 10
-279.6359906716467
 20
-33.37271744189039
 30
0.0
 11
-278.9185504765251
 21
-33.37271744189039
 31
0.0
  0
LINE
  5
1F1
330
70
100
AcDbEntity
  8
corrected final table design v1_Default
100
AcDbLine
 10
-273.9067392587548
 20
-35.28246791285436
 30
0.0
 11
-273.9067392587548
 21
-32.73613395156905
 31
0.0
  0
SPLINE
  5
1F2
330
70
100
AcDbEntity
  8
corrected final table design v1_Default
100
AcDbSpline
210
0.0
220
0.0
230
1.0
 70
    12
 71
     2
 72
     8
 73
     5
 74
     0
 42
0.000000001
 43
0.0000000001
 40
10.37973942941414
 40
10.37973942941414
 40
10.37973942941414
 40
11.74557428756428
 40
11.74557428756428
 40
13.11140914571438
 40
13.11140914571438
 40
13.11140914571438
 10
-275.9021782404778
 20
-23.2479004588777
 30
0.0
 41
0.933538525052524
 10
-276.2889833185799
 20
-23.29783563617361
 30
0.0
 41
0.7453242274970994
 10
-276.2889833185799
 20
-23.56049603609183
 30
0.0
 41
1.0
 10
-276.2889833185799
 20
-23.82315643601002
 30
0.0
 41
0.7453242274971059
 10
-275.9021782404778
 20
-23.87309161330596
 30
0.0
 41
0.933538525052514
  0
LINE
  5
1F3
330
70
100
AcDbEntity
  8
corrected final table design v1_Default
100
AcDbLine
 10
-278.3628236910041
 20
-29.55321649996243
 30
0.0
 11
-279.6359906716467
 21
-30.18979999028376
 31
0.0
  0
POINT
  5
1F5
330
70
100
AcDbEntity
  8
corrected final table design v1_table legs
100
AcDbPoint
 10
0.0
 20
0.0
 30
0.0
  0
LINE
  5
1F6
330
70
100
AcDbEntity
  8
corrected final table design v1_table legs
100
AcDbLine
 10
-280.0906720619545
 20
-27.03365845200533
 30
0.0
 11
-280.0906720619545
 21
-28.77890331686789
 31
0.0
  0
LINE
  5
1F7
330
70
100
AcDbEntity
  8
corrected final table design v1_table legs
100
AcDbLine
 10
-275.4021782404779
 20
-38.30552870987763
 30
0.0
 11
-271.3106760033424
 21
-38.30552870987763
 31
0.0
  0
LINE
  5
1F8
330
70
100
AcDbEntity
  8
corrected final table design v1_table legs
100
AcDbLine
 10
-275.3234380829975
 20
-38.38426886735796
 30
0.0
 11
-271.3141818872951
 21
-38.38426886735796
 31
0.0
  0
LINE
  5
1F9
330
70
100
AcDbEntity
  8
corrected final table design v1_table legs
100
AcDbLine
 10
-275.9021782404778
 20
-38.30552870987763
 30
0.0
 11
-280.0119319044742
 21
-38.30552870987761
 31
0.0
  0
LINE
  5
1FA
330
70
100
AcDbEntity
  8
corrected final table design v1_table legs
100
AcDbLine
 10
-280.0906720619545
 20
-28.77890331686789
 30
0.0
 11
-280.0906720619545
 21
-36.77890331686789
 31
0.0
  0
LINE
  5
1FB
330
70
100
AcDbEntity
  8
corrected final table design v1_table legs
100
AcDbLine
 10
-275.3234380829975
 20
-39.58945426231866
 30
0.0
 11
-275.3234380829975
 21
-38.38426886735796
 31
0.0
  0
LINE
  5
1FC
330
70
100
AcDbEntity
  8
corrected final table design v1_table legs
100
AcDbLine
 10
-280.0906720619545
 20
-36.77890331686789
 30
0.0
 11
-280.0906720619545
 21
-38.34489878861779
 31
0.0
  0
LINE
  5
1FD
330
70
100
AcDbEntity
  8
corrected final table design v1_table legs
100
AcDbLine
 10
-278.6657910695565
 20
-39.66819441979899
 30
0.0
 11
-275.9021782404778
 21
-39.66819441979899
 31
0.0
  0
LINE
  5
1FE
330
70
100
AcDbEntity
  8
corrected final table design v1_table legs
100
AcDbLine
 10
-280.0119319044742
 20
-28.77890331686789
 30
0.0
 11
-280.0119319044742
 21
-27.03778849052854
 31
0.0
  0
LINE
  5
1FF
330
70
100
AcDbEntity
  8
corrected final table design v1_table legs
100
AcDbLine
 10
-275.9021782404778
 20
-39.62882434105882
 30
0.0
 11
-275.9021782404778
 21
-38.30552870987763
 31
0.0
  0
LINE
  5
200
330
70
100
AcDbEntity
  8
corrected final table design v1_table legs
100
AcDbLine
 10
-280.0904573420883
 20
-27.03161096035218
 30
0.0
 11
-280.0906720619544
 21
-27.03365845200533
 31
0.0
  0
LINE
  5
201
330
70
100
AcDbEntity
  8
corrected final table design v1_table legs
100
AcDbLine
 10
-272.7107553760074
 20
-39.58945426231866
 30
0.0
 11
-275.3234380829975
 21
-39.58945426231866
 31
0.0
  0
LINE
  5
202
330
70
100
AcDbEntity
  8
corrected final table design v1_table legs
100
AcDbLine
 10
-275.4021782404779
 20
-39.66819441979899
 30
0.0
 11
-275.4021782404779
 21
-39.62882434105882
 31
0.0
  0
LINE
  5
203
330
70
100
AcDbEntity
  8
corrected final table design v1_table legs
100
AcDbLine
 10
-271.3106760033423
 20
-36.77890331686789
 30
0.0
 11
-271.3106760033423
 21
-28.77890331686789
 31
0.0
  0
LINE
  5
204
330
70
100
AcDbEntity
  8
corrected final table design v1_table legs
100
AcDbLine
 10
-275.9021782404778
 20
-39.66819441979899
 30
0.0
 11
-275.9021782404778
 21
-39.62882434105882
 31
0.0
  0
LINE
  5
205
330
70
100
AcDbEntity
  8
corrected final table design v1_table legs
100
AcDbLine
 10
-278.6118525318091
 20
-39.58945426231866
 30
0.0
 11
-275.9809183979581
 21
-39.58945426231866
 31
0.0
  0
LINE
  5
206
330
70
100
AcDbEntity
  8
corrected final table design v1_table legs
100
AcDbLine
 10
-271.2319358458621
 20
-36.77890331686789
 30
0.0
 11
-271.2319358458621
 21
-38.34489878861779
 31
0.0
  0
LINE
  5
207
330
70
100
AcDbEntity
  8
corrected final table design v1_table legs
100
AcDbLine
 10
-279.1415764841573
 20
-24.55361417411241
 30
0.0
 11
-279.1557777264334
 21
-24.59558673463821
 31
0.0
  0
LINE
  5
208
330
70
100
AcDbEntity
  8
corrected final table design v1_table legs
100
AcDbLine
 10
-271.2321505657282
 20
-27.03161096035218
 30
0.0
 11
-271.231935845862
 21
-27.03365845200532
 31
0.0
  0
LINE
  5
209
330
70
100
AcDbEntity
  8
corrected final table design v1_table legs
100
AcDbLine
 10
-280.0119319044742
 20
-38.30552870987761
 30
0.0
 11
-280.0119319044742
 21
-36.77890331686789
 31
0.0
  0
LINE
  5
20A
330
70
100
AcDbEntity
  8
corrected final table design v1_table legs
100
AcDbLine
 10
-280.0119319044742
 20
-36.77890331686789
 30
0.0
 11
-280.0119319044742
 21
-28.77890331686789
 31
0.0
  0
LINE
  5
20B
330
70
100
AcDbEntity
  8
corrected final table design v1_table legs
100
AcDbLine
 10
-272.1810314236591
 20
-24.55361417411247
 30
0.0
 11
-272.1668301813831
 21
-24.59558673463822
 31
0.0
  0
LINE
  5
20C
330
70
100
AcDbEntity
  8
corrected final table design v1_table legs
100
AcDbLine
 10
-272.647126697826
 20
-39.64291679939159
 30
0.0
 11
-272.6568168382601
 21
-39.66819441979899
 31
0.0
  0
LINE
  5
20D
330
70
100
AcDbEntity
  8
corrected final table design v1_table legs
100
AcDbLine
 10
-271.2319358458621
 20
-27.03365845200532
 30
0.0
 11
-271.2319358458621
 21
-28.77890331686789
 31
0.0
  0
LINE
  5
20E
330
70
100
AcDbEntity
  8
corrected final table design v1_table legs
100
AcDbLine
 10
-275.9809183979581
 20
-39.58945426231866
 30
0.0
 11
-275.9809183979581
 21
-38.38426886735796
 31
0.0
  0
LINE
  5
20F
330
70
100
AcDbEntity
  8
corrected final table design v1_table legs
100
AcDbLine
 10
-271.2319358458621
 20
-28.77890331686789
 30
0.0
 11
-271.2319358458621
 21
-36.77890331686789
 31
0.0
  0
LINE
  5
210
330
70
100
AcDbEntity
  8
corrected final table design v1_table legs
100
AcDbLine
 10
-272.6568168382601
 20
-39.66819441979899
 30
0.0
 11
-275.4021782404779
 21
-39.66819441979899
 31
0.0
  0
LINE
  5
211
330
70
100
AcDbEntity
  8
corrected final table design v1_table legs
100
AcDbLine
 10
-278.6754812099906
 20
-39.64291679939159
 30
0.0
 11
-278.6657910695565
 21
-39.66819441979899
 31
0.0
  0
LINE
  5
212
330
70
100
AcDbEntity
  8
corrected final table design v1_table legs
100
AcDbLine
 10
-271.3106760033423
 20
-38.30552870987763
 30
0.0
 11
-271.3106760033423
 21
-36.77890331686788
 31
0.0
  0
LINE
  5
213
330
70
100
AcDbEntity
  8
corrected final table design v1_table legs
100
AcDbLine
 10
-275.4021782404779
 20
-39.62882434105882
 30
0.0
 11
-275.4021782404779
 21
-38.30552870987763
 31
0.0
  0
LINE
  5
214
330
70
100
AcDbEntity
  8
corrected final table design v1_table legs
100
AcDbLine
 10
-271.3106760033423
 20
-28.77890331686789
 30
0.0
 11
-271.3106760033423
 21
-27.03778849052854
 31
0.0
  0
SPLINE
  5
215
330
70
100
AcDbEntity
  8
corrected final table design v1_table legs
100
AcDbSpline
210
0.0
220
0.0
230
1.0
 70
     8
 71
     3
 72
    16
 73
    12
 74
     0
 42
0.000000001
 43
0.0000000001
 40
30.9457950312487
 40
30.9457950312487
 40
30.9457950312487
 40
30.9457950312487
 40
31.18426677719496
 40
31.41118072197884
 40
31.61826584127045
 40
31.82121942290211
 40
32.05221619311962
 40
32.36428018735099
 40
32.57041016111859
 40
32.82622530959399
 40
33.54583135460963
 40
33.54583135460963
 40
33.54583135460963
 40
33.54583135460963
 10
-271.3106760033423
 20
-27.03778849052854
 30
0.0
 10
-271.3190681689606
 20
-26.95874214855065
 30
0.0
 10
-271.3468595216103
 20
-26.80581566983214
 30
0.0
 10
-271.4069556944461
 20
-26.58979784581955
 30
0.0
 10
-271.4716406528478
 20
-26.38751360796291
 30
0.0
 10
-271.5505645618729
 20
-26.18875411836039
 30
0.0
 10
-271.6590729004521
 20
-25.96492305469506
 30
0.0
 10
-271.7722440276077
 20
-25.74232843790266
 30
0.0
 10
-271.8872612784454
 20
-25.51137759349383
 30
0.0
 10
-272.0508026444427
 20
-25.15293376833404
 30
0.0
 10
-272.1645393358048
 20
-24.84803821288835
 30
0.0
 10
-272.241416735605
 20
-24.62082278681221
 30
0.0
  0
SPLINE
  5
216
330
70
100
AcDbEntity
  8
corrected final table design v1_table legs
100
AcDbSpline
210
0.0
220
0.0
230
1.0
 70
     8
 71
     3
 72
    16
 73
    12
 74
     0
 42
0.000000001
 43
0.0000000001
 40
33.52694171166888
 40
33.52694171166888
 40
33.52694171166888
 40
33.52694171166888
 40
33.76541345761511
 40
33.99232740239901
 40
34.19941252169064
 40
34.4023661033223
 40
34.63336287353979
 40
34.94542686777116
 40
35.15155684153877
 40
35.40737199001418
 40
36.12697803502979
 40
36.12697803502979
 40
36.12697803502979
 40
36.12697803502979
 10
-280.0119319044742
 20
-27.03778849052856
 30
0.0
 10
-280.003539738856
 20
-26.95874214855065
 30
0.0
 10
-279.9757483862064
 20
-26.80581566983218
 30
0.0
 10
-279.9156522133705
 20
-26.58979784581916
 30
0.0
 10
-279.8509672549688
 20
-26.38751360796252
 30
0.0
 10
-279.7720433459435
 20
-26.18875411835983
 30
0.0
 10
-279.6635350073643
 20
-25.96492305469443
 30
0.0
 10
-279.5503638802089
 20
-25.74232843790275
 30
0.0
 10
-279.4353466293711
 20
-25.51137759349346
 30
0.0
 10
-279.2718052633737
 20
-25.1529337683341
 30
0.0
 10
-279.1580685719772
 20
-24.84803821290006
 30
0.0
 10
-279.0811911722116
 20
-24.62082278681221
 30
0.0
  0
SPLINE
  5
217
330
70
100
AcDbEntity
  8
corrected final table design v1_table legs
100
AcDbSpline
210
0.0
220
0.0
230
1.0
 70
     8
 71
     3
 72
    15
 73
    11
 74
     0
 42
0.000000001
 43
0.0000000001
 40
12.06186033677064
 40
12.06186033677064
 40
12.06186033677064
 40
12.06186033677064
 40
12.1490343381928
 40
12.24150365459525
 40
12.34335710797099
 40
12.45788798892955
 40
12.58758354113388
 40
12.84133159302973
 40
13.21185503523725
 40
13.65669739873473
 40
13.65669739873473
 40
13.65669739873473
 40
13.65669739873473
 10
-280.0906720619545
 20
-38.34489878861779
 30
0.0
 10
-280.0906720619545
 20
-38.37395678909182
 30
0.0
 10
-280.0815836356424
 20
-38.43374569714458
 30
0.0
 10
-280.0437505008517
 20
-38.52031128524732
 30
0.0
 10
-279.984398020731
 20
-38.60485894709702
 30
0.0
 10
-279.905161067424
 20
-38.68898457836003
 30
0.0
 10
-279.7791793675963
 20
-38.79734374655963
 30
0.0
 10
-279.57293315281
 20
-38.94148395961678
 30
0.0
 10
-279.2653808157872
 20
-39.12182995326876
 30
0.0
 10
-279.0246736825029
 20
-39.24812653930106
 30
0.0
 10
-278.8925908106914
 20
-39.31551575961313
 30
0.0
  0
SPLINE
  5
218
330
70
100
AcDbEntity
  8
corrected final table design v1_table legs
100
AcDbSpline
210
0.0
220
0.0
230
1.0
 70
     8
 71
     3
 72
    15
 73
    11
 74
     0
 42
0.000000001
 43
0.0000000001
 40
9.544203799818076
 40
9.544203799818076
 40
9.544203799818076
 40
9.544203799818076
 40
9.631377801240233
 40
9.723847117642687
 40
9.825700571018424
 40
9.940231451976979
 40
10.06992700418131
 40
10.32367505607716
 40
10.69419849828469
 40
11.13904086178217
 40
11.13904086178217
 40
11.13904086178217
 40
11.13904086178217
 10
-271.2319358458621
 20
-38.34489878861779
 30
0.0
 10
-271.2319358458621
 20
-38.37395678909184
 30
0.0
 10
-271.2410242721743
 20
-38.43374569714436
 30
0.0
 10
-271.2788574069649
 20
-38.5203112852472
 30
0.0
 10
-271.3382098870854
 20
-38.6048589470961
 30
0.0
 10
-271.4174468403925
 20
-38.68898457835947
 30
0.0
 10
-271.5434285402203
 20
-38.7973437465592
 30
0.0
 10
-271.7496747550066
 20
-38.94148395961712
 30
0.0
 10
-272.0572270920294
 20
-39.12182995326855
 30
0.0
 10
-272.2979342253136
 20
-39.24812653930115
 30
0.0
 10
-272.4300170971252
 20
-39.31551575961314
 30
0.0
  0
SPLINE
  5
219
330
70
100
AcDbEntity
  8
corrected final table design v1_table legs
100
AcDbSpline
210
0.0
220
0.0
230
1.0
 70
     8
 71
     3
 72
    11
 73
     7
 74
     0
 42
0.000000001
 43
0.0000000001
 40
-3.084640163597813
 40
-3.084640163597813
 40
-3.084640163597813
 40
-3.084640163597813
 40
-2.994918795154486
 40
-2.891717067294982
 40
-2.781763906832946
 40
-2.653970263137698
 40
-2.653970263137698
 40
-2.653970263137698
 40
-2.653970263137698
 10
-272.4658021633999
 20
-39.24537702971485
 30
0.0
 10
-272.4924422880355
 20
-39.25896893003924
 30
0.0
 10
-272.5439812387161
 20
-39.29864679620354
 30
0.0
 10
-272.6066246069733
 20
-39.37840200227964
 30
0.0
 10
-272.6630179654003
 20
-39.47726984453712
 30
0.0
 10
-272.694941862975
 20
-39.54990034606495
 30
0.0
 10
-272.7107553760074
 20
-39.58945426231871
 30
0.0
  0
SPLINE
  5
21A
330
70
100
AcDbEntity
  8
corrected final table design v1_table legs
100
AcDbSpline
210
0.0
220
0.0
230
1.0
 70
     8
 71
     3
 72
    11
 73
     7
 74
     0
 42
0.000000001
 43
0.0000000001
 40
13.65669739873473
 40
13.65669739873473
 40
13.65669739873473
 40
13.65669739873473
 40
13.72292726762682
 40
13.80992349463496
 40
13.92082699023209
 40
14.05675459110026
 40
14.05675459110026
 40
14.05675459110026
 40
14.05675459110026
 10
-278.8925908106914
 20
-39.31551575961313
 30
0.0
 10
-278.872925796743
 20
-39.32554892999493
 30
0.0
 10
-278.8325470235828
 20
-39.35777171405958
 30
0.0
 10
-278.7780171914898
 20
-39.42730411542808
 30
0.0
 10
-278.7238835520085
 20
-39.52482096980205
 30
0.0
 10
-278.6916995676266
 20
-39.60060972543877
 30
0.0
 10
-278.6754812099906
 20
-39.64291679939159
 30
0.0
  0
SPLINE
  5
21B
330
70
100
AcDbEntity
  8
corrected final table design v1_table legs
100
AcDbSpline
210
0.0
220
0.0
230
1.0
 70
     8
 71
     3
 72
    15
 73
    11
 74
     0
 42
0.000000001
 43
0.0000000001
 40
1.5838431583226
 40
1.5838431583226
 40
1.5838431583226
 40
1.5838431583226
 40
1.609979889969593
 40
1.684202766061825
 40
1.772254418393869
 40
1.876971650271134
 40
1.999594675515629
 40
2.24545025272166
 40
2.610547490989776
 40
3.052577030845768
 40
3.052577030845768
 40
3.052577030845768
 40
3.052577030845768
 10
-280.0084260205214
 20
-38.38426886735793
 30
0.0
 10
-280.0069181220139
 20
-38.39285278263123
 30
0.0
 10
-279.9993517698032
 20
-38.4255088076794
 30
0.0
 10
-279.9736324397962
 20
-38.48327219245978
 30
0.0
 10
-279.922063562177
 20
-38.55616294584889
 30
0.0
 10
-279.8497018285229
 20
-38.63267373355934
 30
0.0
 10
-279.7300442488726
 20
-38.73571010551426
 30
0.0
 10
-279.5291970759203
 20
-38.8757011780916
 30
0.0
 10
-279.2262804407954
 20
-39.05329671037515
 30
0.0
 10
-278.9880534308795
 20
-39.17841392437669
 30
0.0
 10
-278.8568057444168
 20
-39.24537702971485
 30
0.0
  0
LINE
  5
21C
330
70
100
AcDbEntity
  8
corrected final table design v1_table legs
100
AcDbLine
 10
-275.9809183979581
 20
-38.38426886735796
 30
0.0
 11
-280.0084260205215
 21
-38.38426886735794
 31
0.0
  0
SPLINE
  5
21D
330
70
100
AcDbEntity
  8
corrected final table design v1_table legs
100
AcDbSpline
210
0.0
220
0.0
230
1.0
 70
     8
 71
     3
 72
    16
 73
    12
 74
     0
 42
0.000000001
 43
0.0000000001
 40
-4.363278352409561
 40
-4.363278352409561
 40
-4.363278352409561
 40
-4.363278352409561
 40
-3.651072231991443
 40
-3.397775889225423
 40
-3.192692229004138
 40
-2.879627622702586
 40
-2.645470312224977
 40
-2.437259721648083
 40
-2.225887697690821
 40
-1.992371438804383
 40
-1.74374077519125
 40
-1.74374077519125
 40
-1.74374077519125
 40
-1.74374077519125
 10
-272.1668301813831
 20
-24.59558673463821
 30
0.0
 10
-272.0907433349221
 20
-24.8204656364008
 30
0.0
 10
-271.9782527137118
 20
-25.12229435624798
 30
0.0
 10
-271.8162284850856
 20
-25.47741282362552
 30
0.0
 10
-271.7015696911654
 20
-25.707588312787
 30
0.0
 10
-271.5879370466485
 20
-25.93111015408331
 30
0.0
 10
-271.4780956264582
 20
-26.15778981461144
 30
0.0
 10
-271.3976970556027
 20
-26.36051856525854
 30
0.0
 10
-271.331209497136
 20
-26.56788126594444
 30
0.0
 10
-271.2695028457976
 20
-26.79073410791271
 30
0.0
 10
-271.2407944401251
 20
-26.94918607346357
 30
0.0
 10
-271.2321505657282
 20
-27.03161096035218
 30
0.0
  0
SPLINE
  5
21E
330
70
100
AcDbEntity
  8
corrected final table design v1_table legs
100
AcDbSpline
210
0.0
220
0.0
230
1.0
 70
     8
 71
     3
 72
    11
 73
     7
 74
     0
 42
0.000000001
 43
0.0000000001
 40
3.052577030845768
 40
3.052577030845768
 40
3.052577030845768
 40
3.052577030845768
 40
3.142298399289093
 40
3.245500127148598
 40
3.355453287610636
 40
3.483246931305883
 40
3.483246931305883
 40
3.483246931305883
 40
3.483246931305883
 10
-278.8568057444168
 20
-39.24537702971485
 30
0.0
 10
-278.8301656197809
 20
-39.25896893003921
 30
0.0
 10
-278.7786266691004
 20
-39.29864679620372
 30
0.0
 10
-278.7159833008433
 20
-39.37840200227963
 30
0.0
 10
-278.6595899424163
 20
-39.47726984453718
 30
0.0
 10
-278.6276660448415
 20
-39.5499003460649
 30
0.0
 10
-278.6118525318091
 20
-39.58945426231863
 30
0.0
  0
SPLINE
  5
21F
330
70
100
AcDbEntity
  8
corrected final table design v1_table legs
100
AcDbSpline
210
0.0
220
0.0
230
1.0
 70
     8
 71
     3
 72
    15
 73
    11
 74
     0
 42
0.000000001
 43
0.0000000001
 40
5.136797144958888
 40
5.136797144958888
 40
5.136797144958888
 40
5.136797144958888
 40
5.162933876605901
 40
5.237156752698132
 40
5.325208405030174
 40
5.429925636907444
 40
5.552548662151938
 40
5.798404239357967
 40
6.163501477626085
 40
6.605531017482074
 40
6.605531017482074
 40
6.605531017482074
 40
6.605531017482074
 10
-271.3141818872951
 20
-38.38426886735793
 30
0.0
 10
-271.3156897858028
 20
-38.39285278263123
 30
0.0
 10
-271.3232561380134
 20
-38.42550880767943
 30
0.0
 10
-271.3489754680203
 20
-38.48327219245996
 30
0.0
 10
-271.4005443456396
 20
-38.55616294584912
 30
0.0
 10
-271.4729060792937
 20
-38.63267373355951
 30
0.0
 10
-271.5925636589441
 20
-38.73571010551486
 30
0.0
 10
-271.7934108318963
 20
-38.87570117809128
 30
0.0
 10
-272.0963274670212
 20
-39.05329671037547
 30
0.0
 10
-272.3345544769371
 20
-39.17841392437669
 30
0.0
 10
-272.4658021633999
 20
-39.24537702971485
 30
0.0
  0
LINE
  5
220
330
70
100
AcDbEntity
  8
corrected final table design v1_table legs
100
AcDbLine
 10
-279.0811911722116
 20
-24.62082278681221
 30
0.0
 11
-279.0711947402034
 21
-24.59127777664021
 31
0.0
  0
SPLINE
  5
221
330
70
100
AcDbEntity
  8
corrected final table design v1_table legs
100
AcDbSpline
210
0.0
220
0.0
230
1.0
 70
     8
 71
     3
 72
    11
 73
     7
 74
     0
 42
0.000000001
 43
0.0000000001
 40
11.13904086178217
 40
11.13904086178217
 40
11.13904086178217
 40
11.13904086178217
 40
11.20527073067425
 40
11.29226695768239
 40
11.40317045327953
 40
11.5390980541477
 40
11.5390980541477
 40
11.5390980541477
 40
11.5390980541477
 10
-272.4300170971252
 20
-39.31551575961314
 30
0.0
 10
-272.4496821110735
 20
-39.32554892999492
 30
0.0
 10
-272.4900608842338
 20
-39.35777171405979
 30
0.0
 10
-272.5445907163269
 20
-39.42730411542801
 30
0.0
 10
-272.5987243558081
 20
-39.52482096980217
 30
0.0
 10
-272.6309083401899
 20
-39.6006097254387
 30
0.0
 10
-272.647126697826
 20
-39.64291679939159
 30
0.0
  0
SPLINE
  5
222
330
70
100
AcDbEntity
  8
corrected final table design v1_table legs
100
AcDbSpline
210
0.0
220
0.0
230
1.0
 70
     8
 71
     3
 72
    16
 73
    12
 74
     0
 42
0.000000001
 43
0.0000000001
 40
-1.847742957211396
 40
-1.847742957211396
 40
-1.847742957211396
 40
-1.847742957211396
 40
-1.135536836793288
 40
-0.882240494027271
 40
-0.6771568338059862
 40
-0.3640922275044303
 40
-0.1299349170268229
 40
0.0782756735500749
 40
0.2896476975073377
 40
0.5231639563937774
 40
0.7717946200069066
 40
0.7717946200069066
 40
0.7717946200069066
 40
0.7717946200069066
 10
-279.1557777264335
 20
-24.59558673463821
 30
0.0
 10
-279.2318645728602
 20
-24.82046563641242
 30
0.0
 10
-279.3443551941049
 20
-25.12229435624763
 30
0.0
 10
-279.5063794227309
 20
-25.47741282362606
 30
0.0
 10
-279.6210382166512
 20
-25.70758831278685
 30
0.0
 10
-279.734670861168
 20
-25.93111015408368
 30
0.0
 10
-279.8445122813584
 20
-26.15778981461169
 30
0.0
 10
-279.9249108522138
 20
-26.36051856525857
 30
0.0
 10
-279.9913984106805
 20
-26.56788126594461
 30
0.0
 10
-280.0531050620189
 20
-26.79073410791244
 30
0.0
 10
-280.0818134676914
 20
-26.94918607346354
 30
0.0
 10
-280.0904573420883
 20
-27.03161096035218
 30
0.0
  0
LINE
  5
223
330
70
100
AcDbEntity
  8
corrected final table design v1_table legs
100
AcDbLine
 10
-272.241416735605
 20
-24.62082278681221
 30
0.0
 11
-272.251413167613
 21
-24.59127777664044
 31
0.0
  0
ENDSEC
  0
SECTION
  2
OBJECTS
  0
DICTIONARY
  5
C
330
0
100
AcDbDictionary
281
     1
  3
ACAD_COLOR
350
63
  3
ACAD_DETAILVIEWSTYLE
350
6A
  3
ACAD_GROUP
350
D
  3
ACAD_LAYOUT
350
62
  3
ACAD_MATERIAL
350
10
  3
ACAD_MLEADERSTYLE
350
66
  3
ACAD_MLINESTYLE
350
5F
  3
ACAD_PLOTSETTINGS
350
61
  3
ACAD_PLOTSTYLENAME
350
E
  3
ACAD_SCALELIST
350
42
  3
ACAD_SECTIONVIEWSTYLE
350
68
  3
ACAD_TABLESTYLE
350
64
  3
ACAD_VISUALSTYLE
350
29
  3
ACDB_RECOMPOSE_DATA
350
22C
  3
AcDbVariableDictionary
350
224
  0
DICTIONARY
  5
63
102
{ACAD_REACTORS
330
C
102
}
330
C
100
AcDbDictionary
281
     1
  0
DICTIONARY
  5
6A
102
{ACAD_REACTORS
330
C
102
}
330
C
100
AcDbDictionary
281
     1
  3
Imperial24
350
6B
  0
DICTIONARY
  5
D
102
{ACAD_REACTORS
330
C
102
}
330
C
100
AcDbDictionary
281
     1
  0
DICTIONARY
  5
62
102
{ACAD_REACTORS
330
C
102
}
330
C
100
AcDbDictionary
281
     1
  3
Layout1
350
6F
  3
Layout2
350
77
  3
Model
350
73
  0
DICTIONARY
  5
10
102
{ACAD_REACTORS
330
C
102
}
330
C
100
AcDbDictionary
281
     1
  3
ByBlock
350
19
  3
ByLayer
350
11
  3
Global
350
21
  0
DICTIONARY
  5
66
102
{ACAD_REACTORS
330
C
102
}
330
C
100
AcDbDictionary
281
     1
  3
Standard
350
67
  0
DICTIONARY
  5
5F
102
{ACAD_REACTORS
330
C
102
}
330
C
100
AcDbDictionary
281
     1
  3
Standard
350
60
  0
DICTIONARY
  5
61
102
{ACAD_REACTORS
330
C
102
}
330
C
100
AcDbDictionary
281
     1
  0
ACDBDICTIONARYWDFLT
  5
E
102
{ACAD_REACTORS
330
C
102
}
330
C
100
AcDbDictionary
281
     1
  3
Normal
350
F
100
AcDbDictionaryWithDefault
340
F
  0
DICTIONARY
  5
42
102
{ACAD_REACTORS
330
C
102
}
330
C
100
AcDbDictionary
281
     1
  3
A0
350
43
  3
A1
350
44
  3
A2
350
45
  3
A3
350
46
  3
A4
350
47
  3
A5
350
48
  3
A6
350
49
  3
A7
350
4A
  3
A8
350
4B
  3
A9
350
4C
  3
B0
350
4D
  3
B1
350
4E
  3
B2
350
4F
  3
B3
350
50
  3
B4
350
51
  3
B5
350
52
  3
B6
350
53
  0
DICTIONARY
  5
68
102
{ACAD_REACTORS
330
C
102
}
330
C
100
AcDbDictionary
281
     1
  3
Imperial24
350
69
  0
DICTIONARY
  5
64
102
{ACAD_REACTORS
330
C
102
}
330
C
100
AcDbDictionary
281
     1
  3
Standard
350
65
  0
DICTIONARY
  5
29
102
{ACAD_REACTORS
330
C
102
}
330
C
100
AcDbDictionary
281
     1
  3
2dWireframe
350
2F
  3
Basic
350
2E
  3
Brighten
350
35
  3
ColorChange
350
39
  3
Conceptual
350
32
  3
Dim
350
34
  3
EdgeColorOff
350
41
  3
Facepattern
350
38
  3
Flat
350
2A
  3
FlatWithEdges
350
2B
  3
Gouraud
350
2C
  3
GouraudWithEdges
350
2D
  3
Hidden
350
31
  3
JitterOff
350
3F
  3
Linepattern
350
37
  3
OverhangOff
350
40
  3
Realistic
350
33
  3
Shaded
350
3E
  3
Shaded with edges
350
3D
  3
Shades of Gray
350
3A
  3
Sketchy
350
3B
  3
Thicken
350
36
  3
Wireframe
350
30
  3
X-Ray
350
3C
  0
XRECORD
  5
22C
102
{ACAD_REACTORS
330
C
102
}
330
C
100
AcDbXrecord
280
     1
 90
        1
330
65
  0
DICTIONARY
  5
224
102
{ACAD_REACTORS
330
C
102
}
330
C
100
AcDbDictionary
281
     1
  3
CANNOSCALE
350
229
  3
CMLEADERSTYLE
350
226
  3
CTABLESTYLE
350
225
  3
CVIEWDETAILSTYLE
350
227
  3
CVIEWSECTIONSTYLE
350
228
  0
ACDBDETAILVIEWSTYLE
  5
6B
102
{ACAD_XDICTIONARY
360
22F
102
}
102
{ACAD_REACTORS
330
6A
102
}
330
6A
100
AcDbModelDocViewStyle
 70
     0
  3
Imperial24
290
     0
100
AcDbDetailViewStyle
 70
     0
 71
     0
 90
        3
 71
     1
340
55
 62
   256
 40
0.24
340
0
 62
   256
 40
0.24
300

 40
0.36
280
     3
 71
     2
340
5D
 90
       25
 62
   256
 71
     3
340
55
 62
   256
 40
0.24
 90
        1
 40
0.75
 90
        1
300
%<\AcVar ViewType \f "%tc1">% %<\AcVar ViewDetailId>%\PSCALE %<\AcVar ViewScale \f "%sn">%
 71
     4
340
5D
 90
       25
 62
   256
340
5D
 90
       25
 62
   256
280
     0
  0
LAYOUT
  5
6F
102
{ACAD_REACTORS
330
62
102
}
330
62
100
AcDbPlotSettings
  1

  2

  4

  6

 40
0.0
 41
0.0
 42
0.0
 43
0.0
 44
0.0
 45
0.0
 46
0.0
 47
0.0
 48
0.0
 49
0.0
140
0.0
141
0.0
142
1.0
143
1.0
 70
   688
 72
     0
 73
     0
 74
     5
  7

 75
    16
147
1.0
 76
     0
 77
     2
 78
   300
148
0.0
149
0.0
100
AcDbLayout
  1
Layout1
 70
     1
 71
     1
 10
0.0
 20
0.0
 11
12.0
 21
9.0
 12
0.0
 22
0.0
 32
0.0
 14
0.0
 24
0.0
 34
0.0
 15
0.0
 25
0.0
 35
0.0
146
0.0
 13
0.0
 23
0.0
 33
0.0
 16
1.0
 26
0.0
 36
0.0
 17
0.0
 27
1.0
 37
0.0
 76
     0
330
6C
  0
LAYOUT
  5
77
102
{ACAD_REACTORS
330
62
102
}
330
62
100
AcDbPlotSettings
  1

  2

  4

  6

 40
0.0
 41
0.0
 42
0.0
 43
0.0
 44
0.0
 45
0.0
 46
0.0
 47
0.0
 48
0.0
 49
0.0
140
0.0
141
0.0
142
1.0
143
1.0
 70
   688
 72
     0
 73
     0
 74
     5
  7

 75
    16
147
1.0
 76
     0
 77
     2
 78
   300
148
0.0
149
0.0
100
AcDbLayout
  1
Layout2
 70
     1
 71
     2
 10
0.0
 20
0.0
 11
12.0
 21
9.0
 12
0.0
 22
0.0
 32
0.0
 14
0.0
 24
0.0
 34
0.0
 15
0.0
 25
0.0
 35
0.0
146
0.0
 13
0.0
 23
0.0
 33
0.0
 16
1.0
 26
0.0
 36
0.0
 17
0.0
 27
1.0
 37
0.0
 76
     0
330
74
  0
LAYOUT
  5
73
102
{ACAD_REACTORS
330
62
102
}
330
62
100
AcDbPlotSettings
  1

  2

  4

  6

 40
0.0
 41
0.0
 42
0.0
 43
0.0
 44
0.0
 45
0.0
 46
0.0
 47
0.0
 48
0.0
 49
0.0
140
0.0
141
0.0
142
1.0
143
1.0
 70
  1712
 72
     0
 73
     0
 74
     0
  7

 75
     0
147
1.0
 76
     0
 77
     2
 78
   300
148
0.0
149
0.0
100
AcDbLayout
  1
Model
 70
     1
 71
     0
 10
0.0
 20
0.0
 11
12.0
 21
9.0
 12
0.0
 22
0.0
 32
0.0
 14
0.0
 24
0.0
 34
0.0
 15
0.0
 25
0.0
 35
0.0
146
0.0
 13
0.0
 23
0.0
 33
0.0
 16
1.0
 26
0.0
 36
0.0
 17
0.0
 27
1.0
 37
0.0
 76
     0
330
70
  0
MATERIAL
  5
19
102
{ACAD_XDICTIONARY
360
1A
102
}
102
{ACAD_REACTORS
330
10
102
}
330
10
100
AcDbMaterial
  1
ByBlock
 72
     0
 43
0.0208333333333333
 43
0.0
 43
0.0
 43
0.0
 43
0.0
 43
0.0208333333333333
 43
0.0
 43
0.0
 43
0.0
 43
0.0
 43
1.0
 43
0.0
 43
0.0
 43
0.0
 43
0.0
 43
1.0
 77
     0
 47
0.0208333333333333
 47
0.0
 47
0.0
 47
0.0
 47
0.0
 47
0.0208333333333333
 47
0.0
 47
0.0
 47
0.0
 47
0.0
 47
1.0
 47
0.0
 47
0.0
 47
0.0
 47
0.0
 47
1.0
171
     0
 49
0.0208333333333333
 49
0.0
 49
0.0
 49
0.0
 49
0.0
 49
0.0208333333333333
 49
0.0
 49
0.0
 49
0.0
 49
0.0
 49
1.0
 49
0.0
 49
0.0
 49
0.0
 49
0.0
 49
1.0
175
     0
142
0.0208333333333333
142
0.0
142
0.0
142
0.0
142
0.0
142
0.0208333333333333
142
0.0
142
0.0
142
0.0
142
0.0
142
1.0
142
0.0
142
0.0
142
0.0
142
0.0
142
1.0
179
     0
144
0.0208333333333333
144
0.0
144
0.0
144
0.0
144
0.0
144
0.0208333333333333
144
0.0
144
0.0
144
0.0
144
0.0
144
1.0
144
0.0
144
0.0
144
0.0
144
0.0
144
1.0
147
0.0208333333333333
147
0.0
147
0.0
147
0.0
147
0.0
147
0.0208333333333333
147
0.0
147
0.0
147
0.0
147
0.0
147
1.0
147
0.0
147
0.0
147
0.0
147
0.0
147
1.0
  0
MATERIAL
  5
11
102
{ACAD_XDICTIONARY
360
12
102
}
102
{ACAD_REACTORS
330
10
102
}
330
10
100
AcDbMaterial
  1
ByLayer
 72
     0
 43
0.0208333333333333
 43
0.0
 43
0.0
 43
0.0
 43
0.0
 43
0.0208333333333333
 43
0.0
 43
0.0
 43
0.0
 43
0.0
 43
1.0
 43
0.0
 43
0.0
 43
0.0
 43
0.0
 43
1.0
 77
     0
 47
0.0208333333333333
 47
0.0
 47
0.0
 47
0.0
 47
0.0
 47
0.0208333333333333
 47
0.0
 47
0.0
 47
0.0
 47
0.0
 47
1.0
 47
0.0
 47
0.0
 47
0.0
 47
0.0
 47
1.0
171
     0
 49
0.0208333333333333
 49
0.0
 49
0.0
 49
0.0
 49
0.0
 49
0.0208333333333333
 49
0.0
 49
0.0
 49
0.0
 49
0.0
 49
1.0
 49
0.0
 49
0.0
 49
0.0
 49
0.0
 49
1.0
175
     0
142
0.0208333333333333
142
0.0
142
0.0
142
0.0
142
0.0
142
0.0208333333333333
142
0.0
142
0.0
142
0.0
142
0.0
142
1.0
142
0.0
142
0.0
142
0.0
142
0.0
142
1.0
179
     0
144
0.0208333333333333
144
0.0
144
0.0
144
0.0
144
0.0
144
0.0208333333333333
144
0.0
144
0.0
144
0.0
144
0.0
144
1.0
144
0.0
144
0.0
144
0.0
144
0.0
144
1.0
147
0.0208333333333333
147
0.0
147
0.0
147
0.0
147
0.0
147
0.0208333333333333
147
0.0
147
0.0
147
0.0
147
0.0
147
1.0
147
0.0
147
0.0
147
0.0
147
0.0
147
1.0
  0
MATERIAL
  5
21
102
{ACAD_XDICTIONARY
360
22
102
}
102
{ACAD_REACTORS
330
10
102
}
330
10
100
AcDbMaterial
  1
Global
 72
     0
 43
0.0208333333333333
 43
0.0
 43
0.0
 43
0.0
 43
0.0
 43
0.0208333333333333
 43
0.0
 43
0.0
 43
0.0
 43
0.0
 43
1.0
 43
0.0
 43
0.0
 43
0.0
 43
0.0
 43
1.0
 77
     0
 47
0.0208333333333333
 47
0.0
 47
0.0
 47
0.0
 47
0.0
 47
0.0208333333333333
 47
0.0
 47
0.0
 47
0.0
 47
0.0
 47
1.0
 47
0.0
 47
0.0
 47
0.0
 47
0.0
 47
1.0
171
     0
 49
0.0208333333333333
 49
0.0
 49
0.0
 49
0.0
 49
0.0
 49
0.0208333333333333
 49
0.0
 49
0.0
 49
0.0
 49
0.0
 49
1.0
 49
0.0
 49
0.0
 49
0.0
 49
0.0
 49
1.0
175
     0
142
0.0208333333333333
142
0.0
142
0.0
142
0.0
142
0.0
142
0.0208333333333333
142
0.0
142
0.0
142
0.0
142
0.0
142
1.0
142
0.0
142
0.0
142
0.0
142
0.0
142
1.0
179
     0
144
0.0208333333333333
144
0.0
144
0.0
144
0.0
144
0.0
144
0.0208333333333333
144
0.0
144
0.0
144
0.0
144
0.0
144
1.0
144
0.0
144
0.0
144
0.0
144
0.0
144
1.0
147
0.0208333333333333
147
0.0
147
0.0
147
0.0
147
0.0
147
0.0208333333333333
147
0.0
147
0.0
147
0.0
147
0.0
147
1.0
147
0.0
147
0.0
147
0.0
147
0.0
147
1.0
  0
MLEADERSTYLE
  5
67
102
{ACAD_REACTORS
330
66
102
}
330
66
100
AcDbMLeaderStyle
179
     2
170
     2
171
     1
172
     0
 90
        2
 40
0.0
 41
0.0
173
     1
 91
-1056964608
340
5B
 92
       -2
290
     1
 42
0.09
291
     1
 43
0.36
  3
Standard
 44
0.18
300

342
55
174
     1
178
     6
175
     1
176
     0
 93
-1056964608
 45
0.18
292
     0
297
     0
 46
0.18
 94
-1056964608
 47
1.0
 49
1.0
140
1.0
293
     1
141
0.0
294
     1
177
     0
142
1.0
295
     0
296
     0
143
0.125
271
     0
272
     9
273
     9
298
     1
  0
MLINESTYLE
  5
60
102
{ACAD_REACTORS
330
5F
102
}
330
5F
100
AcDbMlineStyle
  2
STANDARD
 70
     0
  3

 62
   256
 51
90.0
 52
90.0
 71
     2
 49
0.5
 62
   256
  6
BYLAYER
 49
-0.5
 62
   256
  6
BYLAYER
  0
ACDBPLACEHOLDER
  5
F
102
{ACAD_REACTORS
330
E
102
}
330
E
  0
SCALE
  5
43
102
{ACAD_REACTORS
330
42
102
}
330
42
100
AcDbScale
 70
     0
300
1:1
140
1.0
141
1.0
290
     1
  0
SCALE
  5
44
102
{ACAD_REACTORS
330
42
102
}
330
42
100
AcDbScale
 70
     0
300
1/128" = 1'-0"
140
0.0078125
141
12.0
290
     0
  0
SCALE
  5
45
102
{ACAD_REACTORS
330
42
102
}
330
42
100
AcDbScale
 70
     0
300
1/64" = 1'-0"
140
0.015625
141
12.0
290
     0
  0
SCALE
  5
46
102
{ACAD_REACTORS
330
42
102
}
330
42
100
AcDbScale
 70
     0
300
1/32" = 1'-0"
140
0.03125
141
12.0
290
     0
  0
SCALE
  5
47
102
{ACAD_REACTORS
330
42
102
}
330
42
100
AcDbScale
 70
     0
300
1/16" = 1'-0"
140
0.0625
141
12.0
290
     0
  0
SCALE
  5
48
102
{ACAD_REACTORS
330
42
102
}
330
42
100
AcDbScale
 70
     0
300
3/32" = 1'-0"
140
0.09375
141
12.0
290
     0
  0
SCALE
  5
49
102
{ACAD_REACTORS
330
42
102
}
330
42
100
AcDbScale
 70
     0
300
1/8" = 1'-0"
140
0.125
141
12.0
290
     0
  0
SCALE
  5
4A
102
{ACAD_REACTORS
330
42
102
}
330
42
100
AcDbScale
 70
     0
300
3/16" = 1'-0"
140
0.1875
141
12.0
290
     0
  0
SCALE
  5
4B
102
{ACAD_REACTORS
330
42
102
}
330
42
100
AcDbScale
 70
     0
300
1/4" = 1'-0"
140
0.25
141
12.0
290
     0
  0
SCALE
  5
4C
102
{ACAD_REACTORS
330
42
102
}
330
42
100
AcDbScale
 70
     0
300
3/8" = 1'-0"
140
0.375
141
12.0
290
     0
  0
SCALE
  5
4D
102
{ACAD_REACTORS
330
42
102
}
330
42
100
AcDbScale
 70
     0
300
1/2" = 1'-0"
140
0.5
141
12.0
290
     0
  0
SCALE
  5
4E
102
{ACAD_REACTORS
330
42
102
}
330
42
100
AcDbScale
 70
     0
300
3/4" = 1'-0"
140
0.75
141
12.0
290
     0
  0
SCALE
  5
4F
102
{ACAD_REACTORS
330
42
102
}
330
42
100
AcDbScale
 70
     0
300
1" = 1'-0"
140
1.0
141
12.0
290
     0
  0
SCALE
  5
50
102
{ACAD_REACTORS
330
42
102
}
330
42
100
AcDbScale
 70
     0
300
1-1/2" = 1'-0"
140
1.5
141
12.0
290
     0
  0
SCALE
  5
51
102
{ACAD_REACTORS
330
42
102
}
330
42
100
AcDbScale
 70
     0
300
3" = 1'-0"
140
3.0
141
12.0
290
     0
  0
SCALE
  5
52
102
{ACAD_REACTORS
330
42
102
}
330
42
100
AcDbScale
 70
     0
300
6" = 1'-0"
140
6.0
141
12.0
290
     0
  0
SCALE
  5
53
102
{ACAD_REACTORS
330
42
102
}
330
42
100
AcDbScale
 70
     0
300
1'-0" = 1'-0"
140
12.0
141
12.0
290
     0
  0
ACDBSECTIONVIEWSTYLE
  5
69
102
{ACAD_XDICTIONARY
360
22D
102
}
102
{ACAD_REACTORS
330
68
102
}
330
68
100
AcDbModelDocViewStyle
 70
     0
  3
Imperial24
290
     0
100
AcDbSectionViewStyle
 70
     0
 71
     0
 90
       78
 71
     1
340
55
 62
   256
 40
0.24
340
0
340
0
 62
   256
 40
0.24
300
I, O, Q, S, X, Z
 40
0.48
 90
        3
 40
0.18
 90
        1
 71
     2
340
5D
 90
       25
 62
   256
340
5D
 90
       50
 62
   256
 40
0.24
 40
0.0
 40
0.24
 71
     3
340
55
 62
   256
 40
0.24
 90
        1
 40
0.75
 90
        1
300
%<\AcVar ViewType \f "%tc1">% %<\AcVar ViewSectionStartId>%-%<\AcVar ViewSectionEndId>%\PSCALE %<\AcVar ViewScale \f "%sn">%
 71
     4
 62
   256
 62
   257
300
ANSI31
 40
1.0
 90
        0
290
     0
290
     0
 90
        6
 40
0.0
 40
1.570796326794896
 40
0.2617993877991494
 40
1.308996938995747
 40
-0.2617993877991494
 40
1.832595714594046
  0
TABLESTYLE
  5
65
102
{ACAD_XDICTIONARY
360
22A
102
}
102
{ACAD_REACTORS
330
64
102
}
330
64
100
AcDbTableStyle
280
     0
  3
Standard
 70
     0
 71
     0
 40
0.06
 41
0.06
280
     0
281
     0
  7
Standard
140
0.18
170
     2
 62
     0
 63
     7
283
     0
 90
      512
 91
        0
  1

274
    -2
284
     1
 64
     0
275
    -2
285
     1
 65
     0
276
    -2
286
     1
 66
     0
277
    -2
287
     1
 67
     0
278
    -2
288
     1
 68
     0
279
    -2
289
     1
 69
     0
  7
Standard
140
0.25
170
     5
 62
     0
 63
     7
283
     0
 90
      512
 91
        0
  1

274
    -2
284
     1
 64
     0
275
    -2
285
     1
 65
     0
276
    -2
286
     1
 66
     0
277
    -2
287
     1
 67
     0
278
    -2
288
     1
 68
     0
279
    -2
289
     1
 69
     0
  7
Standard
140
0.18
170
     5
 62
     0
 63
     7
283
     0
 90
      512
 91
        0
  1

274
    -2
284
     1
 64
     0
275
    -2
285
     1
 65
     0
276
    -2
286
     1
 66
     0
277
    -2
287
     1
 67
     0
278
    -2
288
     1
 68
     0
279
    -2
289
     1
 69
     0
  0
VISUALSTYLE
  5
2F
102
{ACAD_REACTORS
330
29
102
}
330
29
100
AcDbVisualStyle
  2
2dWireframe
 70
     4
177
     3
291
     0
 70
    58
 90
        0
176
     1
 90
        2
176
     1
 90
        0
176
     1
 90
        0
176
     1
 40
0.6
176
     1
 40
30.0
176
     1
 62
     7
420
 16777215
176
     1
 90
        1
176
     1
 90
        4
176
     1
 62
     7
176
     1
 62
   257
176
     1
 90
        1
176
     1
 90
        1
176
     1
 40
1.0
176
     1
 90
        0
176
     1
 62
   257
176
     1
 40
1.0
176
     1
 90
        1
176
     1
 90
        6
176
     1
 90
        2
176
     1
 62
     7
176
     1
 90
        5
176
     1
 90
        0
176
     1
 90
        0
176
     1
290
     0
176
     1
 90
        1
176
     1
 40
0.0
176
     1
 90
        0
176
     1
290
     1
176
     1
290
     1
176
     1
290
     0
176
     1
290
     0
176
     1
290
     0
176
     1
290
     0
176
     1
290
     0
176
     1
290
     0
176
     1
290
     0
176
     1
 90
       50
176
     1
 40
0.0
176
     1
 40
1.0
176
     1
 90
        0
176
     1
 62
    18
420
        0
176
     1
 90
       50
176
     1
 90
        3
176
     1
 62
     5
420
      255
176
     1
290
     0
176
     1
 90
       50
176
     1
 90
       50
176
     1
 90
       50
176
     1
290
     0
176
     1
 90
       50
176
     1
 62
   256
176
     0
 40
1.0
176
     0
 90
        2
176
     1
  1
strokes_ogs.tif
176
     1
290
     0
176
     1
 40
1.0
176
     1
 40
1.0
176
     1
1001
ACAD
1000
AcDbSavedByObjectVersion
1070
     0
  0
VISUALSTYLE
  5
2E
102
{ACAD_REACTORS
330
29
102
}
330
29
100
AcDbVisualStyle
  2
Basic
 70
     7
177
     3
291
     1
 70
    58
 90
        1
176
     1
 90
        0
176
     1
 90
        1
176
     1
 90
        0
176
     1
 40
0.6
176
     1
 40
30.0
176
     1
 62
     7
420
 16777215
176
     1
 90
        0
176
     1
 90
        4
176
     1
 62
     7
176
     1
 62
   257
176
     1
 90
        1
176
     1
 90
        1
176
     1
 40
1.0
176
     1
 90
        8
176
     1
 62
     7
176
     1
 40
1.0
176
     1
 90
        1
176
     1
 90
        6
176
     1
 90
        2
176
     1
 62
     7
176
     1
 90
        5
176
     1
 90
        0
176
     1
 90
        0
176
     1
290
     0
176
     1
 90
        1
176
     1
 40
0.0
176
     1
 90
        0
176
     1
290
     0
176
     1
290
     1
176
     1
290
     1
176
     1
290
     0
176
     1
290
     0
176
     1
290
     0
176
     1
290
     0
176
     1
290
     0
176
     1
290
     0
176
     1
 90
       50
176
     1
 40
0.0
176
     1
 40
1.0
176
     1
 90
        0
176
     1
 62
    18
420
        0
176
     1
 90
       50
176
     1
 90
        3
176
     1
 62
     5
420
      255
176
     1
290
     0
176
     1
 90
       50
176
     1
 90
       50
176
     1
 90
       50
176
     1
290
     0
176
     1
 90
       50
176
     1
 62
   256
176
     0
 40
1.0
176
     0
 90
        2
176
     1
  1
strokes_ogs.tif
176
     1
290
     0
176
     1
 40
1.0
176
     1
 40
1.0
176
     1
1001
ACAD
1000
AcDbSavedByObjectVersion
1070
     0
  0
VISUALSTYLE
  5
35
102
{ACAD_REACTORS
330
29
102
}
330
29
100
AcDbVisualStyle
  2
Brighten
 70
    12
177
     3
291
     1
 70
    58
 90
        2
176
     1
 90
        2
176
     1
 90
        0
176
     1
 90
        0
176
     1
 40
0.6
176
     1
 40
30.0
176
     1
 62
     7
420
 16777215
176
     1
 90
        1
176
     1
 90
        4
176
     1
 62
     7
176
     1
 62
   257
176
     1
 90
        1
176
     1
 90
        1
176
     1
 40
1.0
176
     1
 90
        8
176
     1
 62
     7
176
     1
 40
1.0
176
     1
 90
        1
176
     1
 90
        6
176
     1
 90
        2
176
     1
 62
     7
176
     1
 90
        5
176
     1
 90
        0
176
     1
 90
        0
176
     1
290
     0
176
     1
 90
        1
176
     1
 40
50.0
176
     1
 90
        0
176
     1
290
     0
176
     1
290
     1
176
     1
290
     1
176
     1
290
     0
176
     1
290
     0
176
     1
290
     0
176
     1
290
     0
176
     1
290
     0
176
     1
290
     0
176
     1
 90
       50
176
     1
 40
0.0
176
     1
 40
1.0
176
     1
 90
        0
176
     1
 62
    18
420
        0
176
     1
 90
       50
176
     1
 90
        3
176
     1
 62
     5
420
      255
176
     1
290
     0
176
     1
 90
       50
176
     1
 90
       50
176
     1
 90
       50
176
     1
290
     0
176
     1
 90
       50
176
     1
 62
   256
176
     0
 40
1.0
176
     0
 90
        2
176
     1
  1
strokes_ogs.tif
176
     1
290
     0
176
     1
 40
1.0
176
     1
 40
1.0
176
     1
1001
ACAD
1000
AcDbSavedByObjectVersion
1070
     0
  0
VISUALSTYLE
  5
39
102
{ACAD_REACTORS
330
29
102
}
330
29
100
AcDbVisualStyle
  2
ColorChange
 70
    16
177
     3
291
     1
 70
    58
 90
        2
176
     1
 90
        2
176
     1
 90
        3
176
     1
 90
        0
176
     1
 40
0.6
176
     1
 40
30.0
176
     1
 62
     8
420
  8421504
176
     1
 90
        1
176
     1
 90
        4
176
     1
 62
     7
176
     1
 62
   257
176
     1
 90
        1
176
     1
 90
        1
176
     1
 40
1.0
176
     1
 90
        8
176
     1
 62
     8
420
  8421504
176
     1
 40
1.0
176
     1
 90
        1
176
     1
 90
        6
176
     1
 90
        2
176
     1
 62
     7
176
     1
 90
        5
176
     1
 90
        0
176
     1
 90
        0
176
     1
290
     0
176
     1
 90
        1
176
     1
 40
0.0
176
     1
 90
        0
176
     1
290
     0
176
     1
290
     1
176
     1
290
     1
176
     1
290
     0
176
     1
290
     0
176
     1
290
     0
176
     1
290
     0
176
     1
290
     0
176
     1
290
     0
176
     1
 90
       50
176
     1
 40
0.0
176
     1
 40
1.0
176
     1
 90
        0
176
     1
 62
    18
420
        0
176
     1
 90
       50
176
     1
 90
        3
176
     1
 62
     5
420
      255
176
     1
290
     0
176
     1
 90
       50
176
     1
 90
       50
176
     1
 90
       50
176
     1
290
     0
176
     1
 90
       50
176
     1
 62
   256
176
     0
 40
1.0
176
     0
 90
        2
176
     1
  1
strokes_ogs.tif
176
     1
290
     0
176
     1
 40
1.0
176
     1
 40
1.0
176
     1
1001
ACAD
1000
AcDbSavedByObjectVersion
1070
     0
  0
VISUALSTYLE
  5
32
102
{ACAD_REACTORS
330
29
102
}
330
29
100
AcDbVisualStyle
  2
Conceptual
 70
     9
177
     3
291
     0
 70
    58
 90
        3
176
     1
 90
        2
176
     1
 90
        0
176
     1
 90
        0
176
     1
 40
0.6
176
     1
 40
30.0
176
     1
 62
     7
420
 16777215
176
     1
 90
        2
176
     1
 90
        2
176
     1
 62
     7
176
     1
 62
   257
176
     1
 90
        1
176
     1
 90
        1
176
     1
 40
179.0
176
     1
 90
        8
176
     1
 62
     7
176
     1
 40
1.0
176
     1
 90
        1
176
     1
 90
        6
176
     1
 90
        2
176
     1
 62
     7
176
     1
 90
        3
176
     1
 90
        0
176
     1
 90
        0
176
     1
290
     0
176
     1
 90
        1
176
     1
 40
0.0
176
     1
 90
        0
176
     1
290
     0
176
     1
290
     1
176
     1
290
     1
176
     1
290
     0
176
     1
290
     0
176
     1
290
     0
176
     1
290
     0
176
     1
290
     0
176
     1
290
     0
176
     1
 90
       50
176
     1
 40
0.0
176
     1
 40
1.0
176
     1
 90
        0
176
     1
 62
    18
420
        0
176
     1
 90
       50
176
     1
 90
        3
176
     1
 62
     5
420
      255
176
     1
290
     0
176
     1
 90
       50
176
     1
 90
       50
176
     1
 90
       50
176
     1
290
     0
176
     1
 90
       50
176
     1
 62
   256
176
     0
 40
1.0
176
     0
 90
        2
176
     1
  1
strokes_ogs.tif
176
     1
290
     0
176
     1
 40
1.0
176
     1
 40
1.0
176
     1
1001
ACAD
1000
AcDbSavedByObjectVersion
1070
     0
  0
VISUALSTYLE
  5
34
102
{ACAD_REACTORS
330
29
102
}
330
29
100
AcDbVisualStyle
  2
Dim
 70
    11
177
     3
291
     1
 70
    58
 90
        2
176
     1
 90
        2
176
     1
 90
        0
176
     1
 90
        0
176
     1
 40
0.6
176
     1
 40
30.0
176
     1
 62
     7
420
 16777215
176
     1
 90
        1
176
     1
 90
        4
176
     1
 62
     7
176
     1
 62
   257
176
     1
 90
        1
176
     1
 90
        1
176
     1
 40
1.0
176
     1
 90
        8
176
     1
 62
     7
176
     1
 40
1.0
176
     1
 90
        1
176
     1
 90
        6
176
     1
 90
        2
176
     1
 62
     7
176
     1
 90
        5
176
     1
 90
        0
176
     1
 90
        0
176
     1
290
     0
176
     1
 90
        1
176
     1
 40
-50.0
176
     1
 90
        0
176
     1
290
     0
176
     1
290
     1
176
     1
290
     1
176
     1
290
     0
176
     1
290
     0
176
     1
290
     0
176
     1
290
     0
176
     1
290
     0
176
     1
290
     0
176
     1
 90
       50
176
     1
 40
0.0
176
     1
 40
1.0
176
     1
 90
        0
176
     1
 62
    18
420
        0
176
     1
 90
       50
176
     1
 90
        3
176
     1
 62
     5
420
      255
176
     1
290
     0
176
     1
 90
       50
176
     1
 90
       50
176
     1
 90
       50
176
     1
290
     0
176
     1
 90
       50
176
     1
 62
   256
176
     0
 40
1.0
176
     0
 90
        2
176
     1
  1
strokes_ogs.tif
176
     1
290
     0
176
     1
 40
1.0
176
     1
 40
1.0
176
     1
1001
ACAD
1000
AcDbSavedByObjectVersion
1070
     0
  0
VISUALSTYLE
  5
41
102
{ACAD_REACTORS
330
29
102
}
330
29
100
AcDbVisualStyle
  2
EdgeColorOff
 70
    22
177
     3
291
     1
 70
    58
 90
        2
176
     0
 90
        2
176
     0
 90
        0
176
     0
 90
        0
176
     0
 40
0.6
176
     0
 40
30.0
176
     0
 62
     7
420
 16777215
176
     0
 90
        1
176
     0
 90
        4
176
     0
 62
     7
176
     0
 62
   257
176
     0
 90
        1
176
     0
 90
        1
176
     0
 40
1.0
176
     0
 90
        8
176
     2
 62
     7
176
     0
 40
1.0
176
     0
 90
        1
176
     0
 90
        6
176
     0
 90
        2
176
     0
 62
     7
176
     0
 90
        5
176
     0
 90
        0
176
     0
 90
        0
176
     0
290
     0
176
     0
 90
        1
176
     0
 40
0.0
176
     0
 90
        0
176
     0
290
     0
176
     0
290
     1
176
     0
290
     1
176
     0
290
     0
176
     0
290
     0
176
     0
290
     0
176
     0
290
     0
176
     0
290
     0
176
     0
290
     0
176
     0
 90
       50
176
     0
 40
0.0
176
     0
 40
1.0
176
     0
 90
        0
176
     0
 62
    18
420
        0
176
     0
 90
       50
176
     0
 90
        3
176
     0
 62
     5
420
      255
176
     0
290
     0
176
     0
 90
       50
176
     0
 90
       50
176
     0
 90
       50
176
     0
290
     0
176
     0
 90
       50
176
     0
 62
   256
176
     0
 40
1.0
176
     0
 90
        2
176
     0
  1
strokes_ogs.tif
176
     0
290
     0
176
     0
 40
1.0
176
     0
 40
1.0
176
     0
1001
ACAD
1000
AcDbSavedByObjectVersion
1070
     0
  0
VISUALSTYLE
  5
38
102
{ACAD_REACTORS
330
29
102
}
330
29
100
AcDbVisualStyle
  2
Facepattern
 70
    15
177
     3
291
     1
 70
    58
 90
        2
176
     1
 90
        2
176
     1
 90
        0
176
     1
 90
        0
176
     1
 40
0.6
176
     1
 40
30.0
176
     1
 62
     7
420
 16777215
176
     1
 90
        1
176
     1
 90
        4
176
     1
 62
     7
176
     1
 62
   257
176
     1
 90
        1
176
     1
 90
        1
176
     1
 40
1.0
176
     1
 90
        8
176
     1
 62
     7
176
     1
 40
1.0
176
     1
 90
        1
176
     1
 90
        6
176
     1
 90
        2
176
     1
 62
     7
176
     1
 90
        5
176
     1
 90
        0
176
     1
 90
        0
176
     1
290
     0
176
     1
 90
        1
176
     1
 40
0.0
176
     1
 90
        0
176
     1
290
     0
176
     1
290
     1
176
     1
290
     1
176
     1
290
     0
176
     1
290
     0
176
     1
290
     0
176
     1
290
     0
176
     1
290
     0
176
     1
290
     0
176
     1
 90
       50
176
     1
 40
0.0
176
     1
 40
1.0
176
     1
 90
        0
176
     1
 62
    18
420
        0
176
     1
 90
       50
176
     1
 90
        3
176
     1
 62
     5
420
      255
176
     1
290
     0
176
     1
 90
       50
176
     1
 90
       50
176
     1
 90
       50
176
     1
290
     0
176
     1
 90
       50
176
     1
 62
   256
176
     0
 40
1.0
176
     0
 90
        2
176
     1
  1
strokes_ogs.tif
176
     1
290
     0
176
     1
 40
1.0
176
     1
 40
1.0
176
     1
1001
ACAD
1000
AcDbSavedByObjectVersion
1070
     0
  0
VISUALSTYLE
  5
2A
102
{ACAD_REACTORS
330
29
102
}
330
29
100
AcDbVisualStyle
  2
Flat
 70
     0
177
     3
291
     1
 70
    58
 90
        2
176
     1
 90
        1
176
     1
 90
        1
176
     1
 90
        2
176
     1
 40
0.6
176
     1
 40
30.0
176
     1
 62
     7
420
 16777215
176
     1
 90
        0
176
     1
 90
        0
176
     1
 62
     7
176
     1
 62
   257
176
     1
 90
        1
176
     1
 90
        1
176
     1
 40
1.0
176
     1
 90
        8
176
     1
 62
     7
176
     1
 40
1.0
176
     1
 90
        1
176
     1
 90
        6
176
     1
 90
        2
176
     1
 62
     7
176
     1
 90
        5
176
     1
 90
        0
176
     1
 90
        0
176
     1
290
     0
176
     1
 90
       13
176
     1
 40
0.0
176
     1
 90
        0
176
     1
290
     0
176
     1
290
     1
176
     1
290
     1
176
     1
290
     0
176
     1
290
     0
176
     1
290
     0
176
     1
290
     0
176
     1
290
     0
176
     1
290
     0
176
     1
 90
       50
176
     1
 40
0.0
176
     1
 40
1.0
176
     1
 90
        0
176
     1
 62
    18
420
        0
176
     1
 90
       50
176
     1
 90
        3
176
     1
 62
     5
420
      255
176
     1
290
     0
176
     1
 90
       50
176
     1
 90
       50
176
     1
 90
       50
176
     1
290
     0
176
     1
 90
       50
176
     1
 62
   256
176
     0
 40
1.0
176
     0
 90
        2
176
     1
  1
strokes_ogs.tif
176
     1
290
     0
176
     1
 40
1.0
176
     1
 40
1.0
176
     1
1001
ACAD
1000
AcDbSavedByObjectVersion
1070
     0
  0
VISUALSTYLE
  5
2B
102
{ACAD_REACTORS
330
29
102
}
330
29
100
AcDbVisualStyle
  2
FlatWithEdges
 70
     1
177
     3
291
     1
 70
    58
 90
        2
176
     1
 90
        1
176
     1
 90
        1
176
     1
 90
        2
176
     1
 40
0.6
176
     1
 40
30.0
176
     1
 62
     7
420
 16777215
176
     1
 90
        1
176
     1
 90
        0
176
     1
 62
     7
176
     1
 62
   257
176
     1
 90
        1
176
     1
 90
        1
176
     1
 40
1.0
176
     1
 90
        0
176
     1
 62
   257
176
     1
 40
1.0
176
     1
 90
        1
176
     1
 90
        6
176
     1
 90
        2
176
     1
 62
     7
176
     1
 90
        5
176
     1
 90
        0
176
     1
 90
        0
176
     1
290
     0
176
     1
 90
       13
176
     1
 40
0.0
176
     1
 90
        0
176
     1
290
     0
176
     1
290
     1
176
     1
290
     1
176
     1
290
     0
176
     1
290
     0
176
     1
290
     0
176
     1
290
     0
176
     1
290
     0
176
     1
290
     0
176
     1
 90
       50
176
     1
 40
0.0
176
     1
 40
1.0
176
     1
 90
        0
176
     1
 62
    18
420
        0
176
     1
 90
       50
176
     1
 90
        3
176
     1
 62
     5
420
      255
176
     1
290
     0
176
     1
 90
       50
176
     1
 90
       50
176
     1
 90
       50
176
     1
290
     0
176
     1
 90
       50
176
     1
 62
   256
176
     0
 40
1.0
176
     0
 90
        2
176
     1
  1
strokes_ogs.tif
176
     1
290
     0
176
     1
 40
1.0
176
     1
 40
1.0
176
     1
1001
ACAD
1000
AcDbSavedByObjectVersion
1070
     0
  0
VISUALSTYLE
  5
2C
102
{ACAD_REACTORS
330
29
102
}
330
29
100
AcDbVisualStyle
  2
Gouraud
 70
     2
177
     3
291
     1
 70
    58
 90
        2
176
     1
 90
        2
176
     1
 90
        1
176
     1
 90
        2
176
     1
 40
0.6
176
     1
 40
30.0
176
     1
 62
     7
420
 16777215
176
     1
 90
        0
176
     1
 90
        0
176
     1
 62
     7
176
     1
 62
   257
176
     1
 90
        1
176
     1
 90
        1
176
     1
 40
1.0
176
     1
 90
        0
176
     1
 62
     7
176
     1
 40
1.0
176
     1
 90
        1
176
     1
 90
        6
176
     1
 90
        2
176
     1
 62
     7
176
     1
 90
        5
176
     1
 90
        0
176
     1
 90
        0
176
     1
290
     0
176
     1
 90
       13
176
     1
 40
0.0
176
     1
 90
        0
176
     1
290
     0
176
     1
290
     1
176
     1
290
     1
176
     1
290
     0
176
     1
290
     0
176
     1
290
     0
176
     1
290
     0
176
     1
290
     0
176
     1
290
     0
176
     1
 90
       50
176
     1
 40
0.0
176
     1
 40
1.0
176
     1
 90
        0
176
     1
 62
    18
420
        0
176
     1
 90
       50
176
     1
 90
        3
176
     1
 62
     5
420
      255
176
     1
290
     0
176
     1
 90
       50
176
     1
 90
       50
176
     1
 90
       50
176
     1
290
     0
176
     1
 90
       50
176
     1
 62
   256
176
     0
 40
1.0
176
     0
 90
        2
176
     1
  1
strokes_ogs.tif
176
     1
290
     0
176
     1
 40
1.0
176
     1
 40
1.0
176
     1
1001
ACAD
1000
AcDbSavedByObjectVersion
1070
     0
  0
VISUALSTYLE
  5
2D
102
{ACAD_REACTORS
330
29
102
}
330
29
100
AcDbVisualStyle
  2
GouraudWithEdges
 70
     3
177
     3
291
     1
 70
    58
 90
        2
176
     1
 90
        2
176
     1
 90
        1
176
     1
 90
        2
176
     1
 40
0.6
176
     1
 40
30.0
176
     1
 62
     7
420
 16777215
176
     1
 90
        1
176
     1
 90
        0
176
     1
 62
     7
176
     1
 62
   257
176
     1
 90
        1
176
     1
 90
        1
176
     1
 40
1.0
176
     1
 90
        0
176
     1
 62
   257
176
     1
 40
1.0
176
     1
 90
        1
176
     1
 90
        6
176
     1
 90
        2
176
     1
 62
     7
176
     1
 90
        5
176
     1
 90
        0
176
     1
 90
        0
176
     1
290
     0
176
     1
 90
       13
176
     1
 40
0.0
176
     1
 90
        0
176
     1
290
     0
176
     1
290
     1
176
     1
290
     1
176
     1
290
     0
176
     1
290
     0
176
     1
290
     0
176
     1
290
     0
176
     1
290
     0
176
     1
290
     0
176
     1
 90
       50
176
     1
 40
0.0
176
     1
 40
1.0
176
     1
 90
        0
176
     1
 62
    18
420
        0
176
     1
 90
       50
176
     1
 90
        3
176
     1
 62
     5
420
      255
176
     1
290
     0
176
     1
 90
       50
176
     1
 90
       50
176
     1
 90
       50
176
     1
290
     0
176
     1
 90
       50
176
     1
 62
   256
176
     0
 40
1.0
176
     0
 90
        2
176
     1
  1
strokes_ogs.tif
176
     1
290
     0
176
     1
 40
1.0
176
     1
 40
1.0
176
     1
1001
ACAD
1000
AcDbSavedByObjectVersion
1070
     0
  0
VISUALSTYLE
  5
31
102
{ACAD_REACTORS
330
29
102
}
330
29
100
AcDbVisualStyle
  2
Hidden
 70
     6
177
     3
291
     0
 70
    58
 90
        1
176
     1
 90
        2
176
     1
 90
        2
176
     1
 90
        0
176
     1
 40
0.6
176
     1
 40
30.0
176
     1
 62
     7
420
 16777215
176
     1
 90
        2
176
     1
 90
        2
176
     1
 62
     7
176
     1
 62
   257
176
     1
 90
        2
176
     1
 90
        1
176
     1
 40
40.0
176
     1
 90
        0
176
     1
 62
   257
176
     1
 40
1.0
176
     1
 90
        1
176
     1
 90
        6
176
     1
 90
        2
176
     1
 62
     7
176
     1
 90
        3
176
     1
 90
        0
176
     1
 90
        0
176
     1
290
     0
176
     1
 90
        1
176
     1
 40
0.0
176
     1
 90
        0
176
     1
290
     0
176
     1
290
     1
176
     1
290
     1
176
     1
290
     0
176
     1
290
     0
176
     1
290
     0
176
     1
290
     0
176
     1
290
     0
176
     1
290
     0
176
     1
 90
       50
176
     1
 40
0.0
176
     1
 40
1.0
176
     1
 90
        0
176
     1
 62
    18
420
        0
176
     1
 90
       50
176
     1
 90
        3
176
     1
 62
     5
420
      255
176
     1
290
     0
176
     1
 90
       50
176
     1
 90
       50
176
     1
 90
       50
176
     1
290
     0
176
     1
 90
       50
176
     1
 62
   256
176
     0
 40
1.0
176
     0
 90
        2
176
     1
  1
strokes_ogs.tif
176
     1
290
     0
176
     1
 40
1.0
176
     1
 40
1.0
176
     1
1001
ACAD
1000
AcDbSavedByObjectVersion
1070
     0
  0
VISUALSTYLE
  5
3F
102
{ACAD_REACTORS
330
29
102
}
330
29
100
AcDbVisualStyle
  2
JitterOff
 70
    20
177
     3
291
     1
 70
    58
 90
        2
176
     0
 90
        2
176
     0
 90
        0
176
     0
 90
        0
176
     0
 40
0.6
176
     0
 40
30.0
176
     0
 62
     7
420
 16777215
176
     0
 90
        1
176
     0
 90
        4
176
     0
 62
     7
176
     0
 62
   257
176
     0
 90
        1
176
     0
 90
        1
176
     0
 40
1.0
176
     0
 90
       10
176
     2
 62
     7
176
     0
 40
1.0
176
     0
 90
        1
176
     0
 90
        6
176
     0
 90
        2
176
     0
 62
     7
176
     0
 90
        5
176
     0
 90
        0
176
     0
 90
        0
176
     0
290
     0
176
     0
 90
        1
176
     0
 40
0.0
176
     0
 90
        0
176
     0
290
     0
176
     0
290
     1
176
     0
290
     1
176
     0
290
     0
176
     0
290
     0
176
     0
290
     0
176
     0
290
     0
176
     0
290
     0
176
     0
290
     0
176
     0
 90
       50
176
     0
 40
0.0
176
     0
 40
1.0
176
     0
 90
        0
176
     0
 62
    18
420
        0
176
     0
 90
       50
176
     0
 90
        3
176
     0
 62
     5
420
      255
176
     0
290
     0
176
     0
 90
       50
176
     0
 90
       50
176
     0
 90
       50
176
     0
290
     0
176
     0
 90
       50
176
     0
 62
   256
176
     0
 40
1.0
176
     0
 90
        2
176
     0
  1
strokes_ogs.tif
176
     0
290
     0
176
     0
 40
1.0
176
     0
 40
1.0
176
     0
1001
ACAD
1000
AcDbSavedByObjectVersion
1070
     0
  0
VISUALSTYLE
  5
37
102
{ACAD_REACTORS
330
29
102
}
330
29
100
AcDbVisualStyle
  2
Linepattern
 70
    14
177
     3
291
     1
 70
    58
 90
        2
176
     1
 90
        2
176
     1
 90
        0
176
     1
 90
        0
176
     1
 40
0.6
176
     1
 40
30.0
176
     1
 62
     7
420
 16777215
176
     1
 90
        1
176
     1
 90
        4
176
     1
 62
     7
176
     1
 62
   257
176
     1
 90
        7
176
     1
 90
        7
176
     1
 40
1.0
176
     1
 90
        8
176
     1
 62
     7
176
     1
 40
1.0
176
     1
 90
        1
176
     1
 90
        6
176
     1
 90
        2
176
     1
 62
     7
176
     1
 90
        5
176
     1
 90
        0
176
     1
 90
        0
176
     1
290
     0
176
     1
 90
        1
176
     1
 40
0.0
176
     1
 90
        0
176
     1
290
     0
176
     1
290
     1
176
     1
290
     1
176
     1
290
     0
176
     1
290
     0
176
     1
290
     0
176
     1
290
     0
176
     1
290
     0
176
     1
290
     0
176
     1
 90
       50
176
     1
 40
0.0
176
     1
 40
1.0
176
     1
 90
        0
176
     1
 62
    18
420
        0
176
     1
 90
       50
176
     1
 90
        3
176
     1
 62
     5
420
      255
176
     1
290
     0
176
     1
 90
       50
176
     1
 90
       50
176
     1
 90
       50
176
     1
290
     0
176
     1
 90
       50
176
     1
 62
   256
176
     0
 40
1.0
176
     0
 90
        2
176
     1
  1
strokes_ogs.tif
176
     1
290
     0
176
     1
 40
1.0
176
     1
 40
1.0
176
     1
1001
ACAD
1000
AcDbSavedByObjectVersion
1070
     0
  0
VISUALSTYLE
  5
40
102
{ACAD_REACTORS
330
29
102
}
330
29
100
AcDbVisualStyle
  2
OverhangOff
 70
    21
177
     3
291
     1
 70
    58
 90
        2
176
     0
 90
        2
176
     0
 90
        0
176
     0
 90
        0
176
     0
 40
0.6
176
     0
 40
30.0
176
     0
 62
     7
420
 16777215
176
     0
 90
        1
176
     0
 90
        4
176
     0
 62
     7
176
     0
 62
   257
176
     0
 90
        1
176
     0
 90
        1
176
     0
 40
1.0
176
     0
 90
        9
176
     2
 62
     7
176
     0
 40
1.0
176
     0
 90
        1
176
     0
 90
        6
176
     0
 90
        2
176
     0
 62
     7
176
     0
 90
        5
176
     0
 90
        0
176
     0
 90
        0
176
     0
290
     0
176
     0
 90
        1
176
     0
 40
0.0
176
     0
 90
        0
176
     0
290
     0
176
     0
290
     1
176
     0
290
     1
176
     0
290
     0
176
     0
290
     0
176
     0
290
     0
176
     0
290
     0
176
     0
290
     0
176
     0
290
     0
176
     0
 90
       50
176
     0
 40
0.0
176
     0
 40
1.0
176
     0
 90
        0
176
     0
 62
    18
420
        0
176
     0
 90
       50
176
     0
 90
        3
176
     0
 62
     5
420
      255
176
     0
290
     0
176
     0
 90
       50
176
     0
 90
       50
176
     0
 90
       50
176
     0
290
     0
176
     0
 90
       50
176
     0
 62
   256
176
     0
 40
1.0
176
     0
 90
        2
176
     0
  1
strokes_ogs.tif
176
     0
290
     0
176
     0
 40
1.0
176
     0
 40
1.0
176
     0
1001
ACAD
1000
AcDbSavedByObjectVersion
1070
     0
  0
VISUALSTYLE
  5
33
102
{ACAD_REACTORS
330
29
102
}
330
29
100
AcDbVisualStyle
  2
Realistic
 70
     8
177
     3
291
     0
 70
    58
 90
        2
176
     1
 90
        3
176
     1
 90
        0
176
     1
 90
        2
176
     1
 40
0.6
176
     1
 40
30.0
176
     1
 62
     7
420
 16777215
176
     1
 90
        0
176
     1
 90
        0
176
     1
 62
     7
176
     1
 62
   257
176
     1
 90
        1
176
     1
 90
        1
176
     1
 40
1.0
176
     1
 90
        8
176
     1
 62
   257
176
     1
 40
1.0
176
     1
 90
        1
176
     1
 90
        6
176
     1
 90
        2
176
     1
 62
     7
176
     1
 90
        3
176
     1
 90
        0
176
     1
 90
        0
176
     1
290
     0
176
     1
 90
       13
176
     1
 40
0.0
176
     1
 90
        0
176
     1
290
     0
176
     1
290
     1
176
     1
290
     1
176
     1
290
     0
176
     1
290
     0
176
     1
290
     0
176
     1
290
     0
176
     1
290
     0
176
     1
290
     0
176
     1
 90
       50
176
     1
 40
0.0
176
     1
 40
1.0
176
     1
 90
        0
176
     1
 62
    18
420
        0
176
     1
 90
       50
176
     1
 90
        3
176
     1
 62
     5
420
      255
176
     1
290
     0
176
     1
 90
       50
176
     1
 90
       50
176
     1
 90
       50
176
     1
290
     0
176
     1
 90
       50
176
     1
 62
   256
176
     0
 40
1.0
176
     0
 90
        2
176
     1
  1
strokes_ogs.tif
176
     1
290
     0
176
     1
 40
1.0
176
     1
 40
1.0
176
     1
1001
ACAD
1000
AcDbSavedByObjectVersion
1070
     0
  0
VISUALSTYLE
  5
3E
102
{ACAD_REACTORS
330
29
102
}
330
29
100
AcDbVisualStyle
  2
Shaded
 70
    27
177
     3
291
     0
 70
    58
 90
        2
176
     1
 90
        2
176
     1
 90
        1
176
     1
 90
        2
176
     1
 40
0.6
176
     1
 40
30.0
176
     1
 62
     7
420
 16777215
176
     1
 90
        0
176
     1
 90
        4
176
     1
 62
     7
176
     1
 62
   257
176
     1
 90
        1
176
     1
 90
        1
176
     1
 40
1.0
176
     1
 90
        8
176
     1
 62
   257
176
     1
 40
1.0
176
     1
 90
        1
176
     1
 90
        6
176
     1
 90
        2
176
     1
 62
     8
420
  7895160
176
     1
 90
        3
176
     1
 90
        0
176
     1
 90
        0
176
     1
290
     0
176
     1
 90
        5
176
     1
 40
0.0
176
     1
 90
        0
176
     1
290
     0
176
     1
290
     1
176
     1
290
     1
176
     1
290
     0
176
     1
290
     0
176
     1
290
     0
176
     1
290
     0
176
     1
290
     0
176
     1
290
     0
176
     1
 90
       50
176
     1
 40
0.0
176
     1
 40
1.0
176
     1
 90
        0
176
     1
 62
    18
420
        0
176
     1
 90
       50
176
     1
 90
        3
176
     1
 62
     5
420
      255
176
     1
290
     0
176
     1
 90
       50
176
     1
 90
       50
176
     1
 90
       50
176
     1
290
     0
176
     1
 90
       50
176
     1
 62
   256
176
     0
 40
1.0
176
     0
 90
        2
176
     1
  1
strokes_ogs.tif
176
     1
290
     0
176
     1
 40
1.0
176
     1
 40
1.0
176
     1
1001
ACAD
1000
AcDbSavedByObjectVersion
1070
     0
  0
VISUALSTYLE
  5
3D
102
{ACAD_REACTORS
330
29
102
}
330
29
100
AcDbVisualStyle
  2
Shaded with edges
 70
    26
177
     3
291
     0
 70
    58
 90
        2
176
     1
 90
        2
176
     1
 90
        1
176
     1
 90
        2
176
     1
 40
0.6
176
     1
 40
30.0
176
     1
 62
     7
420
 16777215
176
     1
 90
        1
176
     1
 90
        2
176
     1
 62
     7
176
     1
 62
   257
176
     1
 90
        2
176
     1
 90
        1
176
     1
 40
1.0
176
     1
 90
        8
176
     1
 62
   257
176
     1
 40
1.0
176
     1
 90
        1
176
     1
 90
        6
176
     1
 90
        2
176
     1
 62
     7
176
     1
 90
        3
176
     1
 90
        0
176
     1
 90
        0
176
     1
290
     0
176
     1
 90
        5
176
     1
 40
0.0
176
     1
 90
        0
176
     1
290
     0
176
     1
290
     1
176
     1
290
     1
176
     1
290
     0
176
     1
290
     0
176
     1
290
     0
176
     1
290
     0
176
     1
290
     0
176
     1
290
     0
176
     1
 90
       50
176
     1
 40
0.0
176
     1
 40
1.0
176
     1
 90
        0
176
     1
 62
    18
420
        0
176
     1
 90
       50
176
     1
 90
        3
176
     1
 62
     5
420
      255
176
     1
290
     0
176
     1
 90
       50
176
     1
 90
       50
176
     1
 90
       50
176
     1
290
     0
176
     1
 90
       50
176
     1
 62
   256
176
     0
 40
1.0
176
     0
 90
        2
176
     1
  1
strokes_ogs.tif
176
     1
290
     0
176
     1
 40
1.0
176
     1
 40
1.0
176
     1
1001
ACAD
1000
AcDbSavedByObjectVersion
1070
     0
  0
VISUALSTYLE
  5
3A
102
{ACAD_REACTORS
330
29
102
}
330
29
100
AcDbVisualStyle
  2
Shades of Gray
 70
    23
177
     3
291
     0
 70
    58
 90
        2
176
     1
 90
        2
176
     1
 90
        3
176
     1
 90
        0
176
     1
 40
0.6
176
     1
 40
30.0
176
     1
 62
     7
420
 16777215
176
     1
 90
        2
176
     1
 90
        2
176
     1
 62
     7
176
     1
 62
     7
176
     1
 90
        1
176
     1
 90
        1
176
     1
 40
40.0
176
     1
 90
        8
176
     1
 62
     7
176
     1
 40
1.0
176
     1
 90
        1
176
     1
 90
        6
176
     1
 90
        2
176
     1
 62
     7
176
     1
 90
        3
176
     1
 90
        0
176
     1
 90
        0
176
     1
290
     0
176
     1
 90
        1
176
     1
 40
0.0
176
     1
 90
        0
176
     1
290
     0
176
     1
290
     1
176
     1
290
     1
176
     1
290
     0
176
     1
290
     0
176
     1
290
     0
176
     1
290
     0
176
     1
290
     0
176
     1
290
     0
176
     1
 90
       50
176
     1
 40
0.0
176
     1
 40
1.0
176
     1
 90
        0
176
     1
 62
    18
420
        0
176
     1
 90
       50
176
     1
 90
        3
176
     1
 62
     5
420
      255
176
     1
290
     0
176
     1
 90
       50
176
     1
 90
       50
176
     1
 90
       50
176
     1
290
     0
176
     1
 90
       50
176
     1
 62
   256
176
     0
 40
1.0
176
     0
 90
        2
176
     1
  1
strokes_ogs.tif
176
     1
290
     0
176
     1
 40
1.0
176
     1
 40
1.0
176
     1
1001
ACAD
1000
AcDbSavedByObjectVersion
1070
     0
  0
VISUALSTYLE
  5
3B
102
{ACAD_REACTORS
330
29
102
}
330
29
100
AcDbVisualStyle
  2
Sketchy
 70
    24
177
     3
291
     0
 70
    58
 90
        1
176
     1
 90
        2
176
     1
 90
        2
176
     1
 90
        0
176
     1
 40
0.6
176
     1
 40
30.0
176
     1
 62
     7
420
 16777215
176
     1
 90
        2
176
     1
 90
        2
176
     1
 62
     7
176
     1
 62
     7
176
     1
 90
        1
176
     1
 90
        1
176
     1
 40
40.0
176
     1
 90
       11
176
     1
 62
     7
176
     1
 40
1.0
176
     1
 90
        1
176
     1
 90
        6
176
     1
 90
        2
176
     1
 62
     7
176
     1
 90
        6
176
     1
 90
        0
176
     1
 90
        0
176
     1
290
     0
176
     1
 90
        1
176
     1
 40
0.0
176
     1
 90
        0
176
     1
290
     0
176
     1
290
     1
176
     1
290
     1
176
     1
290
     0
176
     1
290
     0
176
     1
290
     0
176
     1
290
     0
176
     1
290
     0
176
     1
290
     0
176
     1
 90
       50
176
     1
 40
0.0
176
     1
 40
1.0
176
     1
 90
        0
176
     1
 62
    18
420
        0
176
     1
 90
       50
176
     1
 90
        3
176
     1
 62
     5
420
      255
176
     1
290
     0
176
     1
 90
       50
176
     1
 90
       50
176
     1
 90
       50
176
     1
290
     0
176
     1
 90
       50
176
     1
 62
   256
176
     0
 40
1.0
176
     0
 90
        2
176
     1
  1
strokes_ogs.tif
176
     1
290
     0
176
     1
 40
1.0
176
     1
 40
1.0
176
     1
1001
ACAD
1000
AcDbSavedByObjectVersion
1070
     0
  0
VISUALSTYLE
  5
36
102
{ACAD_REACTORS
330
29
102
}
330
29
100
AcDbVisualStyle
  2
Thicken
 70
    13
177
     3
291
     1
 70
    58
 90
        2
176
     1
 90
        2
176
     1
 90
        0
176
     1
 90
        0
176
     1
 40
0.6
176
     1
 40
30.0
176
     1
 62
     7
420
 16777215
176
     1
 90
        1
176
     1
 90
        4
176
     1
 62
     7
176
     1
 62
   257
176
     1
 90
        1
176
     1
 90
        1
176
     1
 40
1.0
176
     1
 90
       12
176
     1
 62
     7
176
     1
 40
1.0
176
     1
 90
        1
176
     1
 90
        6
176
     1
 90
        2
176
     1
 62
     7
176
     1
 90
        5
176
     1
 90
        0
176
     1
 90
        0
176
     1
290
     0
176
     1
 90
        1
176
     1
 40
0.0
176
     1
 90
        0
176
     1
290
     0
176
     1
290
     1
176
     1
290
     1
176
     1
290
     0
176
     1
290
     0
176
     1
290
     0
176
     1
290
     0
176
     1
290
     0
176
     1
290
     0
176
     1
 90
       50
176
     1
 40
0.0
176
     1
 40
1.0
176
     1
 90
        0
176
     1
 62
    18
420
        0
176
     1
 90
       50
176
     1
 90
        3
176
     1
 62
     5
420
      255
176
     1
290
     0
176
     1
 90
       50
176
     1
 90
       50
176
     1
 90
       50
176
     1
290
     0
176
     1
 90
       50
176
     1
 62
   256
176
     0
 40
1.0
176
     0
 90
        2
176
     1
  1
strokes_ogs.tif
176
     1
290
     0
176
     1
 40
1.0
176
     1
 40
1.0
176
     1
1001
ACAD
1000
AcDbSavedByObjectVersion
1070
     0
  0
VISUALSTYLE
  5
30
102
{ACAD_REACTORS
330
29
102
}
330
29
100
AcDbVisualStyle
  2
Wireframe
 70
     5
177
     3
291
     0
 70
    58
 90
        0
176
     1
 90
        2
176
     1
 90
        0
176
     1
 90
        0
176
     1
 40
0.6
176
     1
 40
30.0
176
     1
 62
     7
420
 16777215
176
     1
 90
        1
176
     1
 90
        4
176
     1
 62
     7
176
     1
 62
   257
176
     1
 90
        1
176
     1
 90
        1
176
     1
 40
1.0
176
     1
 90
        0
176
     1
 62
   257
176
     1
 40
1.0
176
     1
 90
        1
176
     1
 90
        6
176
     1
 90
        2
176
     1
 62
     7
176
     1
 90
        3
176
     1
 90
        0
176
     1
 90
        0
176
     1
290
     0
176
     1
 90
        1
176
     1
 40
0.0
176
     1
 90
        0
176
     1
290
     0
176
     1
290
     1
176
     1
290
     1
176
     1
290
     0
176
     1
290
     0
176
     1
290
     0
176
     1
290
     0
176
     1
290
     0
176
     1
290
     0
176
     1
 90
       50
176
     1
 40
0.0
176
     1
 40
1.0
176
     1
 90
        0
176
     1
 62
    18
420
        0
176
     1
 90
       50
176
     1
 90
        3
176
     1
 62
     5
420
      255
176
     1
290
     0
176
     1
 90
       50
176
     1
 90
       50
176
     1
 90
       50
176
     1
290
     0
176
     1
 90
       50
176
     1
 62
   256
176
     0
 40
1.0
176
     0
 90
        2
176
     1
  1
strokes_ogs.tif
176
     1
290
     0
176
     1
 40
1.0
176
     1
 40
1.0
176
     1
1001
ACAD
1000
AcDbSavedByObjectVersion
1070
     0
  0
VISUALSTYLE
  5
3C
102
{ACAD_REACTORS
330
29
102
}
330
29
100
AcDbVisualStyle
  2
X-Ray
 70
    25
177
     3
291
     0
 70
    58
 90
        2
176
     1
 90
        2
176
     1
 90
        1
176
     1
 90
        1
176
     1
 40
0.5
176
     1
 40
30.0
176
     1
 62
     7
420
 16777215
176
     1
 90
        1
176
     1
 90
        0
176
     1
 62
     7
176
     1
 62
   257
176
     1
 90
        1
176
     1
 90
        1
176
     1
 40
1.0
176
     1
 90
        8
176
     1
 62
     7
176
     1
 40
1.0
176
     1
 90
        1
176
     1
 90
        6
176
     1
 90
        2
176
     1
 62
     7
176
     1
 90
        3
176
     1
 90
        0
176
     1
 90
        0
176
     1
290
     0
176
     1
 90
       13
176
     1
 40
0.0
176
     1
 90
        0
176
     1
290
     0
176
     1
290
     1
176
     1
290
     1
176
     1
290
     0
176
     1
290
     0
176
     1
290
     0
176
     1
290
     0
176
     1
290
     0
176
     1
290
     0
176
     1
 90
       50
176
     1
 40
0.0
176
     1
 40
1.0
176
     1
 90
        0
176
     1
 62
    18
420
        0
176
     1
 90
       50
176
     1
 90
        3
176
     1
 62
     5
420
      255
176
     1
290
     0
176
     1
 90
       50
176
     1
 90
       50
176
     1
 90
       50
176
     1
290
     0
176
     1
 90
       50
176
     1
 62
   256
176
     0
 40
1.0
176
     0
 90
        2
176
     1
  1
strokes_ogs.tif
176
     1
290
     0
176
     1
 40
1.0
176
     1
 40
1.0
176
     1
1001
ACAD
1000
AcDbSavedByObjectVersion
1070
     0
  0
DICTIONARYVAR
  5
229
102
{ACAD_REACTORS
330
224
102
}
330
224
100
DictionaryVariables
280
     0
  1
1:1
  0
DICTIONARYVAR
  5
226
102
{ACAD_REACTORS
330
224
102
}
330
224
100
DictionaryVariables
280
     0
  1
STANDARD
  0
DICTIONARYVAR
  5
225
102
{ACAD_REACTORS
330
224
102
}
330
224
100
DictionaryVariables
280
     0
  1
STANDARD
  0
DICTIONARYVAR
  5
227
102
{ACAD_REACTORS
330
224
102
}
330
224
100
DictionaryVariables
280
     0
  1
Imperial24
  0
DICTIONARYVAR
  5
228
102
{ACAD_REACTORS
330
224
102
}
330
224
100
DictionaryVariables
280
     0
  1
Imperial24
  0
DICTIONARY
  5
22F
330
6B
100
AcDbDictionary
280
     1
281
     1
  3
ACAD_XREC_ROUNDTRIP
360
230
  0
DICTIONARY
  5
1A
330
19
100
AcDbDictionary
280
     1
281
     1
  3
BUMPTILE
360
1C
  3
DIFFUSETILE
360
1B
  3
OPACITYTILE
360
1F
  3
REFLECTIONTILE
360
1E
  3
REFRACTIONTILE
360
20
  3
SPECULARTILE
360
1D
  0
DICTIONARY
  5
12
330
11
100
AcDbDictionary
280
     1
281
     1
  3
BUMPTILE
360
14
  3
DIFFUSETILE
360
13
  3
OPACITYTILE
360
17
  3
REFLECTIONTILE
360
16
  3
REFRACTIONTILE
360
18
  3
SPECULARTILE
360
15
  0
DICTIONARY
  5
22
330
21
100
AcDbDictionary
280
     1
281
     1
  3
BUMPTILE
360
24
  3
DIFFUSETILE
360
23
  3
OPACITYTILE
360
27
  3
REFLECTIONTILE
360
26
  3
REFRACTIONTILE
360
28
  3
SPECULARTILE
360
25
  0
DICTIONARY
  5
22D
330
69
100
AcDbDictionary
280
     1
281
     1
  3
ACAD_XREC_ROUNDTRIP
360
22E
  0
DICTIONARY
  5
22A
330
65
100
AcDbDictionary
280
     1
281
     1
  3
ACAD_ROUNDTRIP_2008_TABLESTYLE_CELLSTYLEMAP
360
22B
  0
XRECORD
  5
230
102
{ACAD_REACTORS
330
22F
102
}
330
22F
100
AcDbXrecord
280
     1
102
DISPLAYNAME
  1
Imperial24
102
FLAGS
 90
        0
  0
XRECORD
  5
1C
102
{ACAD_REACTORS
330
1A
102
}
330
1A
100
AcDbXrecord
280
     1
270
     1
271
     1
  0
XRECORD
  5
1B
102
{ACAD_REACTORS
330
1A
102
}
330
1A
100
AcDbXrecord
280
     1
270
     1
271
     1
  0
XRECORD
  5
1F
102
{ACAD_REACTORS
330
1A
102
}
330
1A
100
AcDbXrecord
280
     1
270
     1
271
     1
  0
XRECORD
  5
1E
102
{ACAD_REACTORS
330
1A
102
}
330
1A
100
AcDbXrecord
280
     1
270
     1
271
     1
  0
XRECORD
  5
20
102
{ACAD_REACTORS
330
1A
102
}
330
1A
100
AcDbXrecord
280
     1
270
     1
271
     1
  0
XRECORD
  5
1D
102
{ACAD_REACTORS
330
1A
102
}
330
1A
100
AcDbXrecord
280
     1
270
     1
271
     1
  0
XRECORD
  5
14
102
{ACAD_REACTORS
330
12
102
}
330
12
100
AcDbXrecord
280
     1
270
     1
271
     1
  0
XRECORD
  5
13
102
{ACAD_REACTORS
330
12
102
}
330
12
100
AcDbXrecord
280
     1
270
     1
271
     1
  0
XRECORD
  5
17
102
{ACAD_REACTORS
330
12
102
}
330
12
100
AcDbXrecord
280
     1
270
     1
271
     1
  0
XRECORD
  5
16
102
{ACAD_REACTORS
330
12
102
}
330
12
100
AcDbXrecord
280
     1
270
     1
271
     1
  0
XRECORD
  5
18
102
{ACAD_REACTORS
330
12
102
}
330
12
100
AcDbXrecord
280
     1
270
     1
271
     1
  0
XRECORD
  5
15
102
{ACAD_REACTORS
330
12
102
}
330
12
100
AcDbXrecord
280
     1
270
     1
271
     1
  0
XRECORD
  5
24
102
{ACAD_REACTORS
330
22
102
}
330
22
100
AcDbXrecord
280
     1
270
     1
271
     1
  0
XRECORD
  5
23
102
{ACAD_REACTORS
330
22
102
}
330
22
100
AcDbXrecord
280
     1
270
     1
271
     1
  0
XRECORD
  5
27
102
{ACAD_REACTORS
330
22
102
}
330
22
100
AcDbXrecord
280
     1
270
     1
271
     1
  0
XRECORD
  5
26
102
{ACAD_REACTORS
330
22
102
}
330
22
100
AcDbXrecord
280
     1
270
     1
271
     1
  0
XRECORD
  5
28
102
{ACAD_REACTORS
330
22
102
}
330
22
100
AcDbXrecord
280
     1
270
     1
271
     1
  0
XRECORD
  5
25
102
{ACAD_REACTORS
330
22
102
}
330
22
100
AcDbXrecord
280
     1
270
     1
271
     1
  0
XRECORD
  5
22E
102
{ACAD_REACTORS
330
22D
102
}
330
22D
100
AcDbXrecord
280
     1
102
DISPLAYNAME
  1
Imperial24
102
FLAGS
 90
        0
  0
CELLSTYLEMAP
  5
22B
102
{ACAD_REACTORS
330
22A
102
}
330
22A
100
AcDbCellStyleMap
 90
        3
300
CELLSTYLE
  1
TABLEFORMAT_BEGIN
 90
        5
170
     1
 91
        0
 92
    32768
 62
   257
 93
        1
300
CONTENTFORMAT
  1
CONTENTFORMAT_BEGIN
 90
        0
 91
        0
 92
      512
 93
        0
300

 40
0.0
140
1.0
 94
        5
 62
     0
340
55
144
0.25
309
CONTENTFORMAT_END
171
     0
 94
        0
309
TABLEFORMAT_END
  1
CELLSTYLE_BEGIN
 90
        1
 91
        1
300
_TITLE
309
CELLSTYLE_END
300
CELLSTYLE
  1
TABLEFORMAT_BEGIN
 90
        5
170
     1
 91
        0
 92
        0
 62
   257
 93
        1
300
CONTENTFORMAT
  1
CONTENTFORMAT_BEGIN
 90
        0
 91
        0
 92
      512
 93
        0
300

 40
0.0
140
1.0
 94
        5
 62
     0
340
55
144
0.18
309
CONTENTFORMAT_END
171
     0
 94
        0
309
TABLEFORMAT_END
  1
CELLSTYLE_BEGIN
 90
        2
 91
        1
300
_HEADER
309
CELLSTYLE_END
300
CELLSTYLE
  1
TABLEFORMAT_BEGIN
 90
        5
170
     1
 91
        0
 92
        0
 62
   257
 93
        1
300
CONTENTFORMAT
  1
CONTENTFORMAT_BEGIN
 90
        0
 91
        0
 92
      512
 93
        0
300

 40
0.0
140
1.0
 94
        2
 62
     0
340
55
144
0.18
309
CONTENTFORMAT_END
171
     0
 94
        0
309
TABLEFORMAT_END
  1
CELLSTYLE_BEGIN
 90
        3
 91
        2
300
_DATA
309
CELLSTYLE_END
  0
ENDSEC
  0
EOF
